#
# Object file
# Created by SpaceClaim
#

mtllib Rock6.mtl

# Rock6\Solid
v 783.53 -780 101.595884732704
v -127.881419841451 -780 0
v 783.53 -309.695693975925 0
v 783.53 -309.695693975925 0
v -127.881419841451 -780 0
v -216.47 -780 0
v -216.47 -372.236225041178 0
v 343.689511156306 20 0
v 783.53 20 0
v -127.881419841451 -780 0
v 783.53 -780 101.595884732704
v 783.53 -780 226.516531502518
v -112.895382136653 -780 449.21
v -131.490826531482 -780 449.21
v -216.47 -780 424.759652521616
v -216.47 -780 0
v -216.47 -372.236225041178 0
v -216.47 20 139.156997266099
v 343.689511156306 20 0
v 343.689511156306 20 0
v -216.47 20 139.156997266099
v -216.47 20 360.288318113518
v 92.5845456183884 20 449.21
v 292.992353332768 20 449.21
v 783.53 20 126.86119818172
v 783.53 20 0
v -216.47 20 139.156997266099
v -216.47 -372.236225041178 0
v -216.47 -780 0
v -216.47 -780 424.759652521616
v -216.47 20 360.288318113518
v 783.53 -780 226.516531502518
v 783.53 -430.3605261664 350.561115348068
v 547.93089306767 -317.27465403718 449.21
v -112.895382136653 -780 449.21
v 783.53 -780 101.595884732704
v 783.53 -309.695693975925 0
v 783.53 20 0
v 783.53 20 126.86119818172
v 783.53 -430.3605261664 350.561115348068
v 783.53 -780 226.516531502518
v 92.5845456183884 20 449.21
v -216.47 20 360.288318113518
v -216.47 -780 424.759652521616
v -131.490826531482 -780 449.21
v 547.93089306767 -317.27465403718 449.21
v 783.53 -430.3605261664 350.561115348068
v 783.53 20 126.86119818172
v 292.992353332768 20 449.21
v -112.895382136653 -780 449.21
v 547.93089306767 -317.27465403718 449.21
v 292.992353332768 20 449.21
v 92.5845456183884 20 449.21
v -131.490826531482 -780 449.21
vn 0.108316593184022 -0.209908730840294 -0.97170254726332
vn 0.108316593184022 -0.209908730840294 -0.97170254726332
vn 0.108316593184022 -0.209908730840294 -0.97170254726332
vn 0 0 -1
vn 0 0 -1
vn 0 0 -1
vn 0 0 -1
vn 0 0 -1
vn 0 0 -1
vn 0 -1 0
vn 0 -1 0
vn 0 -1 0
vn 0 -1 0
vn 0 -1 0
vn 0 -1 0
vn 0 -1 0
vn -0.227961490399145 0.325555848420278 -0.917631161444703
vn -0.227961490399145 0.325555848420278 -0.917631161444703
vn -0.227961490399145 0.325555848420278 -0.917631161444703
vn 0 1 0
vn 0 1 0
vn 0 1 0
vn 0 1 0
vn 0 1 0
vn 0 1 0
vn 0 1 0
vn -1 0 0
vn -1 0 0
vn -1 0 0
vn -1 0 0
vn -1 0 0
vn 0.227961490399145 -0.325555848420278 0.917631161444703
vn 0.227961490399145 -0.325555848420278 0.917631161444703
vn 0.227961490399145 -0.325555848420278 0.917631161444703
vn 0.227961490399145 -0.325555848420278 0.917631161444703
vn 1 0 0
vn 1 0 0
vn 1 0 0
vn 1 0 0
vn 1 0 0
vn 1 0 0
vn -0.275678625786474 0.0772159883335864 0.958143510352259
vn -0.275678625786474 0.0772159883335864 0.958143510352259
vn -0.275678625786474 0.0772159883335864 0.958143510352259
vn -0.275678625786474 0.0772159883335864 0.958143510352259
vn 0.50720879818188 0.383388045325602 0.7718502715866
vn 0.50720879818188 0.383388045325602 0.7718502715866
vn 0.50720879818188 0.383388045325602 0.7718502715866
vn 0.50720879818188 0.383388045325602 0.7718502715866
vn 0 0 1
vn 0 0 1
vn 0 0 1
vn 0 0 1
vn 0 0 1
vt -0.378666098065538 -0.619450022227298
vt -1.14733269830117 -0.119305885308529
vt -0.125760977596106 -0.210125134027534
vt 0.977 -0.309695693975925
vt 0.065588580158549 -0.78
vt -0.023 -0.78
vt -0.023 -0.372236225041178
vt 0.537159511156306 0.02
vt 0.977 0.02
vt -0.411411419841451 0
vt 0.5 0.101595884732704
vt 0.5 0.226516531502518
vt -0.396425382136653 0.44921
vt -0.415020826531482 0.44921
vt -0.5 0.424759652521616
vt -0.5 0
vt -1.00482151294967 0.293002625800885
vt -0.798580350445124 0.654497451505826
vt -0.321935970441947 0.328992485586142
vt -0.0601595111563061 0
vt 0.5 0.139156997266099
vt 0.5 0.360288318113518
vt 0.190945454381612 0.44921
vt -0.00946235333276829 0.44921
vt -0.5 0.12686119818172
vt -0.5 0
vt -0.4 0.139156997266099
vt -0.00776377495882208 0
vt 0.4 0
vt 0.4 0.424759652521616
vt -0.4 0.360288318113518
vt -0.381279030416468 -0.417985392937078
vt -0.197435604090029 -0.0957488105312192
vt -0.338447321803511 0.14537906337203
vt -1.14405483262615 0.102921433869457
vt -0.4 0.101595884732704
vt 0.0703043060240748 0
vt 0.4 0
vt 0.4 0.12686119818172
vt -0.0503605261663995 0.350561115348068
vt -0.4 0.226516531502518
vt -0.613475492743857 0.65787967765413
vt -0.903497470786713 0.796836613173802
vt -1.23412804989481 0.0655090715626558
vt -1.15438216577435 0.0273007821341594
vt -0.428036631595552 0.174310890188674
vt -0.211601788730196 -0.00227595784779987
vt 0.0194508058535356 0.444356950708246
vt -0.551982591328639 0.578520304185808
vt 0.0805746178633473 -0.78
vt 0.74140089306767 -0.31727465403718
vt 0.486462353332768 0.02
vt 0.286054545618388 0.02
vt 0.0619791734685175 -0.78

o Rock6\Solid
g Rock6\Solid
s off

usemtl c_0

# face 0
f 1/1/1 2/2/2 3/3/3

# face 1
f 9/9/9 4/4/4 8/8/8
f 8/8/8 4/4/4 5/5/5
f 8/8/8 5/5/5 7/7/7
f 7/7/7 5/5/5 6/6/6

# face 2
f 11/11/11 12/12/12 10/10/10
f 10/10/10 12/12/12 13/13/13
f 10/10/10 13/13/13 15/15/15
f 15/15/15 13/13/13 14/14/14
f 15/15/15 16/16/16 10/10/10

# face 3
f 17/17/17 18/18/18 19/19/19

# face 4
f 21/21/21 23/23/23 20/20/20
f 20/20/20 23/23/23 24/24/24
f 20/20/20 24/24/24 25/25/25
f 21/21/21 22/22/22 23/23/23
f 25/25/25 26/26/26 20/20/20

# face 5
f 27/27/27 28/28/28 31/31/31
f 31/31/31 28/28/28 30/30/30
f 28/28/28 29/29/29 30/30/30

# face 6
f 33/33/33 34/34/34 32/32/32
f 32/32/32 34/34/34 35/35/35

# face 7
f 41/41/41 36/36/36 40/40/40
f 40/40/40 36/36/36 37/37/37
f 40/40/40 37/37/37 39/39/39
f 39/39/39 37/37/37 38/38/38

# face 8
f 42/42/42 43/43/43 45/45/45
f 45/45/45 43/43/43 44/44/44

# face 9
f 47/47/47 48/48/48 46/46/46
f 46/46/46 48/48/48 49/49/49

# face 10
f 54/54/54 50/50/50 53/53/53
f 53/53/53 50/50/50 51/51/51
f 53/53/53 51/51/51 52/52/52
