#
# Object file
# Created by SpaceClaim
#

mtllib rock3.mtl

# rock3\Solid
v -136.407289623394 382.217051461855 -545.408983460939
v -212.821000000001 613.042344196273 -545.408983460939
v -212.821 613.042344196271 65.1157365390613
v -88.1068322338173 236.314344196271 65.1157365390613
v -88.1068322338173 236.314344196271 -240.165944209741
v -746.519 691.527344196271 -21.1855264445465
v -746.519 501.718274666693 65.1157365390613
v -367.84263712791 821.420331235184 65.1157365390613
v -542.458000000001 942.679344196271 -57.0461507017663
v -746.519 291.524902996595 65.1157365390613
v -746.519 95.0413441962707 -97.538794650079
v -479.67 -46.2316558037294 -106.457233125925
v -150.033 -34.1286941495365 37.0123176436799
v -143.042303601627 -3.59902886704202 65.1157365390613
v -278.386462062669 759.298835661904 -545.408983460939
v -542.458 942.679344196271 -545.408983460939
v -542.458000000001 942.679344196271 -57.0461507017663
v -367.84263712791 821.420331235184 65.1157365390613
v -278.386462062669 759.298835661904 65.1157365390613
v -542.458000000001 942.679344196271 -57.0461507017663
v -542.458 942.679344196271 -545.408983460939
v -746.519 691.527344196271 -545.408983460939
v -746.519 691.527344196271 -21.1855264445465
v -746.519 95.0413441962707 -97.538794650079
v -746.519 291.524902996595 65.1157365390613
v -746.519 501.718274666693 65.1157365390613
v -746.519 691.527344196271 -21.1855264445465
v -746.519 691.527344196271 -545.408983460939
v -746.519 95.0413441962707 -545.408983460939
v -479.67 -46.2316558037294 -106.457233125925
v -746.519 95.0413441962707 -97.538794650079
v -746.519 95.0413441962707 -545.408983460939
v -479.67 -46.2316558037294 -545.408983460939
v -150.033 -34.1286941495365 37.0123176436799
v -479.67 -46.2316558037294 -106.457233125925
v -479.67 -46.2316558037294 -545.408983460939
v -434.618745708724 -44.5775526443128 -545.408983460939
v -150.033 -34.1286941495365 17.9285588498888
v -136.407289623394 382.217051461855 -545.408983460939
v -88.1068322338173 236.314344196271 -240.165944209741
v -150.033 -34.1286941495365 17.9285588498888
v -434.618745708724 -44.5775526443128 -545.408983460939
v -150.033 -34.1286941495365 17.9285588498888
v -88.1068322338173 236.314344196271 -240.165944209741
v -88.1068322338173 236.314344196271 65.1157365390613
v -143.042303601627 -3.59902886704202 65.1157365390613
v -150.033 -34.1286941495365 37.0123176436799
v -746.519 291.524902996595 65.1157365390613
v -143.042303601627 -3.59902886704202 65.1157365390613
v -88.1068322338173 236.314344196271 65.1157365390613
v -212.821 613.042344196271 65.1157365390613
v -278.386462062669 759.298835661904 65.1157365390613
v -367.84263712791 821.420331235184 65.1157365390613
v -746.519 501.718274666693 65.1157365390613
v -212.821000000001 613.042344196273 -545.408983460939
v -278.386462062669 759.298835661904 -545.408983460939
v -278.386462062669 759.298835661904 65.1157365390613
v -212.821 613.042344196271 65.1157365390613
v -212.821000000001 613.042344196273 -545.408983460939
v -136.407289623394 382.217051461855 -545.408983460939
v -434.618745708724 -44.5775526443128 -545.408983460939
v -479.67 -46.2316558037294 -545.408983460939
v -746.519 95.0413441962707 -545.408983460939
v -746.519 691.527344196271 -545.408983460939
v -542.458 942.679344196271 -545.408983460939
v -278.386462062669 759.298835661904 -545.408983460939
vn 0.949332814752568 0.314272504101086 0
vn 0.949332814752568 0.314272504101086 0
vn 0.949332814752568 0.314272504101086 0
vn 0.949332814752568 0.314272504101086 0
vn 0.949332814752568 0.314272504101086 0
vn -0.329879436878248 0.390731128489274 0.859365313678873
vn -0.329879436878248 0.390731128489274 0.859365313678873
vn -0.329879436878248 0.390731128489274 0.859365313678873
vn -0.329879436878248 0.390731128489274 0.859365313678873
vn -0.297709424143638 -0.608763574795004 0.735374740373145
vn -0.297709424143638 -0.608763574795004 0.735374740373145
vn -0.297709424143638 -0.608763574795004 0.735374740373145
vn -0.297709424143638 -0.608763574795004 0.735374740373145
vn -0.297709424143638 -0.608763574795004 0.735374740373145
vn 0.570390555150529 0.821373614498951 0
vn 0.570390555150529 0.821373614498951 0
vn 0.570390555150529 0.821373614498951 0
vn 0.570390555150529 0.821373614498951 0
vn 0.570390555150529 0.821373614498951 0
vn -0.776114000116266 0.630592625094466 0
vn -0.776114000116266 0.630592625094466 0
vn -0.776114000116266 0.630592625094466 0
vn -0.776114000116266 0.630592625094466 0
vn -1 0 0
vn -1 0 0
vn -1 0 0
vn -1 0 0
vn -1 0 0
vn -1 0 0
vn -0.467887720419033 -0.883787916347062 0
vn -0.467887720419033 -0.883787916347062 0
vn -0.467887720419033 -0.883787916347062 0
vn -0.467887720419033 -0.883787916347062 0
vn 0.0366913061718587 -0.999326647323788 0
vn 0.0366913061718587 -0.999326647323788 0
vn 0.0366913061718587 -0.999326647323788 0
vn 0.0366913061718587 -0.999326647323788 0
vn 0.0366913061718587 -0.999326647323788 0
vn 0.760177567532666 -0.531153995660474 -0.374173086570951
vn 0.760177567532666 -0.531153995660474 -0.374173086570951
vn 0.760177567532666 -0.531153995660474 -0.374173086570951
vn 0.760177567532666 -0.531153995660474 -0.374173086570951
vn 0.974771826375879 -0.223203688374169 0
vn 0.974771826375879 -0.223203688374169 0
vn 0.974771826375879 -0.223203688374169 0
vn 0.974771826375879 -0.223203688374169 0
vn 0.974771826375879 -0.223203688374169 0
vn 0 0 1
vn 0 0 1
vn 0 0 1
vn 0 0 1
vn 0 0 1
vn 0 0 1
vn 0 0 1
vn 0.912504184069072 0.409067371048386 0
vn 0.912504184069072 0.409067371048386 0
vn 0.912504184069072 0.409067371048386 0
vn 0.912504184069072 0.409067371048386 0
vn 0 0 -1
vn 0 0 -1
vn 0 0 -1
vn 0 0 -1
vn 0 0 -1
vn 0 0 -1
vn 0 0 -1
vn 0 0 -1
vt -0.0447275097569268 -0.20617
vt 0.198417243218435 -0.20617
vt 0.198417243218433 0.40435472
vt -0.198417243218433 0.40435472
vt -0.198417243218433 0.0990730392511974
vt -0.338267962826187 0.209345685741082
vt -0.307340356167582 0.00314463333198148
vt 0.0461844841869532 0.350456280162977
vt -0.160611905799217 0.482187267247177
vt -0.402635144920041 -0.298038781226513
vt -0.370143880958014 -0.551034044346891
vt -0.0783110028421616 -0.629005572005809
vt 0.251328797303104 -0.485032839837441
vt 0.253313496258677 -0.442999597967935
vt 0.20617 0
vt 0.20617 0.321499903668586
vt -0.282192832759173 0.321499903668587
vt -0.40435472 0.108910456199412
vt -0.40435472 4.55953949318162E-17
vt -0.161800972513301 0.282192832759173
vt -0.161800972513301 -0.20617
vt 0.161800972513301 -0.20617
vt 0.161800972513301 0.318053457016392
vt 0.298243 0.24170018881086
vt 0.101759441199676 0.40435472
vt -0.108433930470422 0.40435472
vt -0.298243 0.318053457016392
vt -0.298243 -0.20617
vt 0.298243 -0.20617
vt 0.150968911808027 0.232781750335014
vt -0.150968911808027 0.24170018881086
vt -0.150968911808027 -0.20617
vt 0.150968911808027 -0.20617
vt 0.164929555757756 0.376251301104619
vt -0.164929555757756 0.232781750335014
vt -0.164929555757756 -0.20617
vt -0.119847945643662 -0.20617
vt 0.164929555757756 0.357167542310828
vt 0.174908390288556 -0.372597793326676
vt -0.0547773123246078 -0.11953984502654
vt -0.409384853445729 0.0140286824548506
vt -0.29054702128877 -0.605910815826612
vt -0.138721201735637 0.357167542310828
vt 0.138721201735637 0.0990730392511974
vt 0.138721201735637 0.40435472
vt -0.107401394929155 0.40435472
vt -0.138721201735637 0.376251301104619
vt -0.282546 -0.227335441199676
vt 0.320930696398373 -0.522459373063313
vt 0.375866167766183 -0.282546
vt 0.251152 0.0941820000000001
vt 0.185586537937331 0.240438491465634
vt 0.0961303628720907 0.302559987038914
vt -0.282546 -0.0171420695295779
vt -0.20617 0.1602803516072
vt -0.20617 0
vt 0.40435472 -2.270780069804E-17
vt 0.40435472 0.160280351607202
vt 0.251152 0.0941820000000021
vt 0.327565710376607 -0.136643292734416
vt 0.0293542542912763 -0.563437896840584
vt -0.0156969999999998 -0.565092
vt -0.282546 -0.423819
vt -0.282546 0.172667
vt -0.0784849999999997 0.423819
vt 0.185586537937331 0.240438491465634

o rock3\Solid
g rock3\Solid
s off

usemtl c_0

# face 0
f 1/1/1 2/2/2 5/5/5
f 5/5/5 2/2/2 3/3/3
f 5/5/5 3/3/3 4/4/4

# face 1
f 7/7/7 8/8/8 6/6/6
f 6/6/6 8/8/8 9/9/9

# face 2
f 11/11/11 12/12/12 10/10/10
f 10/10/10 12/12/12 14/14/14
f 12/12/12 13/13/13 14/14/14

# face 3
f 16/16/16 17/17/17 15/15/15
f 15/15/15 17/17/17 18/18/18
f 15/15/15 18/18/18 19/19/19

# face 4
f 21/21/21 22/22/22 20/20/20
f 20/20/20 22/22/22 23/23/23

# face 5
f 25/25/25 26/26/26 24/24/24
f 24/24/24 26/26/26 28/28/28
f 24/24/24 28/28/28 29/29/29
f 26/26/26 27/27/27 28/28/28

# face 6
f 31/31/31 32/32/32 30/30/30
f 30/30/30 32/32/32 33/33/33

# face 7
f 34/34/34 35/35/35 38/38/38
f 38/38/38 35/35/35 37/37/37
f 35/35/35 36/36/36 37/37/37

# face 8
f 39/39/39 40/40/40 42/42/42
f 42/42/42 40/40/40 41/41/41

# face 9
f 44/44/44 45/45/45 43/43/43
f 43/43/43 45/45/45 46/46/46
f 43/43/43 46/46/46 47/47/47

# face 10
f 49/49/49 50/50/50 48/48/48
f 48/48/48 50/50/50 51/51/51
f 48/48/48 51/51/51 54/54/54
f 54/54/54 51/51/51 53/53/53
f 51/51/51 52/52/52 53/53/53

# face 11
f 56/56/56 57/57/57 55/55/55
f 55/55/55 57/57/57 58/58/58

# face 12
f 60/60/60 63/63/63 59/59/59
f 59/59/59 63/63/63 64/64/64
f 59/59/59 64/64/64 66/66/66
f 66/66/66 64/64/64 65/65/65
f 60/60/60 61/61/61 63/63/63
f 63/63/63 61/61/61 62/62/62
