#
# Object file
# Created by SpaceClaim
#

mtllib Rock5.mtl

# Rock5\Solid
v -464.968300258444 -596.486009933007 0
v -508 -546 22.5547293909639
v -26 12 214.664385234494
v 591.549831379422 -437.127150094125 0
v 127 -1291 160.33656435671
v 732.568877897366 -630.85976478907 0
v 782.736084303188 -576.171697675046 0
v 782.736084303188 -576.171697675046 228.778539059159
v 127 -1291 503.529103593333
v 782.736084303188 -576.171697675046 228.778539059159
v 609.054186686461 -449.857590317426 552.01
v 105.111578687477 -1265.31988365696 552.01
v 127 -1291 503.529103593333
v -464.968300258444 -596.486009933007 0
v 591.549831379422 -437.127150094125 0
v 782.736084303188 -576.171697675046 0
v 732.568877897366 -630.85976478907 0
v 49.6973007899843 -1200.30628202919 0
v 49.6973007899843 -1200.30628202919 0
v 732.568877897366 -630.85976478907 0
v 127 -1291 160.33656435671
v -508 -546 22.5547293909639
v -464.968300258444 -596.486009933007 0
v 49.6973007899843 -1200.30628202919 0
v 127 -1291 160.33656435671
v 127 -1291 503.529103593333
v 105.111578687477 -1265.31988365696 552.01
v -121.340493238174 -999.639893759938 552.01
v -508 -546 240.701463557943
v -159.296689298406 -142.314424540478 552.01
v -121.340493238174 -999.639893759938 552.01
v 105.111578687477 -1265.31988365696 552.01
v 609.054186686461 -449.857590317426 552.01
v -26 12 552.01
v -508 -546 240.701463557943
v -121.340493238174 -999.639893759938 552.01
v -159.296689298406 -142.314424540478 552.01
v -26 12 214.664385234494
v -508 -546 22.5547293909639
v -508 -546 240.701463557943
v -159.296689298406 -142.314424540478 552.01
v -26 12 552.01
v 591.549831379422 -437.127150094125 0
v -26 12 214.664385234494
v -26 12 552.01
v 609.054186686461 -449.857590317426 552.01
v 782.736084303188 -576.171697675046 228.778539059159
v 782.736084303188 -576.171697675046 0
vn -0.0554319912863355 0.367503281122977 -0.928368802096386
vn -0.0554319912863355 0.367503281122977 -0.928368802096386
vn -0.0554319912863355 0.367503281122977 -0.928368802096386
vn -0.0554319912863355 0.367503281122977 -0.928368802096386
vn 0.73690925139627 -0.675991682793945 0
vn 0.73690925139627 -0.675991682793945 0
vn 0.73690925139627 -0.675991682793945 0
vn 0.73690925139627 -0.675991682793945 0
vn 0.73690925139627 -0.675991682793945 0
vn 0.709152348092447 -0.43824476825627 0.552308310901599
vn 0.709152348092447 -0.43824476825627 0.552308310901599
vn 0.709152348092447 -0.43824476825627 0.552308310901599
vn 0.709152348092447 -0.43824476825627 0.552308310901599
vn 0 0 -1
vn 0 0 -1
vn 0 0 -1
vn 0 0 -1
vn 0 0 -1
vn 0.514027151636814 -0.616413519245795 -0.596498500141583
vn 0.514027151636814 -0.616413519245795 -0.596498500141583
vn 0.514027151636814 -0.616413519245795 -0.596498500141583
vn -0.761056428627628 -0.648685680776569 0
vn -0.761056428627628 -0.648685680776569 0
vn -0.761056428627628 -0.648685680776569 0
vn -0.761056428627628 -0.648685680776569 0
vn -0.761056428627628 -0.648685680776569 0
vn -0.761056428627628 -0.648685680776569 0
vn -0.761056428627628 -0.648685680776569 0
vn -0.761056428627628 -0.648685680776569 0
vn 0 0 1
vn 0 0 1
vn 0 0 1
vn 0 0 1
vn 0 0 1
vn -0.647043828602617 -0.028646439770842 0.761914473780176
vn -0.647043828602617 -0.028646439770842 0.761914473780176
vn -0.647043828602617 -0.028646439770842 0.761914473780176
vn -0.756762015404042 0.65369048642428 0
vn -0.756762015404042 0.65369048642428 0
vn -0.756762015404042 0.65369048642428 0
vn -0.756762015404042 0.65369048642428 0
vn -0.756762015404042 0.65369048642428 0
vn 0.588171697675046 0.808736084303188 0
vn 0.588171697675046 0.808736084303188 0
vn 0.588171697675046 0.808736084303188 0
vn 0.588171697675046 0.808736084303188 0
vn 0.588171697675046 0.808736084303188 0
vn 0.588171697675046 0.808736084303188 0
vt -0.525504968645652 0.0270244881422709
vt -0.488650918603008 -0.0325662762005111
vt 0.231774972436364 0.215588222828717
vt -0.0193333197057796 0.967989987243171
vt -0.485017864119986 0.16033656435671
vt 0.410805107243339 0
vt 0.485017864119986 0
vt 0.485017864119986 0.228778539059159
vt -0.485017864119986 0.503529103593333
vt 0.491037655500103 -0.0391525105599561
vt 0.466408951335763 0.348136347465208
vt -0.486910715445124 0.247545508199553
vt -0.491089690111237 0.188626030519583
vt -0.464968300258444 -0.596486009933007
vt 0.591549831379422 -0.437127150094125
vt 0.782736084303188 -0.576171697675046
vt 0.732568877897366 -0.63085976478907
vt 0.0496973007899843 -1.20030628202919
vt -0.42333105448863 -0.237481668427831
vt 0.442384791259752 -0.0347034614178232
vt -0.467638781560054 -0.0426851156451913
vt -0.489451223310352 0.0225547293909639
vt -0.423114473453255 0
vt 0.370283032149614 0
vt 0.489451223310352 0.16033656435671
vt 0.489451223310352 0.503529103593333
vt 0.455708500199339 0.55201
vt 0.10661481949013 0.55201
vt -0.489451223310352 0.240701463557943
vt -0.159296689298406 -0.142314424540478
vt -0.121340493238174 -0.999639893759938
vt 0.105111578687477 -1.26531988365696
vt 0.609054186686461 -0.449857590317426
vt -0.026 0.012
vt -0.417249526052162 -0.49659960768823
vt -0.580171996366805 0.155829699522978
vt 0.160347262099265 -0.27785089818989
vt -0.368676009525979 0.214664385234494
vt 0.368676009525979 0.0225547293909639
vt 0.368676009525979 0.240701463557943
vt -0.164761936938591 0.55201
vt -0.368676009525979 0.55201
vt -0.263598710834705 0
vt 0.5 0.214664385234494
vt 0.5 0.55201
vt -0.285242799242261 0.55201
vt -0.5 0.228778539059159
vt -0.5 0

o Rock5\Solid
g Rock5\Solid
s off

usemtl c_0

# face 0
f 2/2/2 3/3/3 1/1/1
f 1/1/1 3/3/3 4/4/4

# face 1
f 9/9/9 5/5/5 8/8/8
f 8/8/8 5/5/5 6/6/6
f 8/8/8 6/6/6 7/7/7

# face 2
f 10/10/10 11/11/11 13/13/13
f 13/13/13 11/11/11 12/12/12

# face 3
f 14/14/14 15/15/15 18/18/18
f 18/18/18 15/15/15 17/17/17
f 15/15/15 16/16/16 17/17/17

# face 4
f 19/19/19 20/20/20 21/21/21

# face 5
f 22/22/22 23/23/23 29/29/29
f 29/29/29 23/23/23 28/28/28
f 23/23/23 24/24/24 28/28/28
f 28/28/28 24/24/24 25/25/25
f 28/28/28 25/25/25 26/26/26
f 26/26/26 27/27/27 28/28/28

# face 6
f 34/34/34 30/30/30 33/33/33
f 33/33/33 30/30/30 31/31/31
f 33/33/33 31/31/31 32/32/32

# face 7
f 35/35/35 36/36/36 37/37/37

# face 8
f 39/39/39 40/40/40 38/38/38
f 38/38/38 40/40/40 41/41/41
f 38/38/38 41/41/41 42/42/42

# face 9
f 44/44/44 46/46/46 43/43/43
f 43/43/43 46/46/46 47/47/47
f 43/43/43 47/47/47 48/48/48
f 44/44/44 45/45/45 46/46/46
