#
# Object file
# Created by SpaceClaim
#

mtllib rock2.mtl

# rock2\Solid
v 761.32577675603 -532.348669731911 -134.98982280158
v 761.32577675603 -532.348669731911 -289.249073180999
v 965.12 79.034 -408.274986473405
v 965.12 79.0339999999999 119.545314770401
v 887.113730115776 -154.984809652672 119.545314770401
v 249.458 227.102 -353.852445650806
v 98.2368929811088 103.375639711817 -501.303780022854
v -22.0000000000004 4.99999999999984 -394.011569576979
v -22.0000000000004 4.99999999999984 11.1683573456204
v 249.458 227.102 -4.28259147805815
v 37.7328293317762 -194.109431105922 93.1554243819477
v 215.049690662983 -154.984809652672 119.545314770401
v 705.859128222139 165.45429059262 119.545314770401
v 496.238 235.328 48.3621538870053
v 249.458 227.102 -4.28259147805815
v -22.0000000000004 4.99999999999984 11.1683573456204
v 249.458 227.102 -4.28259147805815
v 496.238 235.328 48.3621538870053
v 496.238 235.328 -344.049080598126
v 249.458 227.102 -353.852445650806
v 496.238 235.328 -344.049080598126
v 838.124102470678 121.365965843107 -479.863744223947
v 761.722784257596 99.0370035718657 -506.474365229599
v 109.151248541186 99.0370035718656 -506.474365229599
v 98.2368929811088 103.375639711817 -501.303780022854
v 249.458 227.102 -353.852445650806
v 385.646803228217 -391.289770539267 -506.474365229599
v 109.151248541186 99.0370035718656 -506.474365229599
v 761.722784257596 99.0370035718657 -506.474365229599
v 385.646803228217 -391.289770539267 -506.474365229599
v 385.646803228217 -473.030937069624 -478.328624450688
v 108.270398806158 -429.234662687194 -324.037980880127
v -22.0000000000004 4.99999999999984 -394.011569576979
v 98.2368929811088 103.375639711817 -501.303780022854
v 109.151248541186 99.0370035718656 -506.474365229599
v 37.7328293317762 -194.109431105922 93.1554243819477
v -22.0000000000004 4.99999999999984 11.1683573456204
v -22.0000000000004 4.99999999999984 -394.011569576979
v 108.270398806158 -429.234662687194 -324.037980880127
v 108.270398806158 -429.234662687194 -65.4385468441683
v 761.32577675603 -532.348669731911 -134.98982280158
v 887.113730115776 -154.984809652672 119.545314770401
v 215.049690662983 -154.984809652672 119.545314770401
v 37.7328293317762 -194.109431105922 93.1554243819477
v 108.270398806158 -429.234662687194 -65.4385468441683
v 215.049690662983 -154.984809652672 119.545314770401
v 887.113730115776 -154.984809652672 119.545314770401
v 965.12 79.0339999999999 119.545314770401
v 705.859128222139 165.45429059262 119.545314770401
v 965.12 79.034 -408.274986473405
v 838.124102470678 121.365965843107 -479.863744223947
v 496.238 235.328 -344.049080598126
v 496.238 235.328 48.3621538870053
v 705.859128222139 165.45429059262 119.545314770401
v 965.12 79.0339999999999 119.545314770401
v 761.32577675603 -532.348669731911 -289.249073180999
v 385.646803228217 -473.030937069624 -478.328624450688
v 385.646803228217 -391.289770539267 -506.474365229599
v 761.722784257596 99.0370035718657 -506.474365229599
v 838.124102470678 121.365965843107 -479.863744223947
v 965.12 79.034 -408.274986473405
v 761.32577675603 -532.348669731911 -289.249073180999
v 761.32577675603 -532.348669731911 -134.98982280158
v 108.270398806158 -429.234662687194 -65.4385468441683
v 108.270398806158 -429.234662687194 -324.037980880127
v 385.646803228217 -473.030937069624 -478.328624450688
vn 0.948683298050514 -0.316227766016838 0
vn 0.948683298050514 -0.316227766016838 0
vn 0.948683298050514 -0.316227766016838 0
vn 0.948683298050514 -0.316227766016838 0
vn 0.948683298050514 -0.316227766016838 0
vn -0.633237790257263 0.773957299203321 0
vn -0.633237790257263 0.773957299203321 0
vn -0.633237790257263 0.773957299203321 0
vn -0.633237790257263 0.773957299203321 0
vn -0.633237790257263 0.773957299203321 0
vn -0.20791169081776 0.318453709157601 0.924856726171717
vn -0.20791169081776 0.318453709157601 0.924856726171717
vn -0.20791169081776 0.318453709157601 0.924856726171717
vn -0.20791169081776 0.318453709157601 0.924856726171717
vn -0.20791169081776 0.318453709157601 0.924856726171717
vn -0.20791169081776 0.318453709157601 0.924856726171717
vn -0.0333148302326381 0.999444906979154 0
vn -0.0333148302326381 0.999444906979154 0
vn -0.0333148302326381 0.999444906979154 0
vn -0.0333148302326381 0.999444906979154 0
vn 0 0.766044443118978 -0.642787609686539
vn 0 0.766044443118978 -0.642787609686539
vn 0 0.766044443118978 -0.642787609686539
vn 0 0.766044443118978 -0.642787609686539
vn 0 0.766044443118978 -0.642787609686539
vn 0 0.766044443118978 -0.642787609686539
vn 0 0 -1
vn 0 0 -1
vn 0 0 -1
vn -0.5 -0.281950292423113 -0.818843106219086
vn -0.5 -0.281950292423113 -0.818843106219086
vn -0.5 -0.281950292423113 -0.818843106219086
vn -0.5 -0.281950292423113 -0.818843106219086
vn -0.5 -0.281950292423113 -0.818843106219086
vn -0.5 -0.281950292423113 -0.818843106219086
vn -0.957826285221151 -0.287347885566346 0
vn -0.957826285221151 -0.287347885566346 0
vn -0.957826285221151 -0.287347885566346 0
vn -0.957826285221151 -0.287347885566346 0
vn -0.957826285221151 -0.287347885566346 0
vn 0 -0.559192903470747 0.829037572555042
vn 0 -0.559192903470747 0.829037572555042
vn 0 -0.559192903470747 0.829037572555042
vn 0 -0.559192903470747 0.829037572555042
vn 0 -0.559192903470747 0.829037572555042
vn 0 0 1
vn 0 0 1
vn 0 0 1
vn 0 0 1
vn 0.316227766016838 0.948683298050514 0
vn 0.316227766016838 0.948683298050514 0
vn 0.316227766016838 0.948683298050514 0
vn 0.316227766016838 0.948683298050514 0
vn 0.316227766016838 0.948683298050514 0
vn 0.316227766016838 0.948683298050514 0
vn 0.390731128489274 -0.299687066307366 -0.870354437868609
vn 0.390731128489274 -0.299687066307366 -0.870354437868609
vn 0.390731128489274 -0.299687066307366 -0.870354437868609
vn 0.390731128489274 -0.299687066307366 -0.870354437868609
vn 0.390731128489274 -0.299687066307366 -0.870354437868609
vn 0.390731128489274 -0.299687066307366 -0.870354437868609
vn -0.155962573473011 -0.987762965329069 0
vn -0.155962573473011 -0.987762965329069 0
vn -0.155962573473011 -0.987762965329069 0
vn -0.155962573473011 -0.987762965329069 0
vn -0.155962573473011 -0.987762965329069 0
vt -0.566415231338139 0.12945454242802
vt -0.566415231338139 -0.0248047079513995
vt 0.0780386880976353 -0.143830621243806
vt 0.0780386880976353 0.38398968
vt -0.168638796510312 0.38398968
vt -0.175370140109427 -0.0894080804212062
vt 0.0200167464469134 -0.236859414793254
vt 0.175370140109427 -0.129567204347379
vt 0.175370140109427 0.27561272257522
vt -0.175370140109427 0.260161773751541
vt -0.740071150162538 -0.332561915513927
vt -0.558792924669592 -0.304160567076682
vt -0.0570185123099951 -0.00117944544642673
vt -0.271322701232895 0.0880624150615132
vt -0.523615913233687 0.0974240318490041
vt -0.801138446434558 -0.117607871721893
vt 0.123458530968905 0.260161773751541
vt -0.123458530968905 0.312806519116605
vt -0.123458530968905 -0.0796047153685264
vt 0.123458530968905 -0.0894080804212062
vt 0.0246779999999999 -0.0667943671243496
vt 0.366564102470678 -0.244087819019708
vt 0.290162784257596 -0.278825517654145
vt -0.362408751458814 -0.278825517654145
vt -0.373323107018891 -0.272075798035146
vt -0.222102 -0.0795917513241031
vt -0.135269196771783 -0.272899770539266
vt -0.411764751458814 0.217427003571866
vt 0.240806784257596 0.217427003571866
vt -0.0893533419433414 -0.402576485653033
vt -0.0893533419433414 -0.489027633879864
vt -0.409640025463194 -0.497849562986506
vt -0.560063325099545 -0.0644914511138821
vt -0.42122572004121 0.0634554705625988
vt -0.408622907799926 0.0610365873827322
vt 0.0790534069426159 0.357599789611547
vt -0.128822942013447 0.27561272257522
vt -0.128822942013447 -0.129567204347379
vt 0.324531355511322 -0.0595936156505273
vt 0.324531355511322 0.199005818385431
vt 0.28976577675603 -0.55030833422867
vt 0.415553730115776 -0.0951252730843763
vt -0.256510309337016 -0.0951252730843763
vt -0.433827170668223 -0.142318093709707
vt -0.363289601193842 -0.425930368189175
vt -0.305866309337016 -0.036594809652672
vt 0.366197730115776 -0.036594809652672
vt 0.444204 0.197424
vt 0.184943128222139 0.28384429059262
vt -0.247122512309178 -0.143830621243806
vt -0.113257082412509 -0.215419378994347
vt 0.247122512309179 -0.0796047153685264
vt 0.247122512309179 0.312806519116605
vt 0.0261624420171248 0.38398968
vt -0.247122512309178 0.38398968
vt 0.241254228903249 -0.60667193252695
vt -0.16686852256166 -0.489027633879864
vt -0.16686852256166 -0.402576485653034
vt 0.241685522122483 0.0610365873827323
vt 0.324684887010709 0.0734854652142783
vt 0.462648198179588 0.0101527854272604
vt 0.508584582257116 -0.0248047079513995
vt 0.508584582257116 0.12945454242802
vt -0.152561260290554 0.199005818385431
vt -0.152561260290554 -0.0595936156505273
vt 0.128251459114909 -0.213884259221089

o rock2\Solid
g rock2\Solid
s off

usemtl c_0

# face 0
f 1/1/1 2/2/2 5/5/5
f 5/5/5 2/2/2 3/3/3
f 5/5/5 3/3/3 4/4/4

# face 1
f 7/7/7 8/8/8 6/6/6
f 6/6/6 8/8/8 9/9/9
f 6/6/6 9/9/9 10/10/10

# face 2
f 11/11/11 12/12/12 16/16/16
f 16/16/16 12/12/12 15/15/15
f 13/13/13 14/14/14 12/12/12
f 12/12/12 14/14/14 15/15/15

# face 3
f 18/18/18 19/19/19 17/17/17
f 17/17/17 19/19/19 20/20/20

# face 4
f 22/22/22 23/23/23 21/21/21
f 21/21/21 23/23/23 24/24/24
f 21/21/21 24/24/24 26/26/26
f 26/26/26 24/24/24 25/25/25

# face 5
f 27/27/27 28/28/28 29/29/29

# face 6
f 31/31/31 32/32/32 30/30/30
f 30/30/30 32/32/32 33/33/33
f 30/30/30 33/33/33 35/35/35
f 35/35/35 33/33/33 34/34/34

# face 7
f 36/36/36 37/37/37 40/40/40
f 40/40/40 37/37/37 38/38/38
f 40/40/40 38/38/38 39/39/39

# face 8
f 42/42/42 43/43/43 41/41/41
f 41/41/41 43/43/43 45/45/45
f 43/43/43 44/44/44 45/45/45

# face 9
f 46/46/46 47/47/47 49/49/49
f 49/49/49 47/47/47 48/48/48

# face 10
f 55/55/55 50/50/50 54/54/54
f 54/54/54 50/50/50 51/51/51
f 54/54/54 51/51/51 52/52/52
f 52/52/52 53/53/53 54/54/54

# face 11
f 57/57/57 58/58/58 56/56/56
f 56/56/56 58/58/58 59/59/59
f 56/56/56 59/59/59 61/61/61
f 61/61/61 59/59/59 60/60/60

# face 12
f 62/62/62 63/63/63 66/66/66
f 66/66/66 63/63/63 64/64/64
f 66/66/66 64/64/64 65/65/65
