#
# Object file
# Created by SpaceClaim
#

mtllib rock4.mtl

# rock4\Solid
v 442.599999344349 -908.879142620233 95.058
v 175.305856427552 -932.905229416963 95.058
v -106.860089156309 -163.361741460977 95.058
v 407.031957021139 -158.960096525839 95.058
v 442.599999344349 -188.66132436186 95.058
v 757.8 -559.755231061352 185.440145779181
v 587.122471850087 -292.838972085476 136.499152129475
v 501 -158.155231061352 294.082413468904
v 501 -158.155231061352 475.29
v 757.8 -559.755231061352 475.29
v 15.4198988266729 -496.852617778201 475.29
v 175.305856427552 -932.905229416963 178.061343776033
v 502.396489965263 -903.50425614453 475.29
v 502.396489965263 -903.50425614453 475.29
v 733 -882.776155306758 475.29
v 757.8 -559.755231061352 475.29
v 501 -158.155231061352 475.29
v -106.860089156309 -163.361741460977 475.29
v 15.4198988266729 -496.852617778201 475.29
v 757.8 -559.755231061352 475.29
v 733 -882.776155306758 475.29
v 733 -882.776155306758 178.328860212363
v 757.8 -559.755231061352 185.440145779181
v 733 -882.776155306758 178.328860212363
v 442.599999344349 -908.879142620233 95.058
v 442.599999344349 -188.66132436186 95.058
v 587.122471850087 -292.838972085476 136.499152129475
v 757.8 -559.755231061352 185.440145779181
v 587.122471850087 -292.838972085476 136.499152129475
v 442.599999344349 -188.66132436186 95.058
v 407.031957021139 -158.960096525839 95.058
v 501 -158.155231061352 294.082413468904
v 501 -158.155231061352 294.082413468904
v 407.031957021139 -158.960096525839 95.058
v -106.860089156309 -163.361741460977 95.058
v -106.860089156309 -163.361741460977 475.29
v 501 -158.155231061352 475.29
v 175.305856427552 -932.905229416963 95.058
v 175.305856427552 -932.905229416963 178.061343776033
v 15.4198988266729 -496.852617778201 475.29
v -106.860089156309 -163.361741460977 475.29
v -106.860089156309 -163.361741460977 95.058
v 175.305856427552 -932.905229416963 95.058
v 442.599999344349 -908.879142620233 95.058
v 733 -882.776155306758 178.328860212363
v 733 -882.776155306758 475.29
v 502.396489965263 -903.50425614453 475.29
v 175.305856427552 -932.905229416963 178.061343776033
vn 0 0 -1
vn 0 0 -1
vn 0 0 -1
vn 0 0 -1
vn 0 0 -1
vn 0.842484688505047 0.538720288864781 0
vn 0.842484688505047 0.538720288864781 0
vn 0.842484688505047 0.538720288864781 0
vn 0.842484688505047 0.538720288864781 0
vn 0.842484688505047 0.538720288864781 0
vn -0.505086064468725 -0.604854540595777 0.615661475325658
vn -0.505086064468725 -0.604854540595777 0.615661475325658
vn -0.505086064468725 -0.604854540595777 0.615661475325658
vn 0 0 1
vn 0 0 1
vn 0 0 1
vn 0 0 1
vn 0 0 1
vn 0 0 1
vn 0.997065748854232 -0.0765499344333467 0
vn 0.997065748854232 -0.0765499344333467 0
vn 0.997065748854232 -0.0765499344333467 0
vn 0.997065748854232 -0.0765499344333467 0
vn 0.275637355816999 1.79653274424282E-17 -0.961261695938319
vn 0.275637355816999 1.79653274424282E-17 -0.961261695938319
vn 0.275637355816999 1.79653274424282E-17 -0.961261695938319
vn 0.275637355816999 1.79653274424282E-17 -0.961261695938319
vn 0.275637355816999 1.79653274424282E-17 -0.961261695938319
vn 0.61295636310968 0.734032208558232 -0.292371704722737
vn 0.61295636310968 0.734032208558232 -0.292371704722737
vn 0.61295636310968 0.734032208558232 -0.292371704722737
vn 0.61295636310968 0.734032208558232 -0.292371704722737
vn -0.00856499631474377 0.999963319746344 0
vn -0.00856499631474377 0.999963319746344 0
vn -0.00856499631474377 0.999963319746344 0
vn -0.00856499631474377 0.999963319746344 0
vn -0.00856499631474377 0.999963319746344 0
vn -0.938876315886609 -0.344254649158423 0
vn -0.938876315886609 -0.344254649158423 0
vn -0.938876315886609 -0.344254649158423 0
vn -0.938876315886609 -0.344254649158423 0
vn -0.938876315886609 -0.344254649158423 0
vn 0.0895253848950592 -0.995984540773295 0
vn 0.0895253848950592 -0.995984540773295 0
vn 0.0895253848950592 -0.995984540773295 0
vn 0.0895253848950592 -0.995984540773295 0
vn 0.0895253848950592 -0.995984540773295 0
vn 0.0895253848950592 -0.995984540773295 0
vt 0.295999999344349 -0.732323911558881
vt 0.0287058564275523 -0.756349998355612
vt -0.253460089156309 0.0131934896003743
vt 0.260431957021139 0.0175951345355129
vt 0.295999999344349 -0.0121060933005082
vt -0.238342610542051 0.0903821457791812
vt 0.0784776980258196 0.0414411521294747
vt 0.238342610542051 0.199024413468904
vt 0.238342610542051 0.380232
vt -0.238342610542051 0.380232
vt -0.209336133930955 0.0885599538000473
vt 0.192881530606795 -0.288628624989713
vt 0.425102007500487 0.0885599538000472
vt 0.355796489965263 -0.726949025083179
vt 0.5864 -0.706220924245406
vt 0.6112 -0.3832
vt 0.3544 0.0184
vt -0.253460089156309 0.0131934896003743
vt -0.131180101173327 -0.32029738671685
vt 0.161985769051139 0.380232
vt -0.16198576905114 0.380232
vt -0.16198576905114 0.0832708602123628
vt 0.161985769051139 0.0903821457791812
vt -0.450698496316983 -0.108113388085257
vt -0.221635021152966 -0.306802811139884
vt 0.201698390857566 0.275865643482787
vt 0.0188313137466309 0.279955697653502
vt -0.281703734950346 0.168380551293897
vt 0.098721144033297 0.114362448839783
vt -0.0789842377354427 0.071027777678661
vt -0.125322651278343 0.071027777678661
vt -0.0537113555206438 0.279145966182784
vt -0.186806852122721 0.199024413468904
vt -0.0928353622457746 0
vt 0.421075534313716 0
vt 0.421075534313716 0.380232
vt -0.186806852122721 0.380232
vt 0.340881833775537 0
vt 0.340881833775537 0.0830033437760328
vt -0.123559120011848 0.380232
vt -0.478761259712537 0.380232
vt -0.478761259712537 0
vt -0.394178812184173 0
vt -0.125807033331797 0
vt 0.165763757947936 0.0832708602123628
vt 0.165763757947936 0.380232
vt -0.0657694643003664 0.380232
vt -0.394178812184174 0.0830033437760328

o rock4\Solid
g rock4\Solid
s off

usemtl c_0

# face 0
f 1/1/1 2/2/2 5/5/5
f 5/5/5 2/2/2 3/3/3
f 5/5/5 3/3/3 4/4/4

# face 1
f 6/6/6 7/7/7 10/10/10
f 10/10/10 7/7/7 8/8/8
f 10/10/10 8/8/8 9/9/9

# face 2
f 11/11/11 12/12/12 13/13/13

# face 3
f 15/15/15 16/16/16 14/14/14
f 14/14/14 16/16/16 19/19/19
f 16/16/16 17/17/17 19/19/19
f 19/19/19 17/17/17 18/18/18

# face 4
f 20/20/20 21/21/21 23/23/23
f 23/23/23 21/21/21 22/22/22

# face 5
f 24/24/24 25/25/25 28/28/28
f 28/28/28 25/25/25 27/27/27
f 25/25/25 26/26/26 27/27/27

# face 6
f 29/29/29 30/30/30 32/32/32
f 32/32/32 30/30/30 31/31/31

# face 7
f 37/37/37 33/33/33 36/36/36
f 36/36/36 33/33/33 34/34/34
f 36/36/36 34/34/34 35/35/35

# face 8
f 39/39/39 40/40/40 38/38/38
f 38/38/38 40/40/40 42/42/42
f 40/40/40 41/41/41 42/42/42

# face 9
f 43/43/43 44/44/44 48/48/48
f 48/48/48 44/44/44 47/47/47
f 44/44/44 45/45/45 47/47/47
f 47/47/47 45/45/45 46/46/46
