ISO-10303-21;
HEADER;
FILE_DESCRIPTION(('FreeCAD Model'),'2;1');
FILE_NAME('Open CASCADE Shape Model','2026-01-12T12:45:27',('Author'),(
    ''),'Open CASCADE STEP processor 7.8','FreeCAD','Unknown');
FILE_SCHEMA(('AUTOMOTIVE_DESIGN { 1 0 10303 214 1 1 1 1 }'));
ENDSEC;
DATA;
#1 = APPLICATION_PROTOCOL_DEFINITION('international standard',
  'automotive_design',2000,#2);
#2 = APPLICATION_CONTEXT(
  'core data for automotive mechanical design processes');
#3 = SHAPE_DEFINITION_REPRESENTATION(#4,#10);
#4 = PRODUCT_DEFINITION_SHAPE('','',#5);
#5 = PRODUCT_DEFINITION('design','',#6,#9);
#6 = PRODUCT_DEFINITION_FORMATION('','',#7);
#7 = PRODUCT('convex_rock005 (Solid)','convex_rock005 (Solid)','',(#8));
#8 = PRODUCT_CONTEXT('',#2,'mechanical');
#9 = PRODUCT_DEFINITION_CONTEXT('part definition',#2,'design');
#10 = ADVANCED_BREP_SHAPE_REPRESENTATION('',(#11,#15),#567);
#11 = AXIS2_PLACEMENT_3D('',#12,#13,#14);
#12 = CARTESIAN_POINT('',(0.,0.,0.));
#13 = DIRECTION('',(0.,0.,1.));
#14 = DIRECTION('',(1.,0.,-0.));
#15 = MANIFOLD_SOLID_BREP('',#16);
#16 = CLOSED_SHELL('',(#17,#49,#72,#95,#118,#148,#171,#194,#217,#247,
    #263,#286,#309,#325,#348,#369,#380,#396,#412,#428,#444,#460,#481,
    #497,#508,#524,#540,#556));
#17 = ADVANCED_FACE('',(#18),#44,.T.);
#18 = FACE_BOUND('',#19,.T.);
#19 = EDGE_LOOP('',(#20,#30,#38));
#20 = ORIENTED_EDGE('',*,*,#21,.T.);
#21 = EDGE_CURVE('',#22,#24,#26,.T.);
#22 = VERTEX_POINT('',#23);
#23 = CARTESIAN_POINT('',(442.60000610351,-908.8791503906,
    95.057998657227));
#24 = VERTEX_POINT('',#25);
#25 = CARTESIAN_POINT('',(175.30586242675,-932.9052124023,
    95.057998657227));
#26 = LINE('',#27,#28);
#27 = CARTESIAN_POINT('',(442.60000610351,-908.8791503906,
    95.057998657227));
#28 = VECTOR('',#29,1.);
#29 = DIRECTION('',(-0.995984549031,-8.952529302948E-02,0.));
#30 = ORIENTED_EDGE('',*,*,#31,.T.);
#31 = EDGE_CURVE('',#24,#32,#34,.T.);
#32 = VERTEX_POINT('',#33);
#33 = CARTESIAN_POINT('',(442.60000610351,-188.6613311767,
    95.057998657227));
#34 = LINE('',#35,#36);
#35 = CARTESIAN_POINT('',(175.30586242675,-932.9052124023,
    95.057998657227));
#36 = VECTOR('',#37,1.);
#37 = DIRECTION('',(0.338010010991,0.941142514431,0.));
#38 = ORIENTED_EDGE('',*,*,#39,.T.);
#39 = EDGE_CURVE('',#32,#22,#40,.T.);
#40 = LINE('',#41,#42);
#41 = CARTESIAN_POINT('',(442.60000610351,-188.6613311767,
    95.057998657227));
#42 = VECTOR('',#43,1.);
#43 = DIRECTION('',(0.,-1.,0.));
#44 = PLANE('',#45);
#45 = AXIS2_PLACEMENT_3D('',#46,#47,#48);
#46 = CARTESIAN_POINT('',(363.04770398411,-610.2337573984,
    95.057998657227));
#47 = DIRECTION('',(-0.,-0.,-1.));
#48 = DIRECTION('',(-1.,0.,0.));
#49 = ADVANCED_FACE('',(#50),#67,.T.);
#50 = FACE_BOUND('',#51,.T.);
#51 = EDGE_LOOP('',(#52,#53,#61));
#52 = ORIENTED_EDGE('',*,*,#31,.F.);
#53 = ORIENTED_EDGE('',*,*,#54,.T.);
#54 = EDGE_CURVE('',#24,#55,#57,.T.);
#55 = VERTEX_POINT('',#56);
#56 = CARTESIAN_POINT('',(-106.860092163,-163.3617401123,95.057998657227
    ));
#57 = LINE('',#58,#59);
#58 = CARTESIAN_POINT('',(175.30586242675,-932.9052124023,
    95.057998657227));
#59 = VECTOR('',#60,1.);
#60 = DIRECTION('',(-0.344254665022,0.93887631007,0.));
#61 = ORIENTED_EDGE('',*,*,#62,.T.);
#62 = EDGE_CURVE('',#55,#32,#63,.T.);
#63 = LINE('',#64,#65);
#64 = CARTESIAN_POINT('',(-106.860092163,-163.3617401123,95.057998657227
    ));
#65 = VECTOR('',#66,1.);
#66 = DIRECTION('',(0.998941636631,-4.599572377274E-02,0.));
#67 = PLANE('',#68);
#68 = AXIS2_PLACEMENT_3D('',#69,#70,#71);
#69 = CARTESIAN_POINT('',(168.80668648829,-458.0238166647,
    95.057998657227));
#70 = DIRECTION('',(-0.,-0.,-1.));
#71 = DIRECTION('',(-1.,0.,0.));
#72 = ADVANCED_FACE('',(#73),#90,.T.);
#73 = FACE_BOUND('',#74,.T.);
#74 = EDGE_LOOP('',(#75,#76,#84));
#75 = ORIENTED_EDGE('',*,*,#62,.F.);
#76 = ORIENTED_EDGE('',*,*,#77,.T.);
#77 = EDGE_CURVE('',#55,#78,#80,.T.);
#78 = VERTEX_POINT('',#79);
#79 = CARTESIAN_POINT('',(407.03195190429,-158.9600982666,
    95.057998657227));
#80 = LINE('',#81,#82);
#81 = CARTESIAN_POINT('',(-106.860092163,-163.3617401123,95.057998657227
    ));
#82 = VECTOR('',#83,1.);
#83 = DIRECTION('',(0.999963319798,8.564990338733E-03,0.));
#84 = ORIENTED_EDGE('',*,*,#85,.T.);
#85 = EDGE_CURVE('',#78,#32,#86,.T.);
#86 = LINE('',#87,#88);
#87 = CARTESIAN_POINT('',(407.03195190429,-158.9600982666,
    95.057998657227));
#88 = VECTOR('',#89,1.);
#89 = DIRECTION('',(0.767571480904,-0.640963354415,0.));
#90 = PLANE('',#91);
#91 = AXIS2_PLACEMENT_3D('',#92,#93,#94);
#92 = CARTESIAN_POINT('',(170.36215723879,-169.0459093,95.057998657227)
  );
#93 = DIRECTION('',(-0.,-0.,-1.));
#94 = DIRECTION('',(-1.,0.,0.));
#95 = ADVANCED_FACE('',(#96),#113,.T.);
#96 = FACE_BOUND('',#97,.T.);
#97 = EDGE_LOOP('',(#98,#99,#107));
#98 = ORIENTED_EDGE('',*,*,#39,.F.);
#99 = ORIENTED_EDGE('',*,*,#100,.T.);
#100 = EDGE_CURVE('',#32,#101,#103,.T.);
#101 = VERTEX_POINT('',#102);
#102 = CARTESIAN_POINT('',(587.12249755859,-292.8389587402,
    136.49914550781));
#103 = LINE('',#104,#105);
#104 = CARTESIAN_POINT('',(442.60000610351,-188.6613311767,
    95.057998657227));
#105 = VECTOR('',#106,1.);
#106 = DIRECTION('',(0.790116825819,-0.569548003104,0.226562295448));
#107 = ORIENTED_EDGE('',*,*,#108,.F.);
#108 = EDGE_CURVE('',#22,#101,#109,.T.);
#109 = LINE('',#110,#111);
#110 = CARTESIAN_POINT('',(442.60000610351,-908.8791503906,
    95.057998657227));
#111 = VECTOR('',#112,1.);
#112 = DIRECTION('',(0.227909904486,0.97148658195,6.53520965866E-02));
#113 = PLANE('',#114);
#114 = AXIS2_PLACEMENT_3D('',#115,#116,#117);
#115 = CARTESIAN_POINT('',(481.00613629608,-533.6066847305,
    106.07077642799));
#116 = DIRECTION('',(0.275637289978,-0.,-0.961261714817));
#117 = DIRECTION('',(-0.961261714817,0.,-0.275637289978));
#118 = ADVANCED_FACE('',(#119),#143,.T.);
#119 = FACE_BOUND('',#120,.T.);
#120 = EDGE_LOOP('',(#121,#129,#137));
#121 = ORIENTED_EDGE('',*,*,#122,.T.);
#122 = EDGE_CURVE('',#123,#101,#125,.T.);
#123 = VERTEX_POINT('',#124);
#124 = CARTESIAN_POINT('',(757.79998779296,-559.7552490234,
    185.4401397705));
#125 = LINE('',#126,#127);
#126 = CARTESIAN_POINT('',(757.79998779296,-559.7552490234,
    185.4401397705));
#127 = VECTOR('',#128,1.);
#128 = DIRECTION('',(-0.532405296144,0.832609188116,-0.152664797849));
#129 = ORIENTED_EDGE('',*,*,#130,.T.);
#130 = EDGE_CURVE('',#101,#131,#133,.T.);
#131 = VERTEX_POINT('',#132);
#132 = CARTESIAN_POINT('',(757.79998779296,-559.7552490234,
    475.29000854492));
#133 = LINE('',#134,#135);
#134 = CARTESIAN_POINT('',(587.12249755859,-292.8389587402,
    136.49914550781));
#135 = VECTOR('',#136,1.);
#136 = DIRECTION('',(0.367960475867,-0.575439942634,0.730393017916));
#137 = ORIENTED_EDGE('',*,*,#138,.T.);
#138 = EDGE_CURVE('',#131,#123,#139,.T.);
#139 = LINE('',#140,#141);
#140 = CARTESIAN_POINT('',(757.79998779296,-559.7552490234,
    475.29000854492));
#141 = VECTOR('',#142,1.);
#142 = DIRECTION('',(0.,0.,-1.));
#143 = PLANE('',#144);
#144 = AXIS2_PLACEMENT_3D('',#145,#146,#147);
#145 = CARTESIAN_POINT('',(695.48646089635,-462.3054012967,
    269.24941576141));
#146 = DIRECTION('',(0.8424847715,0.538720159072,0.));
#147 = DIRECTION('',(-0.538720159072,0.8424847715,0.));
#148 = ADVANCED_FACE('',(#149),#166,.T.);
#149 = FACE_BOUND('',#150,.T.);
#150 = EDGE_LOOP('',(#151,#152,#160));
#151 = ORIENTED_EDGE('',*,*,#130,.F.);
#152 = ORIENTED_EDGE('',*,*,#153,.T.);
#153 = EDGE_CURVE('',#101,#154,#156,.T.);
#154 = VERTEX_POINT('',#155);
#155 = CARTESIAN_POINT('',(501.,-158.1552276611,294.08242797851));
#156 = LINE('',#157,#158);
#157 = CARTESIAN_POINT('',(587.12249755859,-292.8389587402,
    136.49914550781));
#158 = VECTOR('',#159,1.);
#159 = DIRECTION('',(-0.383660887331,0.599992815346,0.7020063711));
#160 = ORIENTED_EDGE('',*,*,#161,.T.);
#161 = EDGE_CURVE('',#154,#131,#162,.T.);
#162 = LINE('',#163,#164);
#163 = CARTESIAN_POINT('',(501.,-158.1552276611,294.08242797851));
#164 = VECTOR('',#165,1.);
#165 = DIRECTION('',(0.503563271417,-0.787504011571,0.355332891017));
#166 = PLANE('',#167);
#167 = AXIS2_PLACEMENT_3D('',#168,#169,#170);
#168 = CARTESIAN_POINT('',(630.0821185955,-360.021969679,322.45377267374
    ));
#169 = DIRECTION('',(0.842484680941,0.538720300694,1.57199096071E-07));
#170 = DIRECTION('',(-0.538720300694,0.842484680941,-1.323488980085E-23)
  );
#171 = ADVANCED_FACE('',(#172),#189,.T.);
#172 = FACE_BOUND('',#173,.T.);
#173 = EDGE_LOOP('',(#174,#175,#183));
#174 = ORIENTED_EDGE('',*,*,#161,.F.);
#175 = ORIENTED_EDGE('',*,*,#176,.T.);
#176 = EDGE_CURVE('',#154,#177,#179,.T.);
#177 = VERTEX_POINT('',#178);
#178 = CARTESIAN_POINT('',(501.,-158.1552276611,475.29000854492));
#179 = LINE('',#180,#181);
#180 = CARTESIAN_POINT('',(501.,-158.1552276611,294.08242797851));
#181 = VECTOR('',#182,1.);
#182 = DIRECTION('',(0.,0.,1.));
#183 = ORIENTED_EDGE('',*,*,#184,.T.);
#184 = EDGE_CURVE('',#177,#131,#185,.T.);
#185 = LINE('',#186,#187);
#186 = CARTESIAN_POINT('',(501.,-158.1552276611,475.29000854492));
#187 = VECTOR('',#188,1.);
#188 = DIRECTION('',(0.538720250349,-0.842484713134,0.));
#189 = PLANE('',#190);
#190 = AXIS2_PLACEMENT_3D('',#191,#192,#193);
#191 = CARTESIAN_POINT('',(609.47715880044,-327.7986519696,
    421.66800070471));
#192 = DIRECTION('',(0.842484713134,0.538720250349,0.));
#193 = DIRECTION('',(-0.538720250349,0.842484713134,0.));
#194 = ADVANCED_FACE('',(#195),#212,.T.);
#195 = FACE_BOUND('',#196,.T.);
#196 = EDGE_LOOP('',(#197,#198,#206));
#197 = ORIENTED_EDGE('',*,*,#184,.F.);
#198 = ORIENTED_EDGE('',*,*,#199,.T.);
#199 = EDGE_CURVE('',#177,#200,#202,.T.);
#200 = VERTEX_POINT('',#201);
#201 = CARTESIAN_POINT('',(15.419898986816,-496.8526306152,
    475.29000854492));
#202 = LINE('',#203,#204);
#203 = CARTESIAN_POINT('',(501.,-158.1552276611,475.29000854492));
#204 = VECTOR('',#205,1.);
#205 = DIRECTION('',(-0.820189893149,-0.5720913731,0.));
#206 = ORIENTED_EDGE('',*,*,#207,.F.);
#207 = EDGE_CURVE('',#131,#200,#208,.T.);
#208 = LINE('',#209,#210);
#209 = CARTESIAN_POINT('',(757.79998779296,-559.7552490234,
    475.29000854492));
#210 = VECTOR('',#211,1.);
#211 = DIRECTION('',(-0.996429541257,8.442848636359E-02,0.));
#212 = PLANE('',#213);
#213 = AXIS2_PLACEMENT_3D('',#214,#215,#216);
#214 = CARTESIAN_POINT('',(408.50772404266,-418.2527224132,
    475.29000854492));
#215 = DIRECTION('',(0.,0.,1.));
#216 = DIRECTION('',(1.,0.,-0.));
#217 = ADVANCED_FACE('',(#218),#242,.T.);
#218 = FACE_BOUND('',#219,.T.);
#219 = EDGE_LOOP('',(#220,#228,#236));
#220 = ORIENTED_EDGE('',*,*,#221,.T.);
#221 = EDGE_CURVE('',#222,#131,#224,.T.);
#222 = VERTEX_POINT('',#223);
#223 = CARTESIAN_POINT('',(733.,-882.776184082,475.29000854492));
#224 = LINE('',#225,#226);
#225 = CARTESIAN_POINT('',(733.,-882.776184082,475.29000854492));
#226 = VECTOR('',#227,1.);
#227 = DIRECTION('',(7.65498944273E-02,0.997065751926,0.));
#228 = ORIENTED_EDGE('',*,*,#229,.T.);
#229 = EDGE_CURVE('',#131,#230,#232,.T.);
#230 = VERTEX_POINT('',#231);
#231 = CARTESIAN_POINT('',(502.396484375,-903.5042724609,475.29000854492
    ));
#232 = LINE('',#233,#234);
#233 = CARTESIAN_POINT('',(757.79998779296,-559.7552490234,
    475.29000854492));
#234 = VECTOR('',#235,1.);
#235 = DIRECTION('',(-0.596394851139,-0.802691211821,0.));
#236 = ORIENTED_EDGE('',*,*,#237,.T.);
#237 = EDGE_CURVE('',#230,#222,#238,.T.);
#238 = LINE('',#239,#240);
#239 = CARTESIAN_POINT('',(502.396484375,-903.5042724609,475.29000854492
    ));
#240 = VECTOR('',#241,1.);
#241 = DIRECTION('',(0.995984545765,8.952532936319E-02,0.));
#242 = PLANE('',#243);
#243 = AXIS2_PLACEMENT_3D('',#244,#245,#246);
#244 = CARTESIAN_POINT('',(665.15131188149,-766.2293738578,
    475.29000854492));
#245 = DIRECTION('',(0.,0.,1.));
#246 = DIRECTION('',(1.,0.,-0.));
#247 = ADVANCED_FACE('',(#248),#258,.T.);
#248 = FACE_BOUND('',#249,.T.);
#249 = EDGE_LOOP('',(#250,#251,#252));
#250 = ORIENTED_EDGE('',*,*,#229,.F.);
#251 = ORIENTED_EDGE('',*,*,#207,.T.);
#252 = ORIENTED_EDGE('',*,*,#253,.F.);
#253 = EDGE_CURVE('',#230,#200,#254,.T.);
#254 = LINE('',#255,#256);
#255 = CARTESIAN_POINT('',(502.396484375,-903.5042724609,475.29000854492
    ));
#256 = VECTOR('',#257,1.);
#257 = DIRECTION('',(-0.767571423064,0.64096342368,0.));
#258 = PLANE('',#259);
#259 = AXIS2_PLACEMENT_3D('',#260,#261,#262);
#260 = CARTESIAN_POINT('',(399.47360030003,-636.7923720795,
    475.29000854492));
#261 = DIRECTION('',(0.,0.,1.));
#262 = DIRECTION('',(1.,0.,-0.));
#263 = ADVANCED_FACE('',(#264),#281,.T.);
#264 = FACE_BOUND('',#265,.T.);
#265 = EDGE_LOOP('',(#266,#274,#280));
#266 = ORIENTED_EDGE('',*,*,#267,.T.);
#267 = EDGE_CURVE('',#200,#268,#270,.T.);
#268 = VERTEX_POINT('',#269);
#269 = CARTESIAN_POINT('',(175.30586242675,-932.9052124023,
    178.06134033203));
#270 = LINE('',#271,#272);
#271 = CARTESIAN_POINT('',(15.419898986816,-496.8526306152,
    475.29000854492));
#272 = VECTOR('',#273,1.);
#273 = DIRECTION('',(0.289959706251,-0.79079911585,-0.539036294808));
#274 = ORIENTED_EDGE('',*,*,#275,.T.);
#275 = EDGE_CURVE('',#268,#230,#276,.T.);
#276 = LINE('',#277,#278);
#277 = CARTESIAN_POINT('',(175.30586242675,-932.9052124023,
    178.06134033203));
#278 = VECTOR('',#279,1.);
#279 = DIRECTION('',(0.738450313041,6.637650805801E-02,0.671033005408));
#280 = ORIENTED_EDGE('',*,*,#253,.T.);
#281 = PLANE('',#282);
#282 = AXIS2_PLACEMENT_3D('',#283,#284,#285);
#283 = CARTESIAN_POINT('',(225.28194466656,-764.4464625685,
    384.56327184739));
#284 = DIRECTION('',(-0.505086103549,-0.604854575078,0.615661409388));
#285 = DIRECTION('',(-2.775557561563E-17,0.713339766148,0.700818363081)
  );
#286 = ADVANCED_FACE('',(#287),#304,.T.);
#287 = FACE_BOUND('',#288,.T.);
#288 = EDGE_LOOP('',(#289,#290,#298));
#289 = ORIENTED_EDGE('',*,*,#199,.F.);
#290 = ORIENTED_EDGE('',*,*,#291,.T.);
#291 = EDGE_CURVE('',#177,#292,#294,.T.);
#292 = VERTEX_POINT('',#293);
#293 = CARTESIAN_POINT('',(-106.860092163,-163.3617401123,
    475.29000854492));
#294 = LINE('',#295,#296);
#295 = CARTESIAN_POINT('',(501.,-158.1552276611,475.29000854492));
#296 = VECTOR('',#297,1.);
#297 = DIRECTION('',(-0.999963319718,-8.564999647039E-03,0.));
#298 = ORIENTED_EDGE('',*,*,#299,.T.);
#299 = EDGE_CURVE('',#292,#200,#300,.T.);
#300 = LINE('',#301,#302);
#301 = CARTESIAN_POINT('',(-106.860092163,-163.3617401123,
    475.29000854492));
#302 = VECTOR('',#303,1.);
#303 = DIRECTION('',(0.344254644109,-0.938876317738,0.));
#304 = PLANE('',#305);
#305 = AXIS2_PLACEMENT_3D('',#306,#307,#308);
#306 = CARTESIAN_POINT('',(164.89066057299,-262.9191720414,
    475.29000854492));
#307 = DIRECTION('',(0.,0.,1.));
#308 = DIRECTION('',(1.,0.,-0.));
#309 = ADVANCED_FACE('',(#310),#320,.T.);
#310 = FACE_BOUND('',#311,.T.);
#311 = EDGE_LOOP('',(#312,#313,#319));
#312 = ORIENTED_EDGE('',*,*,#221,.F.);
#313 = ORIENTED_EDGE('',*,*,#314,.T.);
#314 = EDGE_CURVE('',#222,#123,#315,.T.);
#315 = LINE('',#316,#317);
#316 = CARTESIAN_POINT('',(733.,-882.776184082,475.29000854492));
#317 = VECTOR('',#318,1.);
#318 = DIRECTION('',(5.704984241368E-02,0.743076714201,-0.666770059536)
  );
#319 = ORIENTED_EDGE('',*,*,#138,.F.);
#320 = PLANE('',#321);
#321 = AXIS2_PLACEMENT_3D('',#322,#323,#324);
#322 = CARTESIAN_POINT('',(748.82778395702,-676.6185997966,
    375.14358216465));
#323 = DIRECTION('',(0.997065751926,-7.65498944273E-02,0.));
#324 = DIRECTION('',(7.65498944273E-02,0.997065751926,0.));
#325 = ADVANCED_FACE('',(#326),#343,.T.);
#326 = FACE_BOUND('',#327,.T.);
#327 = EDGE_LOOP('',(#328,#329,#337));
#328 = ORIENTED_EDGE('',*,*,#314,.F.);
#329 = ORIENTED_EDGE('',*,*,#330,.T.);
#330 = EDGE_CURVE('',#222,#331,#333,.T.);
#331 = VERTEX_POINT('',#332);
#332 = CARTESIAN_POINT('',(733.,-882.776184082,178.32885742187));
#333 = LINE('',#334,#335);
#334 = CARTESIAN_POINT('',(733.,-882.776184082,475.29000854492));
#335 = VECTOR('',#336,1.);
#336 = DIRECTION('',(0.,0.,-1.));
#337 = ORIENTED_EDGE('',*,*,#338,.T.);
#338 = EDGE_CURVE('',#331,#123,#339,.T.);
#339 = LINE('',#340,#341);
#340 = CARTESIAN_POINT('',(733.,-882.776184082,178.32885742187));
#341 = VECTOR('',#342,1.);
#342 = DIRECTION('',(7.653145956916E-02,0.996825637085,
    2.194504376747E-02));
#343 = PLANE('',#344);
#344 = AXIS2_PLACEMENT_3D('',#345,#346,#347);
#345 = CARTESIAN_POINT('',(741.91202074801,-766.6967206839,
    283.78923603916));
#346 = DIRECTION('',(0.997065751926,-7.65498944273E-02,0.));
#347 = DIRECTION('',(7.65498944273E-02,0.997065751926,0.));
#348 = ADVANCED_FACE('',(#349),#364,.T.);
#349 = FACE_BOUND('',#350,.T.);
#350 = EDGE_LOOP('',(#351,#357,#363));
#351 = ORIENTED_EDGE('',*,*,#352,.T.);
#352 = EDGE_CURVE('',#331,#22,#353,.T.);
#353 = LINE('',#354,#355);
#354 = CARTESIAN_POINT('',(733.,-882.776184082,178.32885742187));
#355 = VECTOR('',#356,1.);
#356 = DIRECTION('',(-0.957693423229,-8.608346999282E-02,-0.2746141717)
  );
#357 = ORIENTED_EDGE('',*,*,#358,.T.);
#358 = EDGE_CURVE('',#22,#123,#359,.T.);
#359 = LINE('',#360,#361);
#360 = CARTESIAN_POINT('',(442.60000610351,-908.8791503906,
    95.057998657227));
#361 = VECTOR('',#362,1.);
#362 = DIRECTION('',(0.658085644052,0.728913200609,0.188703023479));
#363 = ORIENTED_EDGE('',*,*,#338,.F.);
#364 = PLANE('',#365);
#365 = AXIS2_PLACEMENT_3D('',#366,#367,#368);
#366 = CARTESIAN_POINT('',(639.33422118505,-774.7651419228,
    151.47062747219));
#367 = DIRECTION('',(0.275637357257,7.19887588262E-10,-0.961261695525));
#368 = DIRECTION('',(-0.961261695525,0.,-0.275637357257));
#369 = ADVANCED_FACE('',(#370),#375,.T.);
#370 = FACE_BOUND('',#371,.T.);
#371 = EDGE_LOOP('',(#372,#373,#374));
#372 = ORIENTED_EDGE('',*,*,#358,.F.);
#373 = ORIENTED_EDGE('',*,*,#108,.T.);
#374 = ORIENTED_EDGE('',*,*,#122,.F.);
#375 = PLANE('',#376);
#376 = AXIS2_PLACEMENT_3D('',#377,#378,#379);
#377 = CARTESIAN_POINT('',(578.61214699167,-606.4119838695,
    134.05884911269));
#378 = DIRECTION('',(0.275637381873,-2.333093487493E-08,-0.961261688467)
  );
#379 = DIRECTION('',(-0.961261688467,-8.27180612553E-25,-0.275637381873)
  );
#380 = ADVANCED_FACE('',(#381),#391,.T.);
#381 = FACE_BOUND('',#382,.T.);
#382 = EDGE_LOOP('',(#383,#384,#390));
#383 = ORIENTED_EDGE('',*,*,#100,.F.);
#384 = ORIENTED_EDGE('',*,*,#385,.T.);
#385 = EDGE_CURVE('',#32,#154,#386,.T.);
#386 = LINE('',#387,#388);
#387 = CARTESIAN_POINT('',(442.60000610351,-188.6613311767,
    95.057998657227));
#388 = VECTOR('',#389,1.);
#389 = DIRECTION('',(0.278563332612,0.145511690898,0.949330720843));
#390 = ORIENTED_EDGE('',*,*,#153,.F.);
#391 = PLANE('',#392);
#392 = AXIS2_PLACEMENT_3D('',#393,#394,#395);
#393 = CARTESIAN_POINT('',(510.85341143845,-212.3207197354,
    178.75145015387));
#394 = DIRECTION('',(0.612956242361,0.734032319303,-0.292371679836));
#395 = DIRECTION('',(0.767571539183,-0.640963284624,-2.775557561563E-17)
  );
#396 = ADVANCED_FACE('',(#397),#407,.T.);
#397 = FACE_BOUND('',#398,.T.);
#398 = EDGE_LOOP('',(#399,#400,#401));
#399 = ORIENTED_EDGE('',*,*,#385,.F.);
#400 = ORIENTED_EDGE('',*,*,#85,.F.);
#401 = ORIENTED_EDGE('',*,*,#402,.T.);
#402 = EDGE_CURVE('',#78,#154,#403,.T.);
#403 = LINE('',#404,#405);
#404 = CARTESIAN_POINT('',(407.03195190429,-158.9600982666,
    95.057998657227));
#405 = VECTOR('',#406,1.);
#406 = DIRECTION('',(0.426945084739,3.656940373024E-03,0.904270159524));
#407 = PLANE('',#408);
#408 = AXIS2_PLACEMENT_3D('',#409,#410,#411);
#409 = CARTESIAN_POINT('',(459.00524282694,-166.58193394,184.88435361334
    ));
#410 = DIRECTION('',(0.612956307123,0.734032261201,-0.292371689934));
#411 = DIRECTION('',(0.767571480904,-0.640963354415,0.));
#412 = ADVANCED_FACE('',(#413),#423,.T.);
#413 = FACE_BOUND('',#414,.T.);
#414 = EDGE_LOOP('',(#415,#416,#422));
#415 = ORIENTED_EDGE('',*,*,#176,.F.);
#416 = ORIENTED_EDGE('',*,*,#417,.T.);
#417 = EDGE_CURVE('',#154,#292,#418,.T.);
#418 = LINE('',#419,#420);
#419 = CARTESIAN_POINT('',(501.,-158.1552276611,294.08242797851));
#420 = VECTOR('',#421,1.);
#421 = DIRECTION('',(-0.958291751916,-8.208069591232E-03,0.28567384515)
  );
#422 = ORIENTED_EDGE('',*,*,#291,.F.);
#423 = PLANE('',#424);
#424 = AXIS2_PLACEMENT_3D('',#425,#426,#427);
#425 = CARTESIAN_POINT('',(235.76194854833,-160.4270748101,
    423.37963217693));
#426 = DIRECTION('',(-8.564999647039E-03,0.999963319718,0.));
#427 = DIRECTION('',(0.999963319718,8.564999647039E-03,0.));
#428 = ADVANCED_FACE('',(#429),#439,.T.);
#429 = FACE_BOUND('',#430,.T.);
#430 = EDGE_LOOP('',(#431,#432,#433));
#431 = ORIENTED_EDGE('',*,*,#417,.F.);
#432 = ORIENTED_EDGE('',*,*,#402,.F.);
#433 = ORIENTED_EDGE('',*,*,#434,.T.);
#434 = EDGE_CURVE('',#78,#292,#435,.T.);
#435 = LINE('',#436,#437);
#436 = CARTESIAN_POINT('',(407.03195190429,-158.9600982666,
    95.057998657227));
#437 = VECTOR('',#438,1.);
#438 = DIRECTION('',(-0.803858822642,-6.885295603671E-03,0.594780283773)
  );
#439 = PLANE('',#440);
#440 = AXIS2_PLACEMENT_3D('',#441,#442,#443);
#441 = CARTESIAN_POINT('',(214.82211715417,-160.6064324137,
    314.08282684382));
#442 = DIRECTION('',(-8.565005927892E-03,0.999963319664,
    -2.107064139879E-08));
#443 = DIRECTION('',(0.999963319664,8.565005927892E-03,0.));
#444 = ADVANCED_FACE('',(#445),#455,.T.);
#445 = FACE_BOUND('',#446,.T.);
#446 = EDGE_LOOP('',(#447,#448,#449));
#447 = ORIENTED_EDGE('',*,*,#434,.F.);
#448 = ORIENTED_EDGE('',*,*,#77,.F.);
#449 = ORIENTED_EDGE('',*,*,#450,.T.);
#450 = EDGE_CURVE('',#55,#292,#451,.T.);
#451 = LINE('',#452,#453);
#452 = CARTESIAN_POINT('',(-106.860092163,-163.3617401123,
    95.057998657227));
#453 = VECTOR('',#454,1.);
#454 = DIRECTION('',(0.,0.,1.));
#455 = PLANE('',#456);
#456 = AXIS2_PLACEMENT_3D('',#457,#458,#459);
#457 = CARTESIAN_POINT('',(86.37290659897,-161.7066406353,
    221.45864323712));
#458 = DIRECTION('',(-8.564990338733E-03,0.999963319798,0.));
#459 = DIRECTION('',(0.999963319798,8.564990338733E-03,0.));
#460 = ADVANCED_FACE('',(#461),#476,.T.);
#461 = FACE_BOUND('',#462,.T.);
#462 = EDGE_LOOP('',(#463,#464,#470));
#463 = ORIENTED_EDGE('',*,*,#267,.F.);
#464 = ORIENTED_EDGE('',*,*,#465,.T.);
#465 = EDGE_CURVE('',#200,#24,#466,.T.);
#466 = LINE('',#467,#468);
#467 = CARTESIAN_POINT('',(15.419898986816,-496.8526306152,
    475.29000854492));
#468 = VECTOR('',#469,1.);
#469 = DIRECTION('',(0.266372386936,-0.726470069926,-0.633472169065));
#470 = ORIENTED_EDGE('',*,*,#471,.T.);
#471 = EDGE_CURVE('',#24,#268,#472,.T.);
#472 = LINE('',#473,#474);
#473 = CARTESIAN_POINT('',(175.30586242675,-932.9052124023,
    95.057998657227));
#474 = VECTOR('',#475,1.);
#475 = DIRECTION('',(0.,0.,1.));
#476 = PLANE('',#477);
#477 = AXIS2_PLACEMENT_3D('',#478,#479,#480);
#478 = CARTESIAN_POINT('',(100.73732543749,-729.5364965083,
    293.71803197123));
#479 = DIRECTION('',(-0.938876304206,-0.344254681015,-5.780939649285E-15
    ));
#480 = DIRECTION('',(0.344254681015,-0.938876304206,0.));
#481 = ADVANCED_FACE('',(#482),#492,.T.);
#482 = FACE_BOUND('',#483,.T.);
#483 = EDGE_LOOP('',(#484,#485,#491));
#484 = ORIENTED_EDGE('',*,*,#465,.F.);
#485 = ORIENTED_EDGE('',*,*,#486,.T.);
#486 = EDGE_CURVE('',#200,#55,#487,.T.);
#487 = LINE('',#488,#489);
#488 = CARTESIAN_POINT('',(15.419898986816,-496.8526306152,
    475.29000854492));
#489 = VECTOR('',#490,1.);
#490 = DIRECTION('',(-0.235003978603,0.640919952308,-0.730749440489));
#491 = ORIENTED_EDGE('',*,*,#54,.F.);
#492 = PLANE('',#493);
#493 = AXIS2_PLACEMENT_3D('',#494,#495,#496);
#494 = CARTESIAN_POINT('',(31.698153625905,-541.247851874,
    204.85933897711));
#495 = DIRECTION('',(-0.93887631007,-0.344254665022,-2.080728609221E-08)
  );
#496 = DIRECTION('',(0.344254665022,-0.93887631007,0.));
#497 = ADVANCED_FACE('',(#498),#503,.T.);
#498 = FACE_BOUND('',#499,.T.);
#499 = EDGE_LOOP('',(#500,#501,#502));
#500 = ORIENTED_EDGE('',*,*,#299,.F.);
#501 = ORIENTED_EDGE('',*,*,#450,.F.);
#502 = ORIENTED_EDGE('',*,*,#486,.F.);
#503 = PLANE('',#504);
#504 = AXIS2_PLACEMENT_3D('',#505,#506,#507);
#505 = CARTESIAN_POINT('',(-64.23261258892,-279.6185045215,
    338.94964996505));
#506 = DIRECTION('',(-0.938876317738,-0.344254644109,-0.));
#507 = DIRECTION('',(0.344254644109,-0.938876317738,0.));
#508 = ADVANCED_FACE('',(#509),#519,.T.);
#509 = FACE_BOUND('',#510,.T.);
#510 = EDGE_LOOP('',(#511,#512,#518));
#511 = ORIENTED_EDGE('',*,*,#21,.F.);
#512 = ORIENTED_EDGE('',*,*,#513,.T.);
#513 = EDGE_CURVE('',#22,#268,#514,.T.);
#514 = LINE('',#515,#516);
#515 = CARTESIAN_POINT('',(442.60000610351,-908.8791503906,
    95.057998657227));
#516 = VECTOR('',#517,1.);
#517 = DIRECTION('',(-0.951514172087,-8.552801864316E-02,0.295475444571)
  );
#518 = ORIENTED_EDGE('',*,*,#471,.F.);
#519 = PLANE('',#520);
#520 = AXIS2_PLACEMENT_3D('',#521,#522,#523);
#521 = CARTESIAN_POINT('',(291.40851641901,-922.4691829174,
    118.94451887488));
#522 = DIRECTION('',(8.952529302948E-02,-0.995984549031,-0.));
#523 = DIRECTION('',(-0.995984549031,-8.952529302948E-02,0.));
#524 = ADVANCED_FACE('',(#525),#535,.T.);
#525 = FACE_BOUND('',#526,.T.);
#526 = EDGE_LOOP('',(#527,#528,#534));
#527 = ORIENTED_EDGE('',*,*,#513,.F.);
#528 = ORIENTED_EDGE('',*,*,#529,.T.);
#529 = EDGE_CURVE('',#22,#230,#530,.T.);
#530 = LINE('',#531,#532);
#531 = CARTESIAN_POINT('',(442.60000610351,-908.8791503906,
    95.057998657227));
#532 = VECTOR('',#533,1.);
#533 = DIRECTION('',(0.155338643444,1.396279965656E-02,0.987762596011));
#534 = ORIENTED_EDGE('',*,*,#275,.F.);
#535 = PLANE('',#536);
#536 = AXIS2_PLACEMENT_3D('',#537,#538,#539);
#537 = CARTESIAN_POINT('',(377.67481022614,-914.7150319704,
    264.10157380916));
#538 = DIRECTION('',(8.952529158622E-02,-0.99598454916,
    -4.685273953617E-09));
#539 = DIRECTION('',(-0.99598454916,-8.952529158622E-02,
    5.169878828456E-26));
#540 = ADVANCED_FACE('',(#541),#551,.T.);
#541 = FACE_BOUND('',#542,.T.);
#542 = EDGE_LOOP('',(#543,#544,#550));
#543 = ORIENTED_EDGE('',*,*,#352,.F.);
#544 = ORIENTED_EDGE('',*,*,#545,.T.);
#545 = EDGE_CURVE('',#331,#230,#546,.T.);
#546 = LINE('',#547,#548);
#547 = CARTESIAN_POINT('',(733.,-882.776184082,178.32885742187));
#548 = VECTOR('',#549,1.);
#549 = DIRECTION('',(-0.61240350862,-5.504666316917E-02,0.788626532335)
  );
#550 = ORIENTED_EDGE('',*,*,#529,.F.);
#551 = PLANE('',#552);
#552 = AXIS2_PLACEMENT_3D('',#553,#554,#555);
#553 = CARTESIAN_POINT('',(556.68754776156,-898.6242503125,
    257.6124300116));
#554 = DIRECTION('',(8.952531802397E-02,-0.995984546784,
    -8.876550739876E-09));
#555 = DIRECTION('',(-0.995984546784,-8.952531802397E-02,
    1.033975765691E-25));
#556 = ADVANCED_FACE('',(#557),#562,.T.);
#557 = FACE_BOUND('',#558,.T.);
#558 = EDGE_LOOP('',(#559,#560,#561));
#559 = ORIENTED_EDGE('',*,*,#545,.F.);
#560 = ORIENTED_EDGE('',*,*,#330,.F.);
#561 = ORIENTED_EDGE('',*,*,#237,.F.);
#562 = PLANE('',#563);
#563 = AXIS2_PLACEMENT_3D('',#564,#565,#566);
#564 = CARTESIAN_POINT('',(655.53059584122,-889.7396193605,
    364.79431318519));
#565 = DIRECTION('',(8.952532936319E-02,-0.995984545765,-0.));
#566 = DIRECTION('',(-0.995984545765,-8.952532936319E-02,0.));
#567 = ( GEOMETRIC_REPRESENTATION_CONTEXT(3) 
GLOBAL_UNCERTAINTY_ASSIGNED_CONTEXT((#571)) GLOBAL_UNIT_ASSIGNED_CONTEXT
((#568,#569,#570)) REPRESENTATION_CONTEXT('Context #1',
  '3D Context with UNIT and UNCERTAINTY') );
#568 = ( LENGTH_UNIT() NAMED_UNIT(*) SI_UNIT(.MILLI.,.METRE.) );
#569 = ( NAMED_UNIT(*) PLANE_ANGLE_UNIT() SI_UNIT($,.RADIAN.) );
#570 = ( NAMED_UNIT(*) SI_UNIT($,.STERADIAN.) SOLID_ANGLE_UNIT() );
#571 = UNCERTAINTY_MEASURE_WITH_UNIT(LENGTH_MEASURE(1.E-07),#568,
  'distance_accuracy_value','confusion accuracy');
#572 = PRODUCT_RELATED_PRODUCT_CATEGORY('part',$,(#7));
#573 = MECHANICAL_DESIGN_GEOMETRIC_PRESENTATION_REPRESENTATION('',(#574)
  ,#567);
#574 = STYLED_ITEM('color',(#575),#15);
#575 = PRESENTATION_STYLE_ASSIGNMENT((#576,#582));
#576 = SURFACE_STYLE_USAGE(.BOTH.,#577);
#577 = SURFACE_SIDE_STYLE('',(#578));
#578 = SURFACE_STYLE_FILL_AREA(#579);
#579 = FILL_AREA_STYLE('',(#580));
#580 = FILL_AREA_STYLE_COLOUR('',#581);
#581 = COLOUR_RGB('',0.800000010877,0.800000010877,0.90196104065);
#582 = CURVE_STYLE('',#583,POSITIVE_LENGTH_MEASURE(0.1),#584);
#583 = DRAUGHTING_PRE_DEFINED_CURVE_FONT('continuous');
#584 = COLOUR_RGB('',9.803921802644E-02,9.803921802644E-02,
  9.803921802644E-02);
ENDSEC;
END-ISO-10303-21;
