ISO-10303-21;
HEADER;
FILE_DESCRIPTION(('FreeCAD Model'),'2;1');
FILE_NAME('Open CASCADE Shape Model','2026-01-12T12:41:44',('Author'),(
    ''),'Open CASCADE STEP processor 7.8','FreeCAD','Unknown');
FILE_SCHEMA(('AUTOMOTIVE_DESIGN { 1 0 10303 214 1 1 1 1 }'));
ENDSEC;
DATA;
#1 = APPLICATION_PROTOCOL_DEFINITION('international standard',
  'automotive_design',2000,#2);
#2 = APPLICATION_CONTEXT(
  'core data for automotive mechanical design processes');
#3 = SHAPE_DEFINITION_REPRESENTATION(#4,#10);
#4 = PRODUCT_DEFINITION_SHAPE('','',#5);
#5 = PRODUCT_DEFINITION('design','',#6,#9);
#6 = PRODUCT_DEFINITION_FORMATION('','',#7);
#7 = PRODUCT('convex_rock003 (Solid)','convex_rock003 (Solid)','',(#8));
#8 = PRODUCT_CONTEXT('',#2,'mechanical');
#9 = PRODUCT_DEFINITION_CONTEXT('part definition',#2,'design');
#10 = ADVANCED_BREP_SHAPE_REPRESENTATION('',(#11,#15),#801);
#11 = AXIS2_PLACEMENT_3D('',#12,#13,#14);
#12 = CARTESIAN_POINT('',(0.,0.,0.));
#13 = DIRECTION('',(0.,0.,1.));
#14 = DIRECTION('',(1.,0.,-0.));
#15 = MANIFOLD_SOLID_BREP('',#16);
#16 = CLOSED_SHELL('',(#17,#49,#72,#95,#127,#148,#171,#203,#226,#256,
    #272,#300,#321,#337,#358,#369,#385,#401,#412,#435,#451,#467,#483,
    #515,#538,#561,#582,#598,#614,#630,#646,#667,#683,#694,#715,#731,
    #747,#758,#774,#790));
#17 = ADVANCED_FACE('',(#18),#44,.T.);
#18 = FACE_BOUND('',#19,.T.);
#19 = EDGE_LOOP('',(#20,#30,#38));
#20 = ORIENTED_EDGE('',*,*,#21,.T.);
#21 = EDGE_CURVE('',#22,#24,#26,.T.);
#22 = VERTEX_POINT('',#23);
#23 = CARTESIAN_POINT('',(385.64678955078,-473.0309448242,
    -478.3286132812));
#24 = VERTEX_POINT('',#25);
#25 = CARTESIAN_POINT('',(108.27040100097,-429.2346496582,
    -324.0379943847));
#26 = LINE('',#27,#28);
#27 = CARTESIAN_POINT('',(385.64678955078,-473.0309448242,
    -478.3286132812));
#28 = VECTOR('',#29,1.);
#29 = DIRECTION('',(-0.865697091541,0.136689087142,0.481544015801));
#30 = ORIENTED_EDGE('',*,*,#31,.T.);
#31 = EDGE_CURVE('',#24,#32,#34,.T.);
#32 = VERTEX_POINT('',#33);
#33 = CARTESIAN_POINT('',(385.64678955078,-391.2897644042,
    -506.4743652343));
#34 = LINE('',#35,#36);
#35 = CARTESIAN_POINT('',(108.27040100097,-429.2346496582,
    -324.0379943847));
#36 = VECTOR('',#37,1.);
#37 = DIRECTION('',(0.830079514719,0.113554265027,-0.545961013386));
#38 = ORIENTED_EDGE('',*,*,#39,.T.);
#39 = EDGE_CURVE('',#32,#22,#40,.T.);
#40 = LINE('',#41,#42);
#41 = CARTESIAN_POINT('',(385.64678955078,-391.2897644042,
    -506.4743652343));
#42 = VECTOR('',#43,1.);
#43 = DIRECTION('',(0.,-0.94551855284,0.325568220554));
#44 = PLANE('',#45);
#45 = AXIS2_PLACEMENT_3D('',#46,#47,#48);
#46 = CARTESIAN_POINT('',(263.13875972257,-430.4890251082,
    -418.1714189174));
#47 = DIRECTION('',(-0.499999981229,-0.281950353193,-0.818843096756));
#48 = DIRECTION('',(-0.853469199059,-1.387778780781E-17,0.521143287645)
  );
#49 = ADVANCED_FACE('',(#50),#67,.T.);
#50 = FACE_BOUND('',#51,.T.);
#51 = EDGE_LOOP('',(#52,#53,#61));
#52 = ORIENTED_EDGE('',*,*,#31,.F.);
#53 = ORIENTED_EDGE('',*,*,#54,.T.);
#54 = EDGE_CURVE('',#24,#55,#57,.T.);
#55 = VERTEX_POINT('',#56);
#56 = CARTESIAN_POINT('',(-22.,5.,-394.0115661621));
#57 = LINE('',#58,#59);
#58 = CARTESIAN_POINT('',(108.27040100097,-429.2346496582,
    -324.0379943847));
#59 = VECTOR('',#60,1.);
#60 = DIRECTION('',(-0.283985148191,0.946617116286,-0.152540062808));
#61 = ORIENTED_EDGE('',*,*,#62,.T.);
#62 = EDGE_CURVE('',#55,#32,#63,.T.);
#63 = LINE('',#64,#65);
#64 = CARTESIAN_POINT('',(-22.,5.,-394.0115661621));
#65 = VECTOR('',#66,1.);
#66 = DIRECTION('',(0.703394277359,-0.683797737657,-0.194054488618));
#67 = PLANE('',#68);
#68 = AXIS2_PLACEMENT_3D('',#69,#70,#71);
#69 = CARTESIAN_POINT('',(151.32688452276,-252.3499013004,
    -411.2353389266));
#70 = DIRECTION('',(-0.500000002016,-0.281950272989,-0.81884311168));
#71 = DIRECTION('',(-0.853469193647,0.,0.521143296509));
#72 = ADVANCED_FACE('',(#73),#90,.T.);
#73 = FACE_BOUND('',#74,.T.);
#74 = EDGE_LOOP('',(#75,#76,#84));
#75 = ORIENTED_EDGE('',*,*,#62,.F.);
#76 = ORIENTED_EDGE('',*,*,#77,.T.);
#77 = EDGE_CURVE('',#55,#78,#80,.T.);
#78 = VERTEX_POINT('',#79);
#79 = CARTESIAN_POINT('',(109.15124511718,99.037002563477,
    -506.4743652343));
#80 = LINE('',#81,#82);
#81 = CARTESIAN_POINT('',(-22.,5.,-394.0115661621));
#82 = VECTOR('',#83,1.);
#83 = DIRECTION('',(0.666752574459,0.478069525742,-0.571743415362));
#84 = ORIENTED_EDGE('',*,*,#85,.F.);
#85 = EDGE_CURVE('',#32,#78,#86,.T.);
#86 = LINE('',#87,#88);
#87 = CARTESIAN_POINT('',(385.64678955078,-391.2897644042,
    -506.4743652343));
#88 = VECTOR('',#89,1.);
#89 = DIRECTION('',(-0.491187708028,0.871053750053,0.));
#90 = PLANE('',#91);
#91 = AXIS2_PLACEMENT_3D('',#92,#93,#94);
#92 = CARTESIAN_POINT('',(189.08152544235,-137.3699813313,
    -473.8797473678));
#93 = DIRECTION('',(-0.50000002053,-0.281950297652,-0.818843091883));
#94 = DIRECTION('',(-0.85346917946,-1.387778780781E-17,0.521143319742));
#95 = ADVANCED_FACE('',(#96),#122,.T.);
#96 = FACE_BOUND('',#97,.T.);
#97 = EDGE_LOOP('',(#98,#108,#116));
#98 = ORIENTED_EDGE('',*,*,#99,.T.);
#99 = EDGE_CURVE('',#100,#102,#104,.T.);
#100 = VERTEX_POINT('',#101);
#101 = CARTESIAN_POINT('',(838.12408447265,121.36596679687,
    -479.8637390136));
#102 = VERTEX_POINT('',#103);
#103 = CARTESIAN_POINT('',(761.72277832031,99.037002563477,
    -506.4743652343));
#104 = LINE('',#105,#106);
#105 = CARTESIAN_POINT('',(838.12408447265,121.36596679687,
    -479.8637390136));
#106 = VECTOR('',#107,1.);
#107 = DIRECTION('',(-0.910322316544,-0.266049829128,-0.317065873948));
#108 = ORIENTED_EDGE('',*,*,#109,.T.);
#109 = EDGE_CURVE('',#102,#110,#112,.T.);
#110 = VERTEX_POINT('',#111);
#111 = CARTESIAN_POINT('',(496.23800659179,235.32800292968,
    -344.0490722656));
#112 = LINE('',#113,#114);
#113 = CARTESIAN_POINT('',(761.72277832031,99.037002563477,
    -506.4743652343));
#114 = VECTOR('',#115,1.);
#115 = DIRECTION('',(-0.781380607335,0.401134663759,0.478053687374));
#116 = ORIENTED_EDGE('',*,*,#117,.T.);
#117 = EDGE_CURVE('',#110,#100,#118,.T.);
#118 = LINE('',#119,#120);
#119 = CARTESIAN_POINT('',(496.23800659179,235.32800292968,
    -344.0490722656));
#120 = VECTOR('',#121,1.);
#121 = DIRECTION('',(0.88773416516,-0.2959114148,-0.352653493671));
#122 = PLANE('',#123);
#123 = AXIS2_PLACEMENT_3D('',#124,#125,#126);
#124 = CARTESIAN_POINT('',(664.90805532624,166.58582683916,
    -425.9728087612));
#125 = DIRECTION('',(1.222150357435E-08,0.766044460056,-0.642787589501)
  );
#126 = DIRECTION('',(8.27180612553E-25,0.642787589501,0.766044460056));
#127 = ADVANCED_FACE('',(#128),#143,.T.);
#128 = FACE_BOUND('',#129,.T.);
#129 = EDGE_LOOP('',(#130,#131,#137));
#130 = ORIENTED_EDGE('',*,*,#109,.F.);
#131 = ORIENTED_EDGE('',*,*,#132,.T.);
#132 = EDGE_CURVE('',#102,#78,#133,.T.);
#133 = LINE('',#134,#135);
#134 = CARTESIAN_POINT('',(761.72277832031,99.037002563477,
    -506.4743652343));
#135 = VECTOR('',#136,1.);
#136 = DIRECTION('',(-1.,0.,0.));
#137 = ORIENTED_EDGE('',*,*,#138,.T.);
#138 = EDGE_CURVE('',#78,#110,#139,.T.);
#139 = LINE('',#140,#141);
#140 = CARTESIAN_POINT('',(109.15124511718,99.037002563477,
    -506.4743652343));
#141 = VECTOR('',#142,1.);
#142 = DIRECTION('',(0.877043691536,0.308801989582,0.368015888742));
#143 = PLANE('',#144);
#144 = AXIS2_PLACEMENT_3D('',#145,#146,#147);
#145 = CARTESIAN_POINT('',(440.43993019361,136.16475386521,
    -462.2272332428));
#146 = DIRECTION('',(0.,0.76604445022,-0.642787601224));
#147 = DIRECTION('',(0.,0.642787601224,0.76604445022));
#148 = ADVANCED_FACE('',(#149),#166,.T.);
#149 = FACE_BOUND('',#150,.T.);
#150 = EDGE_LOOP('',(#151,#152,#160));
#151 = ORIENTED_EDGE('',*,*,#138,.F.);
#152 = ORIENTED_EDGE('',*,*,#153,.T.);
#153 = EDGE_CURVE('',#78,#154,#156,.T.);
#154 = VERTEX_POINT('',#155);
#155 = CARTESIAN_POINT('',(249.45799255371,227.10200500488,
    -353.8524475097));
#156 = LINE('',#157,#158);
#157 = CARTESIAN_POINT('',(109.15124511718,99.037002563477,
    -506.4743652343));
#158 = VECTOR('',#159,1.);
#159 = DIRECTION('',(0.575782120973,0.525545207735,0.626320352371));
#160 = ORIENTED_EDGE('',*,*,#161,.F.);
#161 = EDGE_CURVE('',#110,#154,#162,.T.);
#162 = LINE('',#163,#164);
#163 = CARTESIAN_POINT('',(496.23800659179,235.32800292968,
    -344.0490722656));
#164 = VECTOR('',#165,1.);
#165 = DIRECTION('',(-0.998658106525,-3.328859325942E-02,
    -3.967185185977E-02));
#166 = PLANE('',#167);
#167 = AXIS2_PLACEMENT_3D('',#168,#169,#170);
#168 = CARTESIAN_POINT('',(289.03582218701,183.08228585287,
    -406.3130979626));
#169 = DIRECTION('',(3.580418265711E-08,0.766044408204,-0.642787651296)
  );
#170 = DIRECTION('',(0.,0.642787651296,0.766044408204));
#171 = ADVANCED_FACE('',(#172),#198,.T.);
#172 = FACE_BOUND('',#173,.T.);
#173 = EDGE_LOOP('',(#174,#184,#192));
#174 = ORIENTED_EDGE('',*,*,#175,.T.);
#175 = EDGE_CURVE('',#176,#178,#180,.T.);
#176 = VERTEX_POINT('',#177);
#177 = CARTESIAN_POINT('',(705.85913085937,165.45428466796,
    119.54531097412));
#178 = VERTEX_POINT('',#179);
#179 = CARTESIAN_POINT('',(496.23800659179,235.32800292968,
    48.362152099609));
#180 = LINE('',#181,#182);
#181 = CARTESIAN_POINT('',(705.85913085937,165.45428466796,
    119.54531097412));
#182 = VECTOR('',#183,1.);
#183 = DIRECTION('',(-0.902982565368,0.300994232276,-0.306634894914));
#184 = ORIENTED_EDGE('',*,*,#185,.T.);
#185 = EDGE_CURVE('',#178,#186,#188,.T.);
#186 = VERTEX_POINT('',#187);
#187 = CARTESIAN_POINT('',(215.04969787597,-154.984802246,
    119.54531097412));
#188 = LINE('',#189,#190);
#189 = CARTESIAN_POINT('',(496.23800659179,235.32800292968,
    48.362152099609));
#190 = VECTOR('',#191,1.);
#191 = DIRECTION('',(-0.578231696238,-0.802633781009,0.146380050037));
#192 = ORIENTED_EDGE('',*,*,#193,.T.);
#193 = EDGE_CURVE('',#186,#176,#194,.T.);
#194 = LINE('',#195,#196);
#195 = CARTESIAN_POINT('',(215.04969787597,-154.984802246,
    119.54531097412));
#196 = VECTOR('',#197,1.);
#197 = DIRECTION('',(0.837340418497,0.546681830274,0.));
#198 = PLANE('',#199);
#199 = AXIS2_PLACEMENT_3D('',#200,#201,#202);
#200 = CARTESIAN_POINT('',(446.40369049304,52.984490169352,
    99.94509275258));
#201 = DIRECTION('',(-0.207911677782,0.318453699471,0.924856732438));
#202 = DIRECTION('',(-1.387778780781E-17,0.945518579327,-0.325568143632)
  );
#203 = ADVANCED_FACE('',(#204),#221,.T.);
#204 = FACE_BOUND('',#205,.T.);
#205 = EDGE_LOOP('',(#206,#207,#215));
#206 = ORIENTED_EDGE('',*,*,#185,.F.);
#207 = ORIENTED_EDGE('',*,*,#208,.T.);
#208 = EDGE_CURVE('',#178,#209,#211,.T.);
#209 = VERTEX_POINT('',#210);
#210 = CARTESIAN_POINT('',(249.45799255371,227.10200500488,
    -4.282591342926));
#211 = LINE('',#212,#213);
#212 = CARTESIAN_POINT('',(496.23800659179,235.32800292968,
    48.362152099609));
#213 = VECTOR('',#214,1.);
#214 = DIRECTION('',(-0.977474912199,-3.258248700018E-02,-0.208521407922
    ));
#215 = ORIENTED_EDGE('',*,*,#216,.F.);
#216 = EDGE_CURVE('',#186,#209,#217,.T.);
#217 = LINE('',#218,#219);
#218 = CARTESIAN_POINT('',(215.04969787597,-154.984802246,
    119.54531097412));
#219 = VECTOR('',#220,1.);
#220 = DIRECTION('',(8.535447579346E-02,0.947818525909,-0.307172029008)
  );
#221 = PLANE('',#222);
#222 = AXIS2_PLACEMENT_3D('',#223,#224,#225);
#223 = CARTESIAN_POINT('',(315.88676648306,80.958826142554,
    60.972004679696));
#224 = DIRECTION('',(-0.207911670647,0.318453694909,0.924856735612));
#225 = DIRECTION('',(0.,0.945518581106,-0.325568138464));
#226 = ADVANCED_FACE('',(#227),#251,.T.);
#227 = FACE_BOUND('',#228,.T.);
#228 = EDGE_LOOP('',(#229,#237,#245));
#229 = ORIENTED_EDGE('',*,*,#230,.T.);
#230 = EDGE_CURVE('',#231,#186,#233,.T.);
#231 = VERTEX_POINT('',#232);
#232 = CARTESIAN_POINT('',(37.732830047607,-194.1094360351,
    93.155426025391));
#233 = LINE('',#234,#235);
#234 = CARTESIAN_POINT('',(37.732830047607,-194.1094360351,
    93.155426025391));
#235 = VECTOR('',#236,1.);
#236 = DIRECTION('',(0.966359207235,0.21322534373,0.14382223536));
#237 = ORIENTED_EDGE('',*,*,#238,.T.);
#238 = EDGE_CURVE('',#186,#239,#241,.T.);
#239 = VERTEX_POINT('',#240);
#240 = CARTESIAN_POINT('',(-22.,5.,11.168356895447));
#241 = LINE('',#242,#243);
#242 = CARTESIAN_POINT('',(215.04969787597,-154.984802246,
    119.54531097412));
#243 = VECTOR('',#244,1.);
#244 = DIRECTION('',(-0.775097559584,0.523113215931,-0.35436751607));
#245 = ORIENTED_EDGE('',*,*,#246,.T.);
#246 = EDGE_CURVE('',#239,#231,#247,.T.);
#247 = LINE('',#248,#249);
#248 = CARTESIAN_POINT('',(-22.,5.,11.168356895447));
#249 = VECTOR('',#250,1.);
#250 = DIRECTION('',(0.267308593779,-0.891028657309,0.36689787073));
#251 = PLANE('',#252);
#252 = AXIS2_PLACEMENT_3D('',#253,#254,#255);
#253 = CARTESIAN_POINT('',(76.41848172911,-106.7533866788,71.77302262523
    ));
#254 = DIRECTION('',(-0.207911678292,0.318453714422,0.924856727175));
#255 = DIRECTION('',(0.,0.945518574051,-0.325568158953));
#256 = ADVANCED_FACE('',(#257),#267,.T.);
#257 = FACE_BOUND('',#258,.T.);
#258 = EDGE_LOOP('',(#259,#260,#261));
#259 = ORIENTED_EDGE('',*,*,#238,.F.);
#260 = ORIENTED_EDGE('',*,*,#216,.T.);
#261 = ORIENTED_EDGE('',*,*,#262,.F.);
#262 = EDGE_CURVE('',#239,#209,#263,.T.);
#263 = LINE('',#264,#265);
#264 = CARTESIAN_POINT('',(-22.,5.,11.168356895447));
#265 = VECTOR('',#266,1.);
#266 = DIRECTION('',(0.773207399067,0.63262426721,-4.400970989334E-02));
#267 = PLANE('',#268);
#268 = AXIS2_PLACEMENT_3D('',#269,#270,#271);
#269 = CARTESIAN_POINT('',(153.83940661018,30.512376419624,
    41.913181686703));
#270 = DIRECTION('',(-0.207911692761,0.318453695252,0.924856730523));
#271 = DIRECTION('',(-1.387778780781E-17,0.945518580447,-0.325568140378)
  );
#272 = ADVANCED_FACE('',(#273),#295,.T.);
#273 = FACE_BOUND('',#274,.T.);
#274 = EDGE_LOOP('',(#275,#283,#289));
#275 = ORIENTED_EDGE('',*,*,#276,.T.);
#276 = EDGE_CURVE('',#277,#55,#279,.T.);
#277 = VERTEX_POINT('',#278);
#278 = CARTESIAN_POINT('',(98.236892700195,103.37564086914,
    -501.3037719726));
#279 = LINE('',#280,#281);
#280 = CARTESIAN_POINT('',(98.236892700195,103.37564086914,
    -501.3037719726));
#281 = VECTOR('',#282,1.);
#282 = DIRECTION('',(-0.636840315342,-0.521051174446,0.56827817692));
#283 = ORIENTED_EDGE('',*,*,#284,.T.);
#284 = EDGE_CURVE('',#55,#154,#285,.T.);
#285 = LINE('',#286,#287);
#286 = CARTESIAN_POINT('',(-22.,5.,-394.0115661621));
#287 = VECTOR('',#288,1.);
#288 = DIRECTION('',(0.768933402508,0.629127360759,0.113754940337));
#289 = ORIENTED_EDGE('',*,*,#290,.T.);
#290 = EDGE_CURVE('',#154,#277,#291,.T.);
#291 = LINE('',#292,#293);
#292 = CARTESIAN_POINT('',(249.45799255371,227.10200500488,
    -353.8524475097));
#293 = VECTOR('',#294,1.);
#294 = DIRECTION('',(-0.617780223607,-0.505456586256,-0.602379643357));
#295 = PLANE('',#296);
#296 = AXIS2_PLACEMENT_3D('',#297,#298,#299);
#297 = CARTESIAN_POINT('',(114.28890607786,116.50910957197,
    -408.3212845106));
#298 = DIRECTION('',(-0.633237807275,0.77395728528,-2.183124084538E-08)
  );
#299 = DIRECTION('',(0.77395728528,0.633237807275,0.));
#300 = ADVANCED_FACE('',(#301),#316,.T.);
#301 = FACE_BOUND('',#302,.T.);
#302 = EDGE_LOOP('',(#303,#304,#310));
#303 = ORIENTED_EDGE('',*,*,#284,.F.);
#304 = ORIENTED_EDGE('',*,*,#305,.T.);
#305 = EDGE_CURVE('',#55,#239,#306,.T.);
#306 = LINE('',#307,#308);
#307 = CARTESIAN_POINT('',(-22.,5.,-394.0115661621));
#308 = VECTOR('',#309,1.);
#309 = DIRECTION('',(0.,0.,1.));
#310 = ORIENTED_EDGE('',*,*,#311,.T.);
#311 = EDGE_CURVE('',#239,#154,#312,.T.);
#312 = LINE('',#313,#314);
#313 = CARTESIAN_POINT('',(-22.,5.,11.168356895447));
#314 = VECTOR('',#315,1.);
#315 = DIRECTION('',(0.53624484333,0.438745802828,-0.721071139696));
#316 = PLANE('',#317);
#317 = AXIS2_PLACEMENT_3D('',#318,#319,#320);
#318 = CARTESIAN_POINT('',(70.23542513891,80.465351611544,
    -234.3399324711));
#319 = DIRECTION('',(-0.63323780921,0.773957283697,0.));
#320 = DIRECTION('',(0.773957283697,0.63323780921,0.));
#321 = ADVANCED_FACE('',(#322),#332,.T.);
#322 = FACE_BOUND('',#323,.T.);
#323 = EDGE_LOOP('',(#324,#325,#326));
#324 = ORIENTED_EDGE('',*,*,#311,.F.);
#325 = ORIENTED_EDGE('',*,*,#262,.T.);
#326 = ORIENTED_EDGE('',*,*,#327,.T.);
#327 = EDGE_CURVE('',#209,#154,#328,.T.);
#328 = LINE('',#329,#330);
#329 = CARTESIAN_POINT('',(249.45799255371,227.10200500488,
    -4.282591342926));
#330 = VECTOR('',#331,1.);
#331 = DIRECTION('',(0.,0.,-1.));
#332 = PLANE('',#333);
#333 = AXIS2_PLACEMENT_3D('',#334,#335,#336);
#334 = CARTESIAN_POINT('',(153.04287825959,148.21690755003,-122.73453135
    ));
#335 = DIRECTION('',(-0.63323780921,0.773957283697,0.));
#336 = DIRECTION('',(0.773957283697,0.63323780921,0.));
#337 = ADVANCED_FACE('',(#338),#353,.T.);
#338 = FACE_BOUND('',#339,.T.);
#339 = EDGE_LOOP('',(#340,#346,#352));
#340 = ORIENTED_EDGE('',*,*,#341,.T.);
#341 = EDGE_CURVE('',#178,#110,#342,.T.);
#342 = LINE('',#343,#344);
#343 = CARTESIAN_POINT('',(496.23800659179,235.32800292968,
    48.362152099609));
#344 = VECTOR('',#345,1.);
#345 = DIRECTION('',(0.,0.,-1.));
#346 = ORIENTED_EDGE('',*,*,#347,.T.);
#347 = EDGE_CURVE('',#110,#209,#348,.T.);
#348 = LINE('',#349,#350);
#349 = CARTESIAN_POINT('',(496.23800659179,235.32800292968,
    -344.0490722656));
#350 = VECTOR('',#351,1.);
#351 = DIRECTION('',(-0.587555967361,-1.958519285712E-02,0.808946478723)
  );
#352 = ORIENTED_EDGE('',*,*,#208,.F.);
#353 = PLANE('',#354);
#354 = AXIS2_PLACEMENT_3D('',#355,#356,#357);
#355 = CARTESIAN_POINT('',(418.31716753347,232.73064243073,
    -117.9490816911));
#356 = DIRECTION('',(-3.331481994453E-02,0.999444907322,0.));
#357 = DIRECTION('',(0.999444907322,3.331481994453E-02,0.));
#358 = ADVANCED_FACE('',(#359),#364,.T.);
#359 = FACE_BOUND('',#360,.T.);
#360 = EDGE_LOOP('',(#361,#362,#363));
#361 = ORIENTED_EDGE('',*,*,#347,.F.);
#362 = ORIENTED_EDGE('',*,*,#161,.T.);
#363 = ORIENTED_EDGE('',*,*,#327,.F.);
#364 = PLANE('',#365);
#365 = AXIS2_PLACEMENT_3D('',#366,#367,#368);
#366 = CARTESIAN_POINT('',(330.42275776629,229.8008296776,
    -218.3334297302));
#367 = DIRECTION('',(-3.331481994453E-02,0.999444907322,0.));
#368 = DIRECTION('',(0.999444907322,3.331481994453E-02,0.));
#369 = ADVANCED_FACE('',(#370),#380,.T.);
#370 = FACE_BOUND('',#371,.T.);
#371 = EDGE_LOOP('',(#372,#373,#379));
#372 = ORIENTED_EDGE('',*,*,#153,.F.);
#373 = ORIENTED_EDGE('',*,*,#374,.T.);
#374 = EDGE_CURVE('',#78,#277,#375,.T.);
#375 = LINE('',#376,#377);
#376 = CARTESIAN_POINT('',(109.15124511718,99.037002563477,
    -506.4743652343));
#377 = VECTOR('',#378,1.);
#378 = DIRECTION('',(-0.850501395874,0.33808858228,0.402918709107));
#379 = ORIENTED_EDGE('',*,*,#290,.F.);
#380 = PLANE('',#381);
#381 = AXIS2_PLACEMENT_3D('',#382,#383,#384);
#382 = CARTESIAN_POINT('',(174.70430192058,162.54511810129,
    -430.7883433715));
#383 = DIRECTION('',(-2.371142505288E-07,0.766044531747,-0.642787504064)
  );
#384 = DIRECTION('',(-1.323488980085E-23,0.642787504064,0.766044531747)
  );
#385 = ADVANCED_FACE('',(#386),#396,.T.);
#386 = FACE_BOUND('',#387,.T.);
#387 = EDGE_LOOP('',(#388,#389,#390));
#388 = ORIENTED_EDGE('',*,*,#85,.T.);
#389 = ORIENTED_EDGE('',*,*,#132,.F.);
#390 = ORIENTED_EDGE('',*,*,#391,.T.);
#391 = EDGE_CURVE('',#102,#32,#392,.T.);
#392 = LINE('',#393,#394);
#393 = CARTESIAN_POINT('',(761.72277832031,99.037002563477,
    -506.4743652343));
#394 = VECTOR('',#395,1.);
#395 = DIRECTION('',(-0.608593381665,-0.793482259281,0.));
#396 = PLANE('',#397);
#397 = AXIS2_PLACEMENT_3D('',#398,#399,#400);
#398 = CARTESIAN_POINT('',(424.29959231941,-58.86538040445,
    -506.4743652343));
#399 = DIRECTION('',(-0.,-0.,-1.));
#400 = DIRECTION('',(-1.,0.,0.));
#401 = ADVANCED_FACE('',(#402),#407,.T.);
#402 = FACE_BOUND('',#403,.T.);
#403 = EDGE_LOOP('',(#404,#405,#406));
#404 = ORIENTED_EDGE('',*,*,#77,.F.);
#405 = ORIENTED_EDGE('',*,*,#276,.F.);
#406 = ORIENTED_EDGE('',*,*,#374,.F.);
#407 = PLANE('',#408);
#408 = AXIS2_PLACEMENT_3D('',#409,#410,#411);
#409 = CARTESIAN_POINT('',(42.925829123459,54.631346692768,
    -450.7458626056));
#410 = DIRECTION('',(-0.500000494938,-0.281949583603,-0.818843048067));
#411 = DIRECTION('',(-0.853468947127,0.,0.521143700231));
#412 = ADVANCED_FACE('',(#413),#430,.T.);
#413 = FACE_BOUND('',#414,.T.);
#414 = EDGE_LOOP('',(#415,#416,#424));
#415 = ORIENTED_EDGE('',*,*,#246,.F.);
#416 = ORIENTED_EDGE('',*,*,#417,.T.);
#417 = EDGE_CURVE('',#239,#418,#420,.T.);
#418 = VERTEX_POINT('',#419);
#419 = CARTESIAN_POINT('',(108.27040100097,-429.2346496582,
    -65.43854522705));
#420 = LINE('',#421,#422);
#421 = CARTESIAN_POINT('',(-22.,5.,11.168356895447));
#422 = VECTOR('',#423,1.);
#423 = DIRECTION('',(0.283331308537,-0.944437650873,-0.166616005282));
#424 = ORIENTED_EDGE('',*,*,#425,.T.);
#425 = EDGE_CURVE('',#418,#231,#426,.T.);
#426 = LINE('',#427,#428);
#427 = CARTESIAN_POINT('',(108.27040100097,-429.2346496582,
    -65.43854522705));
#428 = VECTOR('',#429,1.);
#429 = DIRECTION('',(-0.241358401242,0.804527925824,0.542660979543));
#430 = PLANE('',#431);
#431 = AXIS2_PLACEMENT_3D('',#432,#433,#434);
#432 = CARTESIAN_POINT('',(44.003849537976,-215.0128246232,3.31120864002
    ));
#433 = DIRECTION('',(-0.95782628293,-0.287347893203,-2.912878437811E-08)
  );
#434 = DIRECTION('',(0.287347893203,-0.95782628293,1.654361225106E-24));
#435 = ADVANCED_FACE('',(#436),#446,.T.);
#436 = FACE_BOUND('',#437,.T.);
#437 = EDGE_LOOP('',(#438,#439,#440));
#438 = ORIENTED_EDGE('',*,*,#417,.F.);
#439 = ORIENTED_EDGE('',*,*,#305,.F.);
#440 = ORIENTED_EDGE('',*,*,#441,.T.);
#441 = EDGE_CURVE('',#55,#418,#442,.T.);
#442 = LINE('',#443,#444);
#443 = CARTESIAN_POINT('',(-22.,5.,-394.0115661621));
#444 = VECTOR('',#445,1.);
#445 = DIRECTION('',(0.232666399737,-0.775554629455,0.586840151289));
#446 = PLANE('',#447);
#447 = AXIS2_PLACEMENT_3D('',#448,#449,#450);
#448 = CARTESIAN_POINT('',(24.613088336742,-150.3769538426,
    -153.4603018505));
#449 = DIRECTION('',(-0.957826281516,-0.287347897918,-0.));
#450 = DIRECTION('',(0.287347897918,-0.957826281516,0.));
#451 = ADVANCED_FACE('',(#452),#462,.T.);
#452 = FACE_BOUND('',#453,.T.);
#453 = EDGE_LOOP('',(#454,#455,#456));
#454 = ORIENTED_EDGE('',*,*,#441,.F.);
#455 = ORIENTED_EDGE('',*,*,#54,.F.);
#456 = ORIENTED_EDGE('',*,*,#457,.T.);
#457 = EDGE_CURVE('',#24,#418,#458,.T.);
#458 = LINE('',#459,#460);
#459 = CARTESIAN_POINT('',(108.27040100097,-429.2346496582,
    -324.0379943847));
#460 = VECTOR('',#461,1.);
#461 = DIRECTION('',(0.,0.,1.));
#462 = PLANE('',#463);
#463 = AXIS2_PLACEMENT_3D('',#464,#465,#466);
#464 = CARTESIAN_POINT('',(56.323118584253,-256.0770497153,
    -269.0800441584));
#465 = DIRECTION('',(-0.957826281516,-0.287347897918,-0.));
#466 = DIRECTION('',(0.287347897918,-0.957826281516,0.));
#467 = ADVANCED_FACE('',(#468),#478,.T.);
#468 = FACE_BOUND('',#469,.T.);
#469 = EDGE_LOOP('',(#470,#471,#472));
#470 = ORIENTED_EDGE('',*,*,#230,.F.);
#471 = ORIENTED_EDGE('',*,*,#425,.F.);
#472 = ORIENTED_EDGE('',*,*,#473,.F.);
#473 = EDGE_CURVE('',#186,#418,#474,.T.);
#474 = LINE('',#475,#476);
#475 = CARTESIAN_POINT('',(215.04969787597,-154.984802246,
    119.54531097412));
#476 = VECTOR('',#477,1.);
#477 = DIRECTION('',(-0.30717990145,-0.788954821452,-0.53215674181));
#478 = PLANE('',#479);
#479 = AXIS2_PLACEMENT_3D('',#480,#481,#482);
#480 = CARTESIAN_POINT('',(122.33053752751,-272.8538653252,
    40.041628660304));
#481 = DIRECTION('',(6.919951749475E-08,-0.559192918621,0.829037562336)
  );
#482 = DIRECTION('',(0.,0.829037562336,0.559192918621));
#483 = ADVANCED_FACE('',(#484),#510,.T.);
#484 = FACE_BOUND('',#485,.T.);
#485 = EDGE_LOOP('',(#486,#496,#504));
#486 = ORIENTED_EDGE('',*,*,#487,.T.);
#487 = EDGE_CURVE('',#488,#490,#492,.T.);
#488 = VERTEX_POINT('',#489);
#489 = CARTESIAN_POINT('',(761.32580566406,-532.3486938476,
    -134.9898223876));
#490 = VERTEX_POINT('',#491);
#491 = CARTESIAN_POINT('',(761.32580566406,-532.3486938476,
    -289.2490844726));
#492 = LINE('',#493,#494);
#493 = CARTESIAN_POINT('',(761.32580566406,-532.3486938476,
    -134.9898223876));
#494 = VECTOR('',#495,1.);
#495 = DIRECTION('',(0.,0.,-1.));
#496 = ORIENTED_EDGE('',*,*,#497,.T.);
#497 = EDGE_CURVE('',#490,#498,#500,.T.);
#498 = VERTEX_POINT('',#499);
#499 = CARTESIAN_POINT('',(887.11370849609,-154.984802246,
    119.54531097412));
#500 = LINE('',#501,#502);
#501 = CARTESIAN_POINT('',(761.32580566406,-532.3486938476,
    -289.2490844726));
#502 = VECTOR('',#503,1.);
#503 = DIRECTION('',(0.220531605332,0.661595137017,0.716699159847));
#504 = ORIENTED_EDGE('',*,*,#505,.T.);
#505 = EDGE_CURVE('',#498,#488,#506,.T.);
#506 = LINE('',#507,#508);
#507 = CARTESIAN_POINT('',(887.11370849609,-154.984802246,
    119.54531097412));
#508 = VECTOR('',#509,1.);
#509 = DIRECTION('',(-0.266362192971,-0.799086966649,-0.538990910764));
#510 = PLANE('',#511);
#511 = AXIS2_PLACEMENT_3D('',#512,#513,#514);
#512 = CARTESIAN_POINT('',(816.11375686208,-367.9847605005,
    -70.82234398212));
#513 = DIRECTION('',(0.948683344083,-0.31622762792,2.076205558031E-15));
#514 = DIRECTION('',(0.31622762792,0.948683344083,0.));
#515 = ADVANCED_FACE('',(#516),#533,.T.);
#516 = FACE_BOUND('',#517,.T.);
#517 = EDGE_LOOP('',(#518,#519,#527));
#518 = ORIENTED_EDGE('',*,*,#497,.F.);
#519 = ORIENTED_EDGE('',*,*,#520,.T.);
#520 = EDGE_CURVE('',#490,#521,#523,.T.);
#521 = VERTEX_POINT('',#522);
#522 = CARTESIAN_POINT('',(965.11999511718,79.033996582031,
    -408.2749938964));
#523 = LINE('',#524,#525);
#524 = CARTESIAN_POINT('',(761.32580566406,-532.3486938476,
    -289.2490844726));
#525 = VECTOR('',#526,1.);
#526 = DIRECTION('',(0.310968403244,0.932905395999,-0.181620963274));
#527 = ORIENTED_EDGE('',*,*,#528,.T.);
#528 = EDGE_CURVE('',#521,#498,#529,.T.);
#529 = LINE('',#530,#531);
#530 = CARTESIAN_POINT('',(965.11999511718,79.033996582031,
    -408.2749938964));
#531 = VECTOR('',#532,1.);
#532 = DIRECTION('',(-0.133889186287,-0.401667454102,0.905945330641));
#533 = PLANE('',#534);
#534 = AXIS2_PLACEMENT_3D('',#535,#536,#537);
#535 = CARTESIAN_POINT('',(871.18391914395,-202.7742532505,
    -199.6675960563));
#536 = DIRECTION('',(0.948683321119,-0.316227696811,7.066031320712E-08)
  );
#537 = DIRECTION('',(0.316227696811,0.948683321119,0.));
#538 = ADVANCED_FACE('',(#539),#556,.T.);
#539 = FACE_BOUND('',#540,.T.);
#540 = EDGE_LOOP('',(#541,#542,#550));
#541 = ORIENTED_EDGE('',*,*,#528,.F.);
#542 = ORIENTED_EDGE('',*,*,#543,.T.);
#543 = EDGE_CURVE('',#521,#544,#546,.T.);
#544 = VERTEX_POINT('',#545);
#545 = CARTESIAN_POINT('',(965.11999511718,79.033996582031,
    119.54531097412));
#546 = LINE('',#547,#548);
#547 = CARTESIAN_POINT('',(965.11999511718,79.033996582031,
    -408.2749938964));
#548 = VECTOR('',#549,1.);
#549 = DIRECTION('',(0.,0.,1.));
#550 = ORIENTED_EDGE('',*,*,#551,.T.);
#551 = EDGE_CURVE('',#544,#498,#552,.T.);
#552 = LINE('',#553,#554);
#553 = CARTESIAN_POINT('',(965.11999511718,79.033996582031,
    119.54531097412));
#554 = VECTOR('',#555,1.);
#555 = DIRECTION('',(-0.316227840246,-0.948683273308,0.));
#556 = PLANE('',#557);
#557 = AXIS2_PLACEMENT_3D('',#558,#559,#560);
#558 = CARTESIAN_POINT('',(941.28626260552,7.53281769549,-96.39496383399
    ));
#559 = DIRECTION('',(0.948683273308,-0.316227840246,0.));
#560 = DIRECTION('',(0.316227840246,0.948683273308,0.));
#561 = ADVANCED_FACE('',(#562),#577,.T.);
#562 = FACE_BOUND('',#563,.T.);
#563 = EDGE_LOOP('',(#564,#570,#576));
#564 = ORIENTED_EDGE('',*,*,#565,.T.);
#565 = EDGE_CURVE('',#498,#186,#566,.T.);
#566 = LINE('',#567,#568);
#567 = CARTESIAN_POINT('',(887.11370849609,-154.984802246,
    119.54531097412));
#568 = VECTOR('',#569,1.);
#569 = DIRECTION('',(-1.,0.,0.));
#570 = ORIENTED_EDGE('',*,*,#571,.T.);
#571 = EDGE_CURVE('',#186,#488,#572,.T.);
#572 = LINE('',#573,#574);
#573 = CARTESIAN_POINT('',(215.04969787597,-154.984802246,
    119.54531097412));
#574 = VECTOR('',#575,1.);
#575 = DIRECTION('',(0.768253789362,-0.530704593443,-0.357964732382));
#576 = ORIENTED_EDGE('',*,*,#505,.F.);
#577 = PLANE('',#578);
#578 = AXIS2_PLACEMENT_3D('',#579,#580,#581);
#579 = CARTESIAN_POINT('',(596.49920218714,-275.3211603093,
    38.377420697423));
#580 = DIRECTION('',(0.,-0.559192865009,0.829037598498));
#581 = DIRECTION('',(0.,0.829037598498,0.559192865009));
#582 = ADVANCED_FACE('',(#583),#593,.T.);
#583 = FACE_BOUND('',#584,.T.);
#584 = EDGE_LOOP('',(#585,#586,#587));
#585 = ORIENTED_EDGE('',*,*,#571,.F.);
#586 = ORIENTED_EDGE('',*,*,#473,.T.);
#587 = ORIENTED_EDGE('',*,*,#588,.T.);
#588 = EDGE_CURVE('',#418,#488,#589,.T.);
#589 = LINE('',#590,#591);
#590 = CARTESIAN_POINT('',(108.27040100097,-429.2346496582,
    -65.43854522705));
#591 = VECTOR('',#592,1.);
#592 = DIRECTION('',(0.982342301063,-0.155106728645,-0.104620773613));
#593 = PLANE('',#594);
#594 = AXIS2_PLACEMENT_3D('',#595,#596,#597);
#595 = CARTESIAN_POINT('',(401.73534228873,-386.1613206579,
    -36.3852089452));
#596 = DIRECTION('',(-2.779599118567E-08,-0.559192892665,0.829037579844)
  );
#597 = DIRECTION('',(0.,0.829037579844,0.559192892665));
#598 = ADVANCED_FACE('',(#599),#609,.T.);
#599 = FACE_BOUND('',#600,.T.);
#600 = EDGE_LOOP('',(#601,#602,#608));
#601 = ORIENTED_EDGE('',*,*,#565,.F.);
#602 = ORIENTED_EDGE('',*,*,#603,.T.);
#603 = EDGE_CURVE('',#498,#176,#604,.T.);
#604 = LINE('',#605,#606);
#605 = CARTESIAN_POINT('',(887.11370849609,-154.984802246,
    119.54531097412));
#606 = VECTOR('',#607,1.);
#607 = DIRECTION('',(-0.49233891728,0.870403579112,0.));
#608 = ORIENTED_EDGE('',*,*,#193,.F.);
#609 = PLANE('',#610);
#610 = AXIS2_PLACEMENT_3D('',#611,#612,#613);
#611 = CARTESIAN_POINT('',(573.96971904801,-60.97282486786,
    119.54531097412));
#612 = DIRECTION('',(0.,0.,1.));
#613 = DIRECTION('',(1.,0.,-0.));
#614 = ADVANCED_FACE('',(#615),#625,.T.);
#615 = FACE_BOUND('',#616,.T.);
#616 = EDGE_LOOP('',(#617,#618,#619));
#617 = ORIENTED_EDGE('',*,*,#603,.F.);
#618 = ORIENTED_EDGE('',*,*,#551,.F.);
#619 = ORIENTED_EDGE('',*,*,#620,.T.);
#620 = EDGE_CURVE('',#544,#176,#621,.T.);
#621 = LINE('',#622,#623);
#622 = CARTESIAN_POINT('',(965.11999511718,79.033996582031,
    119.54531097412));
#623 = VECTOR('',#624,1.);
#624 = DIRECTION('',(-0.948683298051,0.316227766017,0.));
#625 = PLANE('',#626);
#626 = AXIS2_PLACEMENT_3D('',#627,#628,#629);
#627 = CARTESIAN_POINT('',(844.49371971037,29.238388879585,
    119.54531097412));
#628 = DIRECTION('',(0.,0.,1.));
#629 = DIRECTION('',(1.,0.,-0.));
#630 = ADVANCED_FACE('',(#631),#641,.T.);
#631 = FACE_BOUND('',#632,.T.);
#632 = EDGE_LOOP('',(#633,#634,#640));
#633 = ORIENTED_EDGE('',*,*,#543,.F.);
#634 = ORIENTED_EDGE('',*,*,#635,.T.);
#635 = EDGE_CURVE('',#521,#176,#636,.T.);
#636 = LINE('',#637,#638);
#637 = CARTESIAN_POINT('',(965.11999511718,79.033996582031,
    -408.2749938964));
#638 = VECTOR('',#639,1.);
#639 = DIRECTION('',(-0.436192398096,0.145397466032,0.888029148573));
#640 = ORIENTED_EDGE('',*,*,#620,.F.);
#641 = PLANE('',#642);
#642 = AXIS2_PLACEMENT_3D('',#643,#644,#645);
#643 = CARTESIAN_POINT('',(884.52048670963,105.90049938454,
    -92.68170988069));
#644 = DIRECTION('',(0.316227766017,0.948683298051,0.));
#645 = DIRECTION('',(0.948683298051,-0.316227766017,0.));
#646 = ADVANCED_FACE('',(#647),#662,.T.);
#647 = FACE_BOUND('',#648,.T.);
#648 = EDGE_LOOP('',(#649,#650,#656));
#649 = ORIENTED_EDGE('',*,*,#635,.F.);
#650 = ORIENTED_EDGE('',*,*,#651,.T.);
#651 = EDGE_CURVE('',#521,#100,#652,.T.);
#652 = LINE('',#653,#654);
#653 = CARTESIAN_POINT('',(965.11999511718,79.033996582031,
    -408.2749938964));
#654 = VECTOR('',#655,1.);
#655 = DIRECTION('',(-0.836569970874,0.278856656958,-0.471582069955));
#656 = ORIENTED_EDGE('',*,*,#657,.T.);
#657 = EDGE_CURVE('',#100,#176,#658,.T.);
#658 = LINE('',#659,#660);
#659 = CARTESIAN_POINT('',(838.12408447265,121.36596679687,
    -479.8637390136));
#660 = VECTOR('',#661,1.);
#661 = DIRECTION('',(-0.214921814954,7.164060498452E-02,0.974000121753)
  );
#662 = PLANE('',#663);
#663 = AXIS2_PLACEMENT_3D('',#664,#665,#666);
#664 = CARTESIAN_POINT('',(814.16300632024,129.35299284768,
    -193.9576701958));
#665 = DIRECTION('',(0.316227766017,0.948683298051,-1.520549300822E-16)
  );
#666 = DIRECTION('',(0.948683298051,-0.316227766017,0.));
#667 = ADVANCED_FACE('',(#668),#678,.T.);
#668 = FACE_BOUND('',#669,.T.);
#669 = EDGE_LOOP('',(#670,#671,#672));
#670 = ORIENTED_EDGE('',*,*,#657,.F.);
#671 = ORIENTED_EDGE('',*,*,#117,.F.);
#672 = ORIENTED_EDGE('',*,*,#673,.T.);
#673 = EDGE_CURVE('',#110,#176,#674,.T.);
#674 = LINE('',#675,#676);
#675 = CARTESIAN_POINT('',(496.23800659179,235.32800292968,
    -344.0490722656));
#676 = VECTOR('',#677,1.);
#677 = DIRECTION('',(0.408173202623,-0.136057754015,0.902708659664));
#678 = PLANE('',#679);
#679 = AXIS2_PLACEMENT_3D('',#680,#681,#682);
#680 = CARTESIAN_POINT('',(687.35056193354,171.62381066217,
    -216.0855816118));
#681 = DIRECTION('',(0.316227793862,0.948683288769,6.827033011988E-09));
#682 = DIRECTION('',(0.948683288769,-0.316227793862,0.));
#683 = ADVANCED_FACE('',(#684),#689,.T.);
#684 = FACE_BOUND('',#685,.T.);
#685 = EDGE_LOOP('',(#686,#687,#688));
#686 = ORIENTED_EDGE('',*,*,#341,.F.);
#687 = ORIENTED_EDGE('',*,*,#175,.F.);
#688 = ORIENTED_EDGE('',*,*,#673,.F.);
#689 = PLANE('',#690);
#690 = AXIS2_PLACEMENT_3D('',#691,#692,#693);
#691 = CARTESIAN_POINT('',(564.91083712462,212.43705608617,
    -84.50312554229));
#692 = DIRECTION('',(0.316227807451,0.948683284239,0.));
#693 = DIRECTION('',(0.948683284239,-0.316227807451,0.));
#694 = ADVANCED_FACE('',(#695),#710,.T.);
#695 = FACE_BOUND('',#696,.T.);
#696 = EDGE_LOOP('',(#697,#698,#704));
#697 = ORIENTED_EDGE('',*,*,#39,.F.);
#698 = ORIENTED_EDGE('',*,*,#699,.T.);
#699 = EDGE_CURVE('',#32,#490,#700,.T.);
#700 = LINE('',#701,#702);
#701 = CARTESIAN_POINT('',(385.64678955078,-391.2897644042,
    -506.4743652343));
#702 = VECTOR('',#703,1.);
#703 = DIRECTION('',(0.823297099043,-0.309129342933,0.476047199389));
#704 = ORIENTED_EDGE('',*,*,#705,.T.);
#705 = EDGE_CURVE('',#490,#22,#706,.T.);
#706 = LINE('',#707,#708);
#707 = CARTESIAN_POINT('',(761.32580566406,-532.3486938476,
    -289.2490844726));
#708 = VECTOR('',#709,1.);
#709 = DIRECTION('',(-0.884490944695,0.139656487641,-0.445164951688));
#710 = PLANE('',#711);
#711 = AXIS2_PLACEMENT_3D('',#712,#713,#714);
#712 = CARTESIAN_POINT('',(556.70189245434,-477.1115455492,
    -400.1312336623));
#713 = DIRECTION('',(0.390731018734,-0.299687142318,-0.870354460969));
#714 = DIRECTION('',(-0.912285344902,1.387778780781E-17,-0.409555184899)
  );
#715 = ADVANCED_FACE('',(#716),#726,.T.);
#716 = FACE_BOUND('',#717,.T.);
#717 = EDGE_LOOP('',(#718,#719,#720));
#718 = ORIENTED_EDGE('',*,*,#699,.F.);
#719 = ORIENTED_EDGE('',*,*,#391,.F.);
#720 = ORIENTED_EDGE('',*,*,#721,.T.);
#721 = EDGE_CURVE('',#102,#490,#722,.T.);
#722 = LINE('',#723,#724);
#723 = CARTESIAN_POINT('',(761.72277832031,99.037002563477,
    -506.4743652343));
#724 = VECTOR('',#725,1.);
#725 = DIRECTION('',(-5.945297248787E-04,-0.945600555781,0.325329426031)
  );
#726 = PLANE('',#727);
#727 = AXIS2_PLACEMENT_3D('',#728,#729,#730);
#728 = CARTESIAN_POINT('',(645.63325200148,-255.8572817535,
    -436.3909320555));
#729 = DIRECTION('',(0.390731069308,-0.29968703145,-0.87035447644));
#730 = DIRECTION('',(-0.912285327815,0.,-0.409555222959));
#731 = ADVANCED_FACE('',(#732),#742,.T.);
#732 = FACE_BOUND('',#733,.T.);
#733 = EDGE_LOOP('',(#734,#735,#741));
#734 = ORIENTED_EDGE('',*,*,#721,.F.);
#735 = ORIENTED_EDGE('',*,*,#736,.T.);
#736 = EDGE_CURVE('',#102,#521,#737,.T.);
#737 = LINE('',#738,#739);
#738 = CARTESIAN_POINT('',(761.72277832031,99.037002563477,
    -506.4743652343));
#739 = VECTOR('',#740,1.);
#740 = DIRECTION('',(0.897027435217,-8.821775162288E-02,0.433081295793)
  );
#741 = ORIENTED_EDGE('',*,*,#520,.F.);
#742 = PLANE('',#743);
#743 = AXIS2_PLACEMENT_3D('',#744,#745,#746);
#744 = CARTESIAN_POINT('',(819.43680326673,-176.1606873221,
    -385.8064686361));
#745 = DIRECTION('',(0.39073110651,-0.299687026333,-0.8703544615));
#746 = DIRECTION('',(-0.912285310619,0.,-0.409555261263));
#747 = ADVANCED_FACE('',(#748),#753,.T.);
#748 = FACE_BOUND('',#749,.T.);
#749 = EDGE_LOOP('',(#750,#751,#752));
#750 = ORIENTED_EDGE('',*,*,#736,.F.);
#751 = ORIENTED_EDGE('',*,*,#99,.F.);
#752 = ORIENTED_EDGE('',*,*,#651,.F.);
#753 = PLANE('',#754);
#754 = AXIS2_PLACEMENT_3D('',#755,#756,#757);
#755 = CARTESIAN_POINT('',(864.43727706581,96.541230193676,
    -459.5030391526));
#756 = DIRECTION('',(0.3907311821,-0.299686678718,-0.870354547259));
#757 = DIRECTION('',(-0.912285296094,0.,-0.409555293619));
#758 = ADVANCED_FACE('',(#759),#769,.T.);
#759 = FACE_BOUND('',#760,.T.);
#760 = EDGE_LOOP('',(#761,#762,#768));
#761 = ORIENTED_EDGE('',*,*,#487,.F.);
#762 = ORIENTED_EDGE('',*,*,#763,.T.);
#763 = EDGE_CURVE('',#488,#22,#764,.T.);
#764 = LINE('',#765,#766);
#765 = CARTESIAN_POINT('',(761.32580566406,-532.3486938476,
    -134.9898223876));
#766 = VECTOR('',#767,1.);
#767 = DIRECTION('',(-0.733201698066,0.115768707977,-0.67008423068));
#768 = ORIENTED_EDGE('',*,*,#705,.F.);
#769 = PLANE('',#770);
#770 = AXIS2_PLACEMENT_3D('',#771,#772,#773);
#771 = CARTESIAN_POINT('',(600.03612681524,-506.8818983129,
    -323.3137419531));
#772 = DIRECTION('',(-0.155962598195,-0.987762961426,-0.));
#773 = DIRECTION('',(-0.987762961426,0.155962598195,0.));
#774 = ADVANCED_FACE('',(#775),#785,.T.);
#775 = FACE_BOUND('',#776,.T.);
#776 = EDGE_LOOP('',(#777,#778,#779));
#777 = ORIENTED_EDGE('',*,*,#763,.F.);
#778 = ORIENTED_EDGE('',*,*,#588,.F.);
#779 = ORIENTED_EDGE('',*,*,#780,.T.);
#780 = EDGE_CURVE('',#418,#22,#781,.T.);
#781 = LINE('',#782,#783);
#782 = CARTESIAN_POINT('',(108.27040100097,-429.2346496582,
    -65.43854522705));
#783 = VECTOR('',#784,1.);
#784 = DIRECTION('',(0.555493204519,-8.77094999867E-02,-0.8268823032));
#785 = PLANE('',#786);
#786 = AXIS2_PLACEMENT_3D('',#787,#788,#789);
#787 = CARTESIAN_POINT('',(421.23820423818,-478.6506371776,
    -214.4389726277));
#788 = DIRECTION('',(-0.155962619573,-0.98776295805,2.39745843999E-08));
#789 = DIRECTION('',(-0.98776295805,0.155962619573,-4.135903062765E-25)
  );
#790 = ADVANCED_FACE('',(#791),#796,.T.);
#791 = FACE_BOUND('',#792,.T.);
#792 = EDGE_LOOP('',(#793,#794,#795));
#793 = ORIENTED_EDGE('',*,*,#780,.F.);
#794 = ORIENTED_EDGE('',*,*,#457,.F.);
#795 = ORIENTED_EDGE('',*,*,#21,.F.);
#796 = PLANE('',#797);
#797 = AXIS2_PLACEMENT_3D('',#798,#799,#800);
#798 = CARTESIAN_POINT('',(213.69946242721,-445.8813524198,
    -291.8020895773));
#799 = DIRECTION('',(-0.155962654393,-0.987762952552,-0.));
#800 = DIRECTION('',(-0.987762952552,0.155962654393,0.));
#801 = ( GEOMETRIC_REPRESENTATION_CONTEXT(3) 
GLOBAL_UNCERTAINTY_ASSIGNED_CONTEXT((#805)) GLOBAL_UNIT_ASSIGNED_CONTEXT
((#802,#803,#804)) REPRESENTATION_CONTEXT('Context #1',
  '3D Context with UNIT and UNCERTAINTY') );
#802 = ( LENGTH_UNIT() NAMED_UNIT(*) SI_UNIT(.MILLI.,.METRE.) );
#803 = ( NAMED_UNIT(*) PLANE_ANGLE_UNIT() SI_UNIT($,.RADIAN.) );
#804 = ( NAMED_UNIT(*) SI_UNIT($,.STERADIAN.) SOLID_ANGLE_UNIT() );
#805 = UNCERTAINTY_MEASURE_WITH_UNIT(LENGTH_MEASURE(1.E-07),#802,
  'distance_accuracy_value','confusion accuracy');
#806 = PRODUCT_RELATED_PRODUCT_CATEGORY('part',$,(#7));
#807 = MECHANICAL_DESIGN_GEOMETRIC_PRESENTATION_REPRESENTATION('',(#808)
  ,#801);
#808 = STYLED_ITEM('color',(#809),#15);
#809 = PRESENTATION_STYLE_ASSIGNMENT((#810,#816));
#810 = SURFACE_STYLE_USAGE(.BOTH.,#811);
#811 = SURFACE_SIDE_STYLE('',(#812));
#812 = SURFACE_STYLE_FILL_AREA(#813);
#813 = FILL_AREA_STYLE('',(#814));
#814 = FILL_AREA_STYLE_COLOUR('',#815);
#815 = COLOUR_RGB('',0.800000010877,0.800000010877,0.90196104065);
#816 = CURVE_STYLE('',#817,POSITIVE_LENGTH_MEASURE(0.1),#818);
#817 = DRAUGHTING_PRE_DEFINED_CURVE_FONT('continuous');
#818 = COLOUR_RGB('',9.803921802644E-02,9.803921802644E-02,
  9.803921802644E-02);
ENDSEC;
END-ISO-10303-21;
