ISO-10303-21;
HEADER;
FILE_DESCRIPTION(('FreeCAD Model'),'2;1');
FILE_NAME('Open CASCADE Shape Model','2026-01-12T12:51:03',('Author'),(
    ''),'Open CASCADE STEP processor 7.8','FreeCAD','Unknown');
FILE_SCHEMA(('AUTOMOTIVE_DESIGN { 1 0 10303 214 1 1 1 1 }'));
ENDSEC;
DATA;
#1 = APPLICATION_PROTOCOL_DEFINITION('international standard',
  'automotive_design',2000,#2);
#2 = APPLICATION_CONTEXT(
  'core data for automotive mechanical design processes');
#3 = SHAPE_DEFINITION_REPRESENTATION(#4,#10);
#4 = PRODUCT_DEFINITION_SHAPE('','',#5);
#5 = PRODUCT_DEFINITION('design','',#6,#9);
#6 = PRODUCT_DEFINITION_FORMATION('','',#7);
#7 = PRODUCT('convex_rock007 (Solid)','convex_rock007 (Solid)','',(#8));
#8 = PRODUCT_CONTEXT('',#2,'mechanical');
#9 = PRODUCT_DEFINITION_CONTEXT('part definition',#2,'design');
#10 = ADVANCED_BREP_SHAPE_REPRESENTATION('',(#11,#15),#567);
#11 = AXIS2_PLACEMENT_3D('',#12,#13,#14);
#12 = CARTESIAN_POINT('',(0.,0.,0.));
#13 = DIRECTION('',(0.,0.,1.));
#14 = DIRECTION('',(1.,0.,-0.));
#15 = MANIFOLD_SOLID_BREP('',#16);
#16 = CLOSED_SHELL('',(#17,#49,#72,#95,#127,#150,#173,#194,#210,#233,
    #265,#286,#309,#325,#341,#364,#385,#401,#417,#433,#444,#460,#476,
    #492,#508,#529,#545,#556));
#17 = ADVANCED_FACE('',(#18),#44,.T.);
#18 = FACE_BOUND('',#19,.T.);
#19 = EDGE_LOOP('',(#20,#30,#38));
#20 = ORIENTED_EDGE('',*,*,#21,.T.);
#21 = EDGE_CURVE('',#22,#24,#26,.T.);
#22 = VERTEX_POINT('',#23);
#23 = CARTESIAN_POINT('',(-18.20000076293,8.39999961853,386.40701293945)
  );
#24 = VERTEX_POINT('',#25);
#25 = CARTESIAN_POINT('',(-111.5076828002,-99.62009429931,
    386.40701293945));
#26 = LINE('',#27,#28);
#27 = CARTESIAN_POINT('',(-18.20000076293,8.39999961853,386.40701293945)
  );
#28 = VECTOR('',#29,1.);
#29 = DIRECTION('',(-0.653690495832,-0.756762007277,0.));
#30 = ORIENTED_EDGE('',*,*,#31,.T.);
#31 = EDGE_CURVE('',#24,#32,#34,.T.);
#32 = VERTEX_POINT('',#33);
#33 = CARTESIAN_POINT('',(426.33795166015,-314.9003295898,
    386.40701293945));
#34 = LINE('',#35,#36);
#35 = CARTESIAN_POINT('',(-111.5076828002,-99.62009429931,
    386.40701293945));
#36 = VECTOR('',#37,1.);
#37 = DIRECTION('',(0.928392156946,-0.371601941493,0.));
#38 = ORIENTED_EDGE('',*,*,#39,.T.);
#39 = EDGE_CURVE('',#32,#22,#40,.T.);
#40 = LINE('',#41,#42);
#41 = CARTESIAN_POINT('',(426.33795166015,-314.9003295898,
    386.40701293945));
#42 = VECTOR('',#43,1.);
#43 = DIRECTION('',(-0.808736084153,0.588171697881,0.));
#44 = PLANE('',#45);
#45 = AXIS2_PLACEMENT_3D('',#46,#47,#48);
#46 = CARTESIAN_POINT('',(152.6323773758,-165.7724712397,386.40701293945
    ));
#47 = DIRECTION('',(0.,0.,1.));
#48 = DIRECTION('',(1.,0.,-0.));
#49 = ADVANCED_FACE('',(#50),#67,.T.);
#50 = FACE_BOUND('',#51,.T.);
#51 = EDGE_LOOP('',(#52,#53,#61));
#52 = ORIENTED_EDGE('',*,*,#31,.F.);
#53 = ORIENTED_EDGE('',*,*,#54,.T.);
#54 = EDGE_CURVE('',#24,#55,#57,.T.);
#55 = VERTEX_POINT('',#56);
#56 = CARTESIAN_POINT('',(-84.93834686279,-699.7479248046,
    386.40701293945));
#57 = LINE('',#58,#59);
#58 = CARTESIAN_POINT('',(-111.5076828002,-99.62009429931,
    386.40701293945));
#59 = VECTOR('',#60,1.);
#60 = DIRECTION('',(4.422946877098E-02,-0.999021398215,0.));
#61 = ORIENTED_EDGE('',*,*,#62,.T.);
#62 = EDGE_CURVE('',#55,#32,#63,.T.);
#63 = LINE('',#64,#65);
#64 = CARTESIAN_POINT('',(-84.93834686279,-699.7479248046,
    386.40701293945));
#65 = VECTOR('',#66,1.);
#66 = DIRECTION('',(0.798955899888,0.601389615835,0.));
#67 = PLANE('',#68);
#68 = AXIS2_PLACEMENT_3D('',#69,#70,#71);
#69 = CARTESIAN_POINT('',(77.708289568554,-376.2800145539,
    386.40701293945));
#70 = DIRECTION('',(0.,0.,1.));
#71 = DIRECTION('',(1.,0.,-0.));
#72 = ADVANCED_FACE('',(#73),#90,.T.);
#73 = FACE_BOUND('',#74,.T.);
#74 = EDGE_LOOP('',(#75,#76,#84));
#75 = ORIENTED_EDGE('',*,*,#62,.F.);
#76 = ORIENTED_EDGE('',*,*,#77,.F.);
#77 = EDGE_CURVE('',#78,#55,#80,.T.);
#78 = VERTEX_POINT('',#79);
#79 = CARTESIAN_POINT('',(73.578109741211,-885.7238769531,
    386.40701293945));
#80 = LINE('',#81,#82);
#81 = CARTESIAN_POINT('',(73.578109741211,-885.7238769531,
    386.40701293945));
#82 = VECTOR('',#83,1.);
#83 = DIRECTION('',(-0.648685777991,0.761056345767,0.));
#84 = ORIENTED_EDGE('',*,*,#85,.F.);
#85 = EDGE_CURVE('',#32,#78,#86,.T.);
#86 = LINE('',#87,#88);
#87 = CARTESIAN_POINT('',(426.33795166015,-314.9003295898,
    386.40701293945));
#88 = VECTOR('',#89,1.);
#89 = DIRECTION('',(-0.525700365792,-0.85066980986,0.));
#90 = PLANE('',#91);
#91 = AXIS2_PLACEMENT_3D('',#92,#93,#94);
#92 = CARTESIAN_POINT('',(177.18291322865,-592.2854173831,
    386.40701293945));
#93 = DIRECTION('',(0.,0.,1.));
#94 = DIRECTION('',(1.,0.,-0.));
#95 = ADVANCED_FACE('',(#96),#122,.T.);
#96 = FACE_BOUND('',#97,.T.);
#97 = EDGE_LOOP('',(#98,#108,#116));
#98 = ORIENTED_EDGE('',*,*,#99,.T.);
#99 = EDGE_CURVE('',#100,#102,#104,.T.);
#100 = VERTEX_POINT('',#101);
#101 = CARTESIAN_POINT('',(88.900001525879,-903.700012207,
    352.47036743164));
#102 = VERTEX_POINT('',#103);
#103 = CARTESIAN_POINT('',(88.900001525879,-903.700012207,
    112.23559570312));
#104 = LINE('',#105,#106);
#105 = CARTESIAN_POINT('',(88.900001525879,-903.700012207,
    352.47036743164));
#106 = VECTOR('',#107,1.);
#107 = DIRECTION('',(0.,0.,-1.));
#108 = ORIENTED_EDGE('',*,*,#109,.T.);
#109 = EDGE_CURVE('',#102,#110,#112,.T.);
#110 = VERTEX_POINT('',#111);
#111 = CARTESIAN_POINT('',(547.91528320312,-403.3201904296,
    160.14497375488));
#112 = LINE('',#113,#114);
#113 = CARTESIAN_POINT('',(88.900001525879,-903.700012207,
    112.23559570312));
#114 = VECTOR('',#115,1.);
#115 = DIRECTION('',(0.67431534982,0.735081832857,7.038116226234E-02));
#116 = ORIENTED_EDGE('',*,*,#117,.T.);
#117 = EDGE_CURVE('',#110,#100,#118,.T.);
#118 = LINE('',#119,#120);
#119 = CARTESIAN_POINT('',(547.91528320312,-403.3201904296,
    160.14497375488));
#120 = VECTOR('',#121,1.);
#121 = DIRECTION('',(-0.650406010151,-0.709017883355,0.272517271092));
#122 = PLANE('',#123);
#123 = AXIS2_PLACEMENT_3D('',#124,#125,#126);
#124 = CARTESIAN_POINT('',(284.51310441748,-690.459073464,
    202.50483942269));
#125 = DIRECTION('',(0.736909241599,-0.675991693474,-3.813322438664E-16)
  );
#126 = DIRECTION('',(0.675991693474,0.736909241599,0.));
#127 = ADVANCED_FACE('',(#128),#145,.T.);
#128 = FACE_BOUND('',#129,.T.);
#129 = EDGE_LOOP('',(#130,#131,#139));
#130 = ORIENTED_EDGE('',*,*,#109,.F.);
#131 = ORIENTED_EDGE('',*,*,#132,.T.);
#132 = EDGE_CURVE('',#102,#133,#135,.T.);
#133 = VERTEX_POINT('',#134);
#134 = CARTESIAN_POINT('',(512.79821777343,-441.6018066406,0.));
#135 = LINE('',#136,#137);
#136 = CARTESIAN_POINT('',(88.900001525879,-903.700012207,
    112.23559570312));
#137 = VECTOR('',#138,1.);
#138 = DIRECTION('',(0.665417444098,0.725382167427,-0.176182678688));
#139 = ORIENTED_EDGE('',*,*,#140,.T.);
#140 = EDGE_CURVE('',#133,#110,#141,.T.);
#141 = LINE('',#142,#143);
#142 = CARTESIAN_POINT('',(512.79821777343,-441.6018066406,0.));
#143 = VECTOR('',#144,1.);
#144 = DIRECTION('',(0.208583137932,0.22737946741,0.951205368136));
#145 = PLANE('',#146);
#146 = AXIS2_PLACEMENT_3D('',#147,#148,#149);
#147 = CARTESIAN_POINT('',(334.89241532125,-635.5397752486,
    95.508716520911));
#148 = DIRECTION('',(0.736909252414,-0.675991681684,-2.267492626255E-07)
  );
#149 = DIRECTION('',(0.675991681684,0.736909252414,0.));
#150 = ADVANCED_FACE('',(#151),#168,.T.);
#151 = FACE_BOUND('',#152,.T.);
#152 = EDGE_LOOP('',(#153,#154,#162));
#153 = ORIENTED_EDGE('',*,*,#140,.F.);
#154 = ORIENTED_EDGE('',*,*,#155,.T.);
#155 = EDGE_CURVE('',#133,#156,#158,.T.);
#156 = VERTEX_POINT('',#157);
#157 = CARTESIAN_POINT('',(547.91528320312,-403.3201904296,0.));
#158 = LINE('',#159,#160);
#159 = CARTESIAN_POINT('',(512.79821777343,-441.6018066406,0.));
#160 = VECTOR('',#161,1.);
#161 = DIRECTION('',(0.67599219679,0.73690877989,0.));
#162 = ORIENTED_EDGE('',*,*,#163,.T.);
#163 = EDGE_CURVE('',#156,#110,#164,.T.);
#164 = LINE('',#165,#166);
#165 = CARTESIAN_POINT('',(547.91528320312,-403.3201904296,0.));
#166 = VECTOR('',#167,1.);
#167 = DIRECTION('',(0.,0.,1.));
#168 = PLANE('',#169);
#169 = AXIS2_PLACEMENT_3D('',#170,#171,#172);
#170 = CARTESIAN_POINT('',(537.74768668916,-414.4040330791,69.1390230949
    ));
#171 = DIRECTION('',(0.73690877989,-0.67599219679,0.));
#172 = DIRECTION('',(0.67599219679,0.73690877989,0.));
#173 = ADVANCED_FACE('',(#174),#189,.T.);
#174 = FACE_BOUND('',#175,.T.);
#175 = EDGE_LOOP('',(#176,#182,#188));
#176 = ORIENTED_EDGE('',*,*,#177,.T.);
#177 = EDGE_CURVE('',#110,#32,#178,.T.);
#178 = LINE('',#179,#180);
#179 = CARTESIAN_POINT('',(547.91528320312,-403.3201904296,
    160.14497375488));
#180 = VECTOR('',#181,1.);
#181 = DIRECTION('',(-0.447551658305,0.325492053854,0.832918024794));
#182 = ORIENTED_EDGE('',*,*,#183,.T.);
#183 = EDGE_CURVE('',#32,#100,#184,.T.);
#184 = LINE('',#185,#186);
#185 = CARTESIAN_POINT('',(426.33795166015,-314.9003295898,
    386.40701293945));
#186 = VECTOR('',#187,1.);
#187 = DIRECTION('',(-0.496607705969,-0.866536972333,-4.994458882647E-02
    ));
#188 = ORIENTED_EDGE('',*,*,#117,.F.);
#189 = PLANE('',#190);
#190 = AXIS2_PLACEMENT_3D('',#191,#192,#193);
#191 = CARTESIAN_POINT('',(321.14016287252,-587.1116873542,
    305.48489363467));
#192 = DIRECTION('',(0.709152351783,-0.438244811551,0.55230827181));
#193 = DIRECTION('',(-0.614457137686,5.551115123126E-17,0.788950204985)
  );
#194 = ADVANCED_FACE('',(#195),#205,.T.);
#195 = FACE_BOUND('',#196,.T.);
#196 = EDGE_LOOP('',(#197,#198,#199));
#197 = ORIENTED_EDGE('',*,*,#183,.F.);
#198 = ORIENTED_EDGE('',*,*,#85,.T.);
#199 = ORIENTED_EDGE('',*,*,#200,.T.);
#200 = EDGE_CURVE('',#78,#100,#201,.T.);
#201 = LINE('',#202,#203);
#202 = CARTESIAN_POINT('',(73.578109741211,-885.7238769531,
    386.40701293945));
#203 = VECTOR('',#204,1.);
#204 = DIRECTION('',(0.370565877755,-0.434759782449,-0.820770894835));
#205 = PLANE('',#206);
#206 = AXIS2_PLACEMENT_3D('',#207,#208,#209);
#207 = CARTESIAN_POINT('',(248.68594580924,-613.4455206813,
    377.61926345021));
#208 = DIRECTION('',(0.709152182871,-0.438244730936,0.552308552656));
#209 = DIRECTION('',(-0.614457423266,0.,0.788949982568));
#210 = ADVANCED_FACE('',(#211),#228,.T.);
#211 = FACE_BOUND('',#212,.T.);
#212 = EDGE_LOOP('',(#213,#221,#222));
#213 = ORIENTED_EDGE('',*,*,#214,.T.);
#214 = EDGE_CURVE('',#215,#156,#217,.T.);
#215 = VERTEX_POINT('',#216);
#216 = CARTESIAN_POINT('',(414.08486938476,-305.9889831542,0.));
#217 = LINE('',#218,#219);
#218 = CARTESIAN_POINT('',(414.08486938476,-305.9889831542,0.));
#219 = VECTOR('',#220,1.);
#220 = DIRECTION('',(0.808736092278,-0.58817168671,0.));
#221 = ORIENTED_EDGE('',*,*,#155,.F.);
#222 = ORIENTED_EDGE('',*,*,#223,.F.);
#223 = EDGE_CURVE('',#215,#133,#224,.T.);
#224 = LINE('',#225,#226);
#225 = CARTESIAN_POINT('',(414.08486938476,-305.9889831542,0.));
#226 = VECTOR('',#227,1.);
#227 = DIRECTION('',(0.588506366518,-0.808492582877,0.));
#228 = PLANE('',#229);
#229 = AXIS2_PLACEMENT_3D('',#230,#231,#232);
#230 = CARTESIAN_POINT('',(480.01047133853,-372.1355530461,0.));
#231 = DIRECTION('',(-0.,-0.,-1.));
#232 = DIRECTION('',(-1.,0.,0.));
#233 = ADVANCED_FACE('',(#234),#260,.T.);
#234 = FACE_BOUND('',#235,.T.);
#235 = EDGE_LOOP('',(#236,#246,#254));
#236 = ORIENTED_EDGE('',*,*,#237,.T.);
#237 = EDGE_CURVE('',#238,#240,#242,.T.);
#238 = VERTEX_POINT('',#239);
#239 = CARTESIAN_POINT('',(-355.6000061035,-382.200012207,
    15.788311004639));
#240 = VERTEX_POINT('',#241);
#241 = CARTESIAN_POINT('',(-18.20000076293,8.39999961853,150.26507568359
    ));
#242 = LINE('',#243,#244);
#243 = CARTESIAN_POINT('',(-355.6000061035,-382.200012207,
    15.788311004639));
#244 = VECTOR('',#245,1.);
#245 = DIRECTION('',(0.632573096953,0.73231492365,0.252123242901));
#246 = ORIENTED_EDGE('',*,*,#247,.T.);
#247 = EDGE_CURVE('',#240,#248,#250,.T.);
#248 = VERTEX_POINT('',#249);
#249 = CARTESIAN_POINT('',(-325.4778137207,-417.5402221679,0.));
#250 = LINE('',#251,#252);
#251 = CARTESIAN_POINT('',(-18.20000076293,8.39999961853,150.26507568359
    ));
#252 = VECTOR('',#253,1.);
#253 = DIRECTION('',(-0.562489081469,-0.779707203092,-0.275068556316));
#254 = ORIENTED_EDGE('',*,*,#255,.T.);
#255 = EDGE_CURVE('',#248,#238,#256,.T.);
#256 = LINE('',#257,#258);
#257 = CARTESIAN_POINT('',(-325.4778137207,-417.5402221679,0.));
#258 = VECTOR('',#259,1.);
#259 = DIRECTION('',(-0.614157264695,0.720546712123,0.32190571581));
#260 = PLANE('',#261);
#261 = AXIS2_PLACEMENT_3D('',#262,#263,#264);
#262 = CARTESIAN_POINT('',(-186.2867548601,-204.7064882589,
    75.941218344046));
#263 = DIRECTION('',(-5.543197588046E-02,0.367503272255,-0.928368806527)
  );
#264 = DIRECTION('',(3.469446951954E-18,-0.929798403167,-0.368069191143)
  );
#265 = ADVANCED_FACE('',(#266),#281,.T.);
#266 = FACE_BOUND('',#267,.T.);
#267 = EDGE_LOOP('',(#268,#269,#275));
#268 = ORIENTED_EDGE('',*,*,#247,.F.);
#269 = ORIENTED_EDGE('',*,*,#270,.T.);
#270 = EDGE_CURVE('',#240,#215,#271,.T.);
#271 = LINE('',#272,#273);
#272 = CARTESIAN_POINT('',(-18.20000076293,8.39999961853,150.26507568359
    ));
#273 = VECTOR('',#274,1.);
#274 = DIRECTION('',(0.778556530006,-0.566222906243,-0.270631391437));
#275 = ORIENTED_EDGE('',*,*,#276,.T.);
#276 = EDGE_CURVE('',#215,#248,#277,.T.);
#277 = LINE('',#278,#279);
#278 = CARTESIAN_POINT('',(414.08486938476,-305.9889831542,0.));
#279 = VECTOR('',#280,1.);
#280 = DIRECTION('',(-0.98881503711,-0.149146982487,0.));
#281 = PLANE('',#282);
#282 = AXIS2_PLACEMENT_3D('',#283,#284,#285);
#283 = CARTESIAN_POINT('',(26.58556101743,-251.3956175433,
    44.748496964753));
#284 = DIRECTION('',(-5.543201246645E-02,0.367503294738,-0.928368795442)
  );
#285 = DIRECTION('',(3.469446951954E-18,-0.929798393956,-0.36806921441)
  );
#286 = ADVANCED_FACE('',(#287),#304,.T.);
#287 = FACE_BOUND('',#288,.T.);
#288 = EDGE_LOOP('',(#289,#290,#298));
#289 = ORIENTED_EDGE('',*,*,#276,.F.);
#290 = ORIENTED_EDGE('',*,*,#291,.T.);
#291 = EDGE_CURVE('',#215,#292,#294,.T.);
#292 = VERTEX_POINT('',#293);
#293 = CARTESIAN_POINT('',(34.788108825684,-840.2144165039,0.));
#294 = LINE('',#295,#296);
#295 = CARTESIAN_POINT('',(414.08486938476,-305.9889831542,0.));
#296 = VECTOR('',#297,1.);
#297 = DIRECTION('',(-0.578918573304,-0.815385360111,0.));
#298 = ORIENTED_EDGE('',*,*,#299,.T.);
#299 = EDGE_CURVE('',#292,#248,#300,.T.);
#300 = LINE('',#301,#302);
#301 = CARTESIAN_POINT('',(34.788108825684,-840.2144165039,0.));
#302 = VECTOR('',#303,1.);
#303 = DIRECTION('',(-0.648685679228,0.761056429948,0.));
#304 = PLANE('',#305);
#305 = AXIS2_PLACEMENT_3D('',#306,#307,#308);
#306 = CARTESIAN_POINT('',(50.784651608649,-508.2106137532,0.));
#307 = DIRECTION('',(-0.,-0.,-1.));
#308 = DIRECTION('',(-1.,0.,0.));
#309 = ADVANCED_FACE('',(#310),#320,.T.);
#310 = FACE_BOUND('',#311,.T.);
#311 = EDGE_LOOP('',(#312,#313,#314));
#312 = ORIENTED_EDGE('',*,*,#291,.F.);
#313 = ORIENTED_EDGE('',*,*,#223,.T.);
#314 = ORIENTED_EDGE('',*,*,#315,.T.);
#315 = EDGE_CURVE('',#133,#292,#316,.T.);
#316 = LINE('',#317,#318);
#317 = CARTESIAN_POINT('',(512.79821777343,-441.6018066406,0.));
#318 = VECTOR('',#319,1.);
#319 = DIRECTION('',(-0.768007217664,-0.640441186695,0.));
#320 = PLANE('',#321);
#321 = AXIS2_PLACEMENT_3D('',#322,#323,#324);
#322 = CARTESIAN_POINT('',(273.42865200022,-579.1710834847,0.));
#323 = DIRECTION('',(-0.,-0.,-1.));
#324 = DIRECTION('',(-1.,0.,0.));
#325 = ADVANCED_FACE('',(#326),#336,.T.);
#326 = FACE_BOUND('',#327,.T.);
#327 = EDGE_LOOP('',(#328,#329,#330));
#328 = ORIENTED_EDGE('',*,*,#315,.F.);
#329 = ORIENTED_EDGE('',*,*,#132,.F.);
#330 = ORIENTED_EDGE('',*,*,#331,.T.);
#331 = EDGE_CURVE('',#102,#292,#332,.T.);
#332 = LINE('',#333,#334);
#333 = CARTESIAN_POINT('',(88.900001525879,-903.700012207,
    112.23559570312));
#334 = VECTOR('',#335,1.);
#335 = DIRECTION('',(-0.386954555928,0.453985977339,-0.80259759782));
#336 = PLANE('',#337);
#337 = AXIS2_PLACEMENT_3D('',#338,#339,#340);
#338 = CARTESIAN_POINT('',(264.92912882098,-678.4497745452,
    31.156547197218));
#339 = DIRECTION('',(0.514027192807,-0.616413501118,-0.596498483397));
#340 = DIRECTION('',(-2.775557561563E-17,0.695402938796,-0.718620033616)
  );
#341 = ADVANCED_FACE('',(#342),#359,.T.);
#342 = FACE_BOUND('',#343,.T.);
#343 = EDGE_LOOP('',(#344,#345,#353));
#344 = ORIENTED_EDGE('',*,*,#255,.F.);
#345 = ORIENTED_EDGE('',*,*,#346,.T.);
#346 = EDGE_CURVE('',#248,#347,#349,.T.);
#347 = VERTEX_POINT('',#348);
#348 = CARTESIAN_POINT('',(-355.6000061035,-382.200012207,
    168.49102783203));
#349 = LINE('',#350,#351);
#350 = CARTESIAN_POINT('',(-325.4778137207,-417.5402221679,0.));
#351 = VECTOR('',#352,1.);
#352 = DIRECTION('',(-0.172350653592,0.202206672324,0.96405794114));
#353 = ORIENTED_EDGE('',*,*,#354,.T.);
#354 = EDGE_CURVE('',#347,#238,#355,.T.);
#355 = LINE('',#356,#357);
#356 = CARTESIAN_POINT('',(-355.6000061035,-382.200012207,
    168.49102783203));
#357 = VECTOR('',#358,1.);
#358 = DIRECTION('',(0.,0.,-1.));
#359 = PLANE('',#360);
#360 = AXIS2_PLACEMENT_3D('',#361,#362,#363);
#361 = CARTESIAN_POINT('',(-346.6471092011,-392.7038046357,
    77.501418775053));
#362 = DIRECTION('',(-0.761056428628,-0.648685680777,-0.));
#363 = DIRECTION('',(0.648685680777,-0.761056428628,0.));
#364 = ADVANCED_FACE('',(#365),#380,.T.);
#365 = FACE_BOUND('',#366,.T.);
#366 = EDGE_LOOP('',(#367,#368,#374));
#367 = ORIENTED_EDGE('',*,*,#346,.F.);
#368 = ORIENTED_EDGE('',*,*,#369,.T.);
#369 = EDGE_CURVE('',#248,#55,#370,.T.);
#370 = LINE('',#371,#372);
#371 = CARTESIAN_POINT('',(-325.4778137207,-417.5402221679,0.));
#372 = VECTOR('',#373,1.);
#373 = DIRECTION('',(0.449147091752,-0.526952065559,0.721518129068));
#374 = ORIENTED_EDGE('',*,*,#375,.T.);
#375 = EDGE_CURVE('',#55,#347,#376,.T.);
#376 = LINE('',#377,#378);
#377 = CARTESIAN_POINT('',(-84.93834686279,-699.7479248046,
    386.40701293945));
#378 = VECTOR('',#379,1.);
#379 = DIRECTION('',(-0.574989229153,0.674593623625,-0.462937176431));
#380 = PLANE('',#381);
#381 = AXIS2_PLACEMENT_3D('',#382,#383,#384);
#382 = CARTESIAN_POINT('',(-231.2373818846,-528.1057603747,
    210.65717623931));
#383 = DIRECTION('',(-0.761056412474,-0.648685699728,6.862802668331E-09)
  );
#384 = DIRECTION('',(0.648685699728,-0.761056412474,0.));
#385 = ADVANCED_FACE('',(#386),#396,.T.);
#386 = FACE_BOUND('',#387,.T.);
#387 = EDGE_LOOP('',(#388,#389,#395));
#388 = ORIENTED_EDGE('',*,*,#299,.F.);
#389 = ORIENTED_EDGE('',*,*,#390,.T.);
#390 = EDGE_CURVE('',#292,#55,#391,.T.);
#391 = LINE('',#392,#393);
#392 = CARTESIAN_POINT('',(34.788108825684,-840.2144165039,0.));
#393 = VECTOR('',#394,1.);
#394 = DIRECTION('',(-0.279588501119,0.328021201712,0.902348248333));
#395 = ORIENTED_EDGE('',*,*,#369,.F.);
#396 = PLANE('',#397);
#397 = AXIS2_PLACEMENT_3D('',#398,#399,#400);
#398 = CARTESIAN_POINT('',(-132.5463863071,-643.8928364838,
    122.57119365089));
#399 = DIRECTION('',(-0.761056429948,-0.648685679228,3.271193885327E-08)
  );
#400 = DIRECTION('',(0.648685679228,-0.761056429948,0.));
#401 = ADVANCED_FACE('',(#402),#412,.T.);
#402 = FACE_BOUND('',#403,.T.);
#403 = EDGE_LOOP('',(#404,#405,#406));
#404 = ORIENTED_EDGE('',*,*,#390,.F.);
#405 = ORIENTED_EDGE('',*,*,#331,.F.);
#406 = ORIENTED_EDGE('',*,*,#407,.T.);
#407 = EDGE_CURVE('',#102,#55,#408,.T.);
#408 = LINE('',#409,#410);
#409 = CARTESIAN_POINT('',(88.900001525879,-903.700012207,
    112.23559570312));
#410 = VECTOR('',#411,1.);
#411 = DIRECTION('',(-0.453426938908,0.531973362218,0.71512820736));
#412 = PLANE('',#413);
#413 = AXIS2_PLACEMENT_3D('',#414,#415,#416);
#414 = CARTESIAN_POINT('',(-1.397904172352,-797.7599488112,
    195.66790098948));
#415 = DIRECTION('',(-0.761056413687,-0.648685698305,4.468501609548E-08)
  );
#416 = DIRECTION('',(0.648685698305,-0.761056413687,0.));
#417 = ADVANCED_FACE('',(#418),#428,.T.);
#418 = FACE_BOUND('',#419,.T.);
#419 = EDGE_LOOP('',(#420,#421,#422));
#420 = ORIENTED_EDGE('',*,*,#407,.F.);
#421 = ORIENTED_EDGE('',*,*,#99,.F.);
#422 = ORIENTED_EDGE('',*,*,#423,.T.);
#423 = EDGE_CURVE('',#100,#55,#424,.T.);
#424 = LINE('',#425,#426);
#425 = CARTESIAN_POINT('',(88.900001525879,-903.700012207,
    352.47036743164));
#426 = VECTOR('',#427,1.);
#427 = DIRECTION('',(-0.643546007319,0.755026452729,0.125632766998));
#428 = PLANE('',#429);
#429 = AXIS2_PLACEMENT_3D('',#430,#431,#432);
#430 = CARTESIAN_POINT('',(25.344237216651,-829.1345845124,
    281.06448945866));
#431 = DIRECTION('',(-0.761056443343,-0.648685663512,-0.));
#432 = DIRECTION('',(0.648685663512,-0.761056443343,0.));
#433 = ADVANCED_FACE('',(#434),#439,.T.);
#434 = FACE_BOUND('',#435,.T.);
#435 = EDGE_LOOP('',(#436,#437,#438));
#436 = ORIENTED_EDGE('',*,*,#200,.F.);
#437 = ORIENTED_EDGE('',*,*,#77,.T.);
#438 = ORIENTED_EDGE('',*,*,#423,.F.);
#439 = PLANE('',#440);
#440 = AXIS2_PLACEMENT_3D('',#441,#442,#443);
#441 = CARTESIAN_POINT('',(4.508613446825,-804.6896244029,
    376.89854210565));
#442 = DIRECTION('',(-0.761056345767,-0.64868577799,1.187818342621E-06)
  );
#443 = DIRECTION('',(0.648685777991,-0.761056345767,0.));
#444 = ADVANCED_FACE('',(#445),#455,.T.);
#445 = FACE_BOUND('',#446,.T.);
#446 = EDGE_LOOP('',(#447,#448,#449));
#447 = ORIENTED_EDGE('',*,*,#375,.F.);
#448 = ORIENTED_EDGE('',*,*,#54,.F.);
#449 = ORIENTED_EDGE('',*,*,#450,.T.);
#450 = EDGE_CURVE('',#24,#347,#451,.T.);
#451 = LINE('',#452,#453);
#452 = CARTESIAN_POINT('',(-111.5076828002,-99.62009429931,
    386.40701293945));
#453 = VECTOR('',#454,1.);
#454 = DIRECTION('',(-0.564581197412,-0.65360231841,-0.50403579327));
#455 = PLANE('',#456);
#456 = AXIS2_PLACEMENT_3D('',#457,#458,#459);
#457 = CARTESIAN_POINT('',(-175.3348120633,-398.2635819648,
    320.97444130549));
#458 = DIRECTION('',(-0.647043836651,-2.864643862256E-02,0.761914466989)
  );
#459 = DIRECTION('',(0.76222728006,3.469446951954E-18,0.647309488215));
#460 = ADVANCED_FACE('',(#461),#471,.T.);
#461 = FACE_BOUND('',#462,.T.);
#462 = EDGE_LOOP('',(#463,#464,#470));
#463 = ORIENTED_EDGE('',*,*,#354,.F.);
#464 = ORIENTED_EDGE('',*,*,#465,.T.);
#465 = EDGE_CURVE('',#347,#240,#466,.T.);
#466 = LINE('',#467,#468);
#467 = CARTESIAN_POINT('',(-355.6000061035,-382.200012207,
    168.49102783203));
#468 = VECTOR('',#469,1.);
#469 = DIRECTION('',(0.653283315625,0.756290654326,-3.528959769261E-02)
  );
#470 = ORIENTED_EDGE('',*,*,#237,.F.);
#471 = PLANE('',#472);
#472 = AXIS2_PLACEMENT_3D('',#473,#474,#475);
#473 = CARTESIAN_POINT('',(-208.3219758291,-211.6997174345,
    116.97512682328));
#474 = DIRECTION('',(-0.756762020076,0.653690481016,-0.));
#475 = DIRECTION('',(-0.653690481016,-0.756762020076,0.));
#476 = ADVANCED_FACE('',(#477),#487,.T.);
#477 = FACE_BOUND('',#478,.T.);
#478 = EDGE_LOOP('',(#479,#480,#481));
#479 = ORIENTED_EDGE('',*,*,#465,.F.);
#480 = ORIENTED_EDGE('',*,*,#450,.F.);
#481 = ORIENTED_EDGE('',*,*,#482,.T.);
#482 = EDGE_CURVE('',#24,#240,#483,.T.);
#483 = LINE('',#484,#485);
#484 = CARTESIAN_POINT('',(-111.5076828002,-99.62009429931,
    386.40701293945));
#485 = VECTOR('',#486,1.);
#486 = DIRECTION('',(0.338156379244,0.391475632523,-0.855802017009));
#487 = PLANE('',#488);
#488 = AXIS2_PLACEMENT_3D('',#489,#490,#491);
#489 = CARTESIAN_POINT('',(-175.8724971843,-174.1337217058,
    225.60586225837));
#490 = DIRECTION('',(-0.756762020355,0.653690480693,-1.209262104155E-08)
  );
#491 = DIRECTION('',(-0.653690480693,-0.756762020355,0.));
#492 = ADVANCED_FACE('',(#493),#503,.T.);
#493 = FACE_BOUND('',#494,.T.);
#494 = EDGE_LOOP('',(#495,#496,#497));
#495 = ORIENTED_EDGE('',*,*,#482,.F.);
#496 = ORIENTED_EDGE('',*,*,#21,.F.);
#497 = ORIENTED_EDGE('',*,*,#498,.T.);
#498 = EDGE_CURVE('',#22,#240,#499,.T.);
#499 = LINE('',#500,#501);
#500 = CARTESIAN_POINT('',(-18.20000076293,8.39999961853,386.40701293945
    ));
#501 = VECTOR('',#502,1.);
#502 = DIRECTION('',(0.,0.,-1.));
#503 = PLANE('',#504);
#504 = AXIS2_PLACEMENT_3D('',#505,#506,#507);
#505 = CARTESIAN_POINT('',(-48.02928382807,-26.13265501228,
    294.07384845708));
#506 = DIRECTION('',(-0.756762007277,0.653690495832,-0.));
#507 = DIRECTION('',(-0.653690495832,-0.756762007277,0.));
#508 = ADVANCED_FACE('',(#509),#524,.T.);
#509 = FACE_BOUND('',#510,.T.);
#510 = EDGE_LOOP('',(#511,#517,#523));
#511 = ORIENTED_EDGE('',*,*,#512,.T.);
#512 = EDGE_CURVE('',#240,#32,#513,.T.);
#513 = LINE('',#514,#515);
#514 = CARTESIAN_POINT('',(-18.20000076293,8.39999961853,150.26507568359
    ));
#515 = VECTOR('',#516,1.);
#516 = DIRECTION('',(0.743066923418,-0.54041230823,0.394722794421));
#517 = ORIENTED_EDGE('',*,*,#518,.T.);
#518 = EDGE_CURVE('',#32,#215,#519,.T.);
#519 = LINE('',#520,#521);
#520 = CARTESIAN_POINT('',(426.33795166015,-314.9003295898,
    386.40701293945));
#521 = VECTOR('',#522,1.);
#522 = DIRECTION('',(-3.168595225663E-02,2.304436478535E-02,
    -0.99923218407));
#523 = ORIENTED_EDGE('',*,*,#270,.F.);
#524 = PLANE('',#525);
#525 = AXIS2_PLACEMENT_3D('',#526,#527,#528);
#526 = CARTESIAN_POINT('',(256.1284073807,-191.1115658071,
    179.82221294414));
#527 = DIRECTION('',(0.588171687625,0.808736091612,2.952007434845E-08));
#528 = DIRECTION('',(0.808736091612,-0.588171687625,1.654361225106E-24)
  );
#529 = ADVANCED_FACE('',(#530),#540,.T.);
#530 = FACE_BOUND('',#531,.T.);
#531 = EDGE_LOOP('',(#532,#533,#534));
#532 = ORIENTED_EDGE('',*,*,#518,.F.);
#533 = ORIENTED_EDGE('',*,*,#177,.F.);
#534 = ORIENTED_EDGE('',*,*,#535,.T.);
#535 = EDGE_CURVE('',#110,#215,#536,.T.);
#536 = LINE('',#537,#538);
#537 = CARTESIAN_POINT('',(547.91528320312,-403.3201904296,
    160.14497375488));
#538 = VECTOR('',#539,1.);
#539 = DIRECTION('',(-0.581155762924,0.422658724625,-0.69542618711));
#540 = PLANE('',#541);
#541 = AXIS2_PLACEMENT_3D('',#542,#543,#544);
#542 = CARTESIAN_POINT('',(456.41980009246,-336.7780280239,
    188.36407601668));
#543 = DIRECTION('',(0.588171662658,0.80873610977,3.073053168407E-08));
#544 = DIRECTION('',(0.80873610977,-0.588171662658,0.));
#545 = ADVANCED_FACE('',(#546),#551,.T.);
#546 = FACE_BOUND('',#547,.T.);
#547 = EDGE_LOOP('',(#548,#549,#550));
#548 = ORIENTED_EDGE('',*,*,#535,.F.);
#549 = ORIENTED_EDGE('',*,*,#163,.F.);
#550 = ORIENTED_EDGE('',*,*,#214,.F.);
#551 = PLANE('',#552);
#552 = AXIS2_PLACEMENT_3D('',#553,#554,#555);
#553 = CARTESIAN_POINT('',(500.27684924412,-368.6740576288,
    56.236809041077));
#554 = DIRECTION('',(0.58817168671,0.808736092278,0.));
#555 = DIRECTION('',(0.808736092278,-0.58817168671,0.));
#556 = ADVANCED_FACE('',(#557),#562,.T.);
#557 = FACE_BOUND('',#558,.T.);
#558 = EDGE_LOOP('',(#559,#560,#561));
#559 = ORIENTED_EDGE('',*,*,#498,.F.);
#560 = ORIENTED_EDGE('',*,*,#39,.F.);
#561 = ORIENTED_EDGE('',*,*,#512,.F.);
#562 = PLANE('',#563);
#563 = AXIS2_PLACEMENT_3D('',#564,#565,#566);
#564 = CARTESIAN_POINT('',(166.14645235928,-125.6701481786,
    315.22714244898));
#565 = DIRECTION('',(0.588171697881,0.808736084153,1.928885305986E-16));
#566 = DIRECTION('',(0.808736084153,-0.588171697881,0.));
#567 = ( GEOMETRIC_REPRESENTATION_CONTEXT(3) 
GLOBAL_UNCERTAINTY_ASSIGNED_CONTEXT((#571)) GLOBAL_UNIT_ASSIGNED_CONTEXT
((#568,#569,#570)) REPRESENTATION_CONTEXT('Context #1',
  '3D Context with UNIT and UNCERTAINTY') );
#568 = ( LENGTH_UNIT() NAMED_UNIT(*) SI_UNIT(.MILLI.,.METRE.) );
#569 = ( NAMED_UNIT(*) PLANE_ANGLE_UNIT() SI_UNIT($,.RADIAN.) );
#570 = ( NAMED_UNIT(*) SI_UNIT($,.STERADIAN.) SOLID_ANGLE_UNIT() );
#571 = UNCERTAINTY_MEASURE_WITH_UNIT(LENGTH_MEASURE(1.E-07),#568,
  'distance_accuracy_value','confusion accuracy');
#572 = PRODUCT_RELATED_PRODUCT_CATEGORY('part',$,(#7));
#573 = MECHANICAL_DESIGN_GEOMETRIC_PRESENTATION_REPRESENTATION('',(#574)
  ,#567);
#574 = STYLED_ITEM('color',(#575),#15);
#575 = PRESENTATION_STYLE_ASSIGNMENT((#576,#582));
#576 = SURFACE_STYLE_USAGE(.BOTH.,#577);
#577 = SURFACE_SIDE_STYLE('',(#578));
#578 = SURFACE_STYLE_FILL_AREA(#579);
#579 = FILL_AREA_STYLE('',(#580));
#580 = FILL_AREA_STYLE_COLOUR('',#581);
#581 = COLOUR_RGB('',0.800000010877,0.800000010877,0.90196104065);
#582 = CURVE_STYLE('',#583,POSITIVE_LENGTH_MEASURE(0.1),#584);
#583 = DRAUGHTING_PRE_DEFINED_CURVE_FONT('continuous');
#584 = COLOUR_RGB('',9.803921802644E-02,9.803921802644E-02,
  9.803921802644E-02);
ENDSEC;
END-ISO-10303-21;
