ISO-10303-21;
HEADER;
FILE_DESCRIPTION(('FreeCAD Model'),'2;1');
FILE_NAME('Open CASCADE Shape Model','2026-01-12T12:29:03',('Author'),(
    ''),'Open CASCADE STEP processor 7.8','FreeCAD','Unknown');
FILE_SCHEMA(('AUTOMOTIVE_DESIGN { 1 0 10303 214 1 1 1 1 }'));
ENDSEC;
DATA;
#1 = APPLICATION_PROTOCOL_DEFINITION('international standard',
  'automotive_design',2000,#2);
#2 = APPLICATION_CONTEXT(
  'core data for automotive mechanical design processes');
#3 = SHAPE_DEFINITION_REPRESENTATION(#4,#10);
#4 = PRODUCT_DEFINITION_SHAPE('','',#5);
#5 = PRODUCT_DEFINITION('design','',#6,#9);
#6 = PRODUCT_DEFINITION_FORMATION('','',#7);
#7 = PRODUCT('Rock3','Rock3','',(#8));
#8 = PRODUCT_CONTEXT('',#2,'mechanical');
#9 = PRODUCT_DEFINITION_CONTEXT('part definition',#2,'design');
#10 = ADVANCED_BREP_SHAPE_REPRESENTATION('',(#11,#15),#801);
#11 = AXIS2_PLACEMENT_3D('',#12,#13,#14);
#12 = CARTESIAN_POINT('',(0.,0.,0.));
#13 = DIRECTION('',(0.,0.,1.));
#14 = DIRECTION('',(1.,0.,-0.));
#15 = MANIFOLD_SOLID_BREP('',#16);
#16 = CLOSED_SHELL('',(#17,#49,#72,#95,#118,#141,#173,#196,#226,#242,
    #265,#288,#304,#320,#352,#375,#398,#419,#435,#458,#474,#497,#518,
    #534,#550,#566,#587,#598,#614,#630,#646,#662,#678,#699,#710,#731,
    #747,#763,#774,#790));
#17 = ADVANCED_FACE('',(#18),#44,.T.);
#18 = FACE_BOUND('',#19,.T.);
#19 = EDGE_LOOP('',(#20,#30,#38));
#20 = ORIENTED_EDGE('',*,*,#21,.T.);
#21 = EDGE_CURVE('',#22,#24,#26,.T.);
#22 = VERTEX_POINT('',#23);
#23 = CARTESIAN_POINT('',(-136.4072875976,382.21704101562,-545.408996582
    ));
#24 = VERTEX_POINT('',#25);
#25 = CARTESIAN_POINT('',(-212.8209991455,613.04235839843,-545.408996582
    ));
#26 = LINE('',#27,#28);
#27 = CARTESIAN_POINT('',(-136.4072875976,382.21704101562,-545.408996582
    ));
#28 = VECTOR('',#29,1.);
#29 = DIRECTION('',(-0.314272478198,0.949332823328,0.));
#30 = ORIENTED_EDGE('',*,*,#31,.T.);
#31 = EDGE_CURVE('',#24,#32,#34,.T.);
#32 = VERTEX_POINT('',#33);
#33 = CARTESIAN_POINT('',(-88.10683441162,236.31434631347,-240.165939331
    ));
#34 = LINE('',#35,#36);
#35 = CARTESIAN_POINT('',(-212.8209991455,613.04235839843,-545.408996582
    ));
#36 = VECTOR('',#37,1.);
#37 = DIRECTION('',(0.249104235491,-0.75247702327,0.609692881139));
#38 = ORIENTED_EDGE('',*,*,#39,.T.);
#39 = EDGE_CURVE('',#32,#22,#40,.T.);
#40 = LINE('',#41,#42);
#41 = CARTESIAN_POINT('',(-88.10683441162,236.31434631347,-240.165939331
    ));
#42 = VECTOR('',#43,1.);
#43 = DIRECTION('',(-0.141332229705,0.426926701552,-0.893173439119));
#44 = PLANE('',#45);
#45 = AXIS2_PLACEMENT_3D('',#46,#47,#48);
#46 = CARTESIAN_POINT('',(-143.8449132965,404.68411753102,
    -426.9722118497));
#47 = DIRECTION('',(0.949332823328,0.314272478198,-1.360010433767E-08));
#48 = DIRECTION('',(-0.314272478198,0.949332823328,0.));
#49 = ADVANCED_FACE('',(#50),#67,.T.);
#50 = FACE_BOUND('',#51,.T.);
#51 = EDGE_LOOP('',(#52,#53,#61));
#52 = ORIENTED_EDGE('',*,*,#31,.F.);
#53 = ORIENTED_EDGE('',*,*,#54,.T.);
#54 = EDGE_CURVE('',#24,#55,#57,.T.);
#55 = VERTEX_POINT('',#56);
#56 = CARTESIAN_POINT('',(-212.8209991455,613.04235839843,
    65.115737915039));
#57 = LINE('',#58,#59);
#58 = CARTESIAN_POINT('',(-212.8209991455,613.04235839843,-545.408996582
    ));
#59 = VECTOR('',#60,1.);
#60 = DIRECTION('',(0.,0.,1.));
#61 = ORIENTED_EDGE('',*,*,#62,.T.);
#62 = EDGE_CURVE('',#55,#32,#63,.T.);
#63 = LINE('',#64,#65);
#64 = CARTESIAN_POINT('',(-212.8209991455,613.04235839843,
    65.115737915039));
#65 = VECTOR('',#66,1.);
#66 = DIRECTION('',(0.249092519835,-0.752441633418,-0.609741342589));
#67 = PLANE('',#68);
#68 = AXIS2_PLACEMENT_3D('',#69,#70,#71);
#69 = CARTESIAN_POINT('',(-174.0830855796,496.02552072707,
    -240.1503975142));
#70 = DIRECTION('',(0.94933282004,0.314272488129,0.));
#71 = DIRECTION('',(-0.314272488129,0.94933282004,0.));
#72 = ADVANCED_FACE('',(#73),#90,.T.);
#73 = FACE_BOUND('',#74,.T.);
#74 = EDGE_LOOP('',(#75,#76,#84));
#75 = ORIENTED_EDGE('',*,*,#62,.F.);
#76 = ORIENTED_EDGE('',*,*,#77,.T.);
#77 = EDGE_CURVE('',#55,#78,#80,.T.);
#78 = VERTEX_POINT('',#79);
#79 = CARTESIAN_POINT('',(-88.10683441162,236.31434631347,
    65.115737915039));
#80 = LINE('',#81,#82);
#81 = CARTESIAN_POINT('',(-212.8209991455,613.04235839843,
    65.115737915039));
#82 = VECTOR('',#83,1.);
#83 = DIRECTION('',(0.314272488129,-0.94933282004,0.));
#84 = ORIENTED_EDGE('',*,*,#85,.T.);
#85 = EDGE_CURVE('',#78,#32,#86,.T.);
#86 = LINE('',#87,#88);
#87 = CARTESIAN_POINT('',(-88.10683441162,236.31434631347,
    65.115737915039));
#88 = VECTOR('',#89,1.);
#89 = DIRECTION('',(0.,0.,-1.));
#90 = PLANE('',#91);
#91 = AXIS2_PLACEMENT_3D('',#92,#93,#94);
#92 = CARTESIAN_POINT('',(-134.6369886445,376.8694512093,-37.16457367531
    ));
#93 = DIRECTION('',(0.94933282004,0.314272488129,0.));
#94 = DIRECTION('',(-0.314272488129,0.94933282004,0.));
#95 = ADVANCED_FACE('',(#96),#113,.T.);
#96 = FACE_BOUND('',#97,.T.);
#97 = EDGE_LOOP('',(#98,#99,#107));
#98 = ORIENTED_EDGE('',*,*,#39,.F.);
#99 = ORIENTED_EDGE('',*,*,#100,.T.);
#100 = EDGE_CURVE('',#32,#101,#103,.T.);
#101 = VERTEX_POINT('',#102);
#102 = CARTESIAN_POINT('',(-434.6187438964,-44.57755279541,
    -545.408996582));
#103 = LINE('',#104,#105);
#104 = CARTESIAN_POINT('',(-88.10683441162,236.31434631347,
    -240.165939331));
#105 = VECTOR('',#106,1.);
#106 = DIRECTION('',(-0.641090905276,-0.519685577769,-0.564738303492));
#107 = ORIENTED_EDGE('',*,*,#108,.T.);
#108 = EDGE_CURVE('',#101,#22,#109,.T.);
#109 = LINE('',#110,#111);
#110 = CARTESIAN_POINT('',(-434.6187438964,-44.57755279541,
    -545.408996582));
#111 = VECTOR('',#112,1.);
#112 = DIRECTION('',(0.572759924135,0.819723166261,0.));
#113 = PLANE('',#114);
#114 = AXIS2_PLACEMENT_3D('',#115,#116,#117);
#115 = CARTESIAN_POINT('',(-234.0032117566,174.92640343378,
    -449.429283381));
#116 = DIRECTION('',(0.760177575884,-0.531154014689,-0.374173042593));
#117 = DIRECTION('',(0.572759924135,0.819723166261,0.));
#118 = ADVANCED_FACE('',(#119),#136,.T.);
#119 = FACE_BOUND('',#120,.T.);
#120 = EDGE_LOOP('',(#121,#122,#130));
#121 = ORIENTED_EDGE('',*,*,#100,.F.);
#122 = ORIENTED_EDGE('',*,*,#123,.T.);
#123 = EDGE_CURVE('',#32,#124,#126,.T.);
#124 = VERTEX_POINT('',#125);
#125 = CARTESIAN_POINT('',(-150.0330047607,-34.12869262695,
    17.928558349609));
#126 = LINE('',#127,#128);
#127 = CARTESIAN_POINT('',(-88.10683441162,236.31434631347,
    -240.165939331));
#128 = VECTOR('',#129,1.);
#129 = DIRECTION('',(-0.163424278051,-0.713704046992,0.681116024368));
#130 = ORIENTED_EDGE('',*,*,#131,.F.);
#131 = EDGE_CURVE('',#101,#124,#132,.T.);
#132 = LINE('',#133,#134);
#133 = CARTESIAN_POINT('',(-434.6187438964,-44.57755279541,
    -545.408996582));
#134 = VECTOR('',#135,1.);
#135 = DIRECTION('',(0.450845378868,1.655325504256E-02,0.892448561039));
#136 = PLANE('',#137);
#137 = AXIS2_PLACEMENT_3D('',#138,#139,#140);
#138 = CARTESIAN_POINT('',(-239.1953551373,42.100443966806,
    -271.4258524772));
#139 = DIRECTION('',(0.760177580454,-0.531153985705,-0.374173074453));
#140 = DIRECTION('',(0.57275990082,0.819723182552,0.));
#141 = ADVANCED_FACE('',(#142),#168,.T.);
#142 = FACE_BOUND('',#143,.T.);
#143 = EDGE_LOOP('',(#144,#154,#162));
#144 = ORIENTED_EDGE('',*,*,#145,.T.);
#145 = EDGE_CURVE('',#146,#148,#150,.T.);
#146 = VERTEX_POINT('',#147);
#147 = CARTESIAN_POINT('',(-542.4580078125,942.67932128906,
    -545.408996582));
#148 = VERTEX_POINT('',#149);
#149 = CARTESIAN_POINT('',(-542.4580078125,942.67932128906,
    -57.04615020752));
#150 = LINE('',#151,#152);
#151 = CARTESIAN_POINT('',(-542.4580078125,942.67932128906,
    -545.408996582));
#152 = VECTOR('',#153,1.);
#153 = DIRECTION('',(0.,0.,1.));
#154 = ORIENTED_EDGE('',*,*,#155,.T.);
#155 = EDGE_CURVE('',#148,#156,#158,.T.);
#156 = VERTEX_POINT('',#157);
#157 = CARTESIAN_POINT('',(-278.3864746093,759.298828125,-545.408996582)
  );
#158 = LINE('',#159,#160);
#159 = CARTESIAN_POINT('',(-542.4580078125,942.67932128906,
    -57.04615020752));
#160 = VECTOR('',#161,1.);
#161 = DIRECTION('',(0.451644948567,-0.313638022238,-0.835253273828));
#162 = ORIENTED_EDGE('',*,*,#163,.T.);
#163 = EDGE_CURVE('',#156,#146,#164,.T.);
#164 = LINE('',#165,#166);
#165 = CARTESIAN_POINT('',(-278.3864746093,759.298828125,-545.408996582)
  );
#166 = VECTOR('',#167,1.);
#167 = DIRECTION('',(-0.821373632106,0.570390529795,0.));
#168 = PLANE('',#169);
#169 = AXIS2_PLACEMENT_3D('',#170,#171,#172);
#170 = CARTESIAN_POINT('',(-456.6603203,883.09841130785,-357.5211738729)
  );
#171 = DIRECTION('',(0.570390529795,0.821373632106,0.));
#172 = DIRECTION('',(0.821373632106,-0.570390529795,0.));
#173 = ADVANCED_FACE('',(#174),#191,.T.);
#174 = FACE_BOUND('',#175,.T.);
#175 = EDGE_LOOP('',(#176,#177,#185));
#176 = ORIENTED_EDGE('',*,*,#155,.F.);
#177 = ORIENTED_EDGE('',*,*,#178,.F.);
#178 = EDGE_CURVE('',#179,#148,#181,.T.);
#179 = VERTEX_POINT('',#180);
#180 = CARTESIAN_POINT('',(-367.8426513671,821.42034912109,
    65.115737915039));
#181 = LINE('',#182,#183);
#182 = CARTESIAN_POINT('',(-367.8426513671,821.42034912109,
    65.115737915039));
#183 = VECTOR('',#184,1.);
#184 = DIRECTION('',(-0.712165512698,0.494552482905,-0.498235008983));
#185 = ORIENTED_EDGE('',*,*,#186,.T.);
#186 = EDGE_CURVE('',#179,#156,#187,.T.);
#187 = LINE('',#188,#189);
#188 = CARTESIAN_POINT('',(-367.8426513671,821.42034912109,
    65.115737915039));
#189 = VECTOR('',#190,1.);
#190 = DIRECTION('',(0.144246271555,-0.100169693271,-0.984458757741));
#191 = PLANE('',#192);
#192 = AXIS2_PLACEMENT_3D('',#193,#194,#195);
#193 = CARTESIAN_POINT('',(-380.6450520866,830.31076331431,
    -223.4868498788));
#194 = DIRECTION('',(0.570390464542,0.821373677421,-5.230013042079E-08)
  );
#195 = DIRECTION('',(0.821373677421,-0.570390464542,3.308722450212E-24)
  );
#196 = ADVANCED_FACE('',(#197),#221,.T.);
#197 = FACE_BOUND('',#198,.T.);
#198 = EDGE_LOOP('',(#199,#207,#215));
#199 = ORIENTED_EDGE('',*,*,#200,.T.);
#200 = EDGE_CURVE('',#201,#179,#203,.T.);
#201 = VERTEX_POINT('',#202);
#202 = CARTESIAN_POINT('',(-746.5189819335,501.71826171875,
    65.115737915039));
#203 = LINE('',#204,#205);
#204 = CARTESIAN_POINT('',(-746.5189819335,501.71826171875,
    65.115737915039));
#205 = VECTOR('',#206,1.);
#206 = DIRECTION('',(0.764098578799,0.645099497657,0.));
#207 = ORIENTED_EDGE('',*,*,#208,.T.);
#208 = EDGE_CURVE('',#179,#209,#211,.T.);
#209 = VERTEX_POINT('',#210);
#210 = CARTESIAN_POINT('',(-746.5189819335,691.52734375,-21.18552589416)
  );
#211 = LINE('',#212,#213);
#212 = CARTESIAN_POINT('',(-367.8426513671,821.42034912109,
    65.115737915039));
#213 = VECTOR('',#214,1.);
#214 = DIRECTION('',(-0.924657906955,-0.317174813369,-0.210731803179));
#215 = ORIENTED_EDGE('',*,*,#216,.T.);
#216 = EDGE_CURVE('',#209,#201,#217,.T.);
#217 = LINE('',#218,#219);
#218 = CARTESIAN_POINT('',(-746.5189819335,691.52734375,-21.18552589416)
  );
#219 = VECTOR('',#220,1.);
#220 = DIRECTION('',(0.,-0.91032237354,0.413899959209));
#221 = PLANE('',#222);
#222 = AXIS2_PLACEMENT_3D('',#223,#224,#225);
#223 = CARTESIAN_POINT('',(-592.6312176323,684.30995219466,
    41.168020303835));
#224 = DIRECTION('',(-0.329879476596,0.390731104516,0.859365309333));
#225 = DIRECTION('',(1.387778780781E-17,0.91032237354,-0.413899959209));
#226 = ADVANCED_FACE('',(#227),#237,.T.);
#227 = FACE_BOUND('',#228,.T.);
#228 = EDGE_LOOP('',(#229,#230,#231));
#229 = ORIENTED_EDGE('',*,*,#208,.F.);
#230 = ORIENTED_EDGE('',*,*,#178,.T.);
#231 = ORIENTED_EDGE('',*,*,#232,.T.);
#232 = EDGE_CURVE('',#148,#209,#233,.T.);
#233 = LINE('',#234,#235);
#234 = CARTESIAN_POINT('',(-542.4580078125,942.67932128906,
    -57.04615020752));
#235 = VECTOR('',#236,1.);
#236 = DIRECTION('',(-0.626755938069,-0.771391952618,0.110142859643));
#237 = PLANE('',#238);
#238 = AXIS2_PLACEMENT_3D('',#239,#240,#241);
#239 = CARTESIAN_POINT('',(-560.6584120277,808.01891659929,
    -2.806028523148));
#240 = DIRECTION('',(-0.329879490511,0.390731167724,0.859365275252));
#241 = DIRECTION('',(0.,0.910322342127,-0.413900028297));
#242 = ADVANCED_FACE('',(#243),#260,.T.);
#243 = FACE_BOUND('',#244,.T.);
#244 = EDGE_LOOP('',(#245,#246,#254));
#245 = ORIENTED_EDGE('',*,*,#186,.F.);
#246 = ORIENTED_EDGE('',*,*,#247,.T.);
#247 = EDGE_CURVE('',#179,#248,#250,.T.);
#248 = VERTEX_POINT('',#249);
#249 = CARTESIAN_POINT('',(-278.3864746093,759.298828125,65.115737915039
    ));
#250 = LINE('',#251,#252);
#251 = CARTESIAN_POINT('',(-367.8426513671,821.42034912109,
    65.115737915039));
#252 = VECTOR('',#253,1.);
#253 = DIRECTION('',(0.821373510193,-0.570390705353,0.));
#254 = ORIENTED_EDGE('',*,*,#255,.T.);
#255 = EDGE_CURVE('',#248,#156,#256,.T.);
#256 = LINE('',#257,#258);
#257 = CARTESIAN_POINT('',(-278.3864746093,759.298828125,65.115737915039
    ));
#258 = VECTOR('',#259,1.);
#259 = DIRECTION('',(0.,0.,-1.));
#260 = PLANE('',#261);
#261 = AXIS2_PLACEMENT_3D('',#262,#263,#264);
#262 = CARTESIAN_POINT('',(-302.7296389834,776.20357916161,
    -215.3285365269));
#263 = DIRECTION('',(0.570390705353,0.821373510193,0.));
#264 = DIRECTION('',(0.821373510193,-0.570390705353,0.));
#265 = ADVANCED_FACE('',(#266),#283,.T.);
#266 = FACE_BOUND('',#267,.T.);
#267 = EDGE_LOOP('',(#268,#276,#282));
#268 = ORIENTED_EDGE('',*,*,#269,.T.);
#269 = EDGE_CURVE('',#146,#270,#272,.T.);
#270 = VERTEX_POINT('',#271);
#271 = CARTESIAN_POINT('',(-746.5189819335,691.52734375,-545.408996582)
  );
#272 = LINE('',#273,#274);
#273 = CARTESIAN_POINT('',(-542.4580078125,942.67932128906,
    -545.408996582));
#274 = VECTOR('',#275,1.);
#275 = DIRECTION('',(-0.630592610893,-0.776114011655,0.));
#276 = ORIENTED_EDGE('',*,*,#277,.T.);
#277 = EDGE_CURVE('',#270,#148,#278,.T.);
#278 = LINE('',#279,#280);
#279 = CARTESIAN_POINT('',(-746.5189819335,691.52734375,-545.408996582)
  );
#280 = VECTOR('',#281,1.);
#281 = DIRECTION('',(0.348317983498,0.428699072641,0.833601635968));
#282 = ORIENTED_EDGE('',*,*,#145,.F.);
#283 = PLANE('',#284);
#284 = AXIS2_PLACEMENT_3D('',#285,#286,#287);
#285 = CARTESIAN_POINT('',(-608.8414156949,860.97666237911,
    -357.7570641664));
#286 = DIRECTION('',(-0.776114011655,0.630592610893,-0.));
#287 = DIRECTION('',(-0.630592610893,-0.776114011655,0.));
#288 = ADVANCED_FACE('',(#289),#299,.T.);
#289 = FACE_BOUND('',#290,.T.);
#290 = EDGE_LOOP('',(#291,#292,#298));
#291 = ORIENTED_EDGE('',*,*,#277,.F.);
#292 = ORIENTED_EDGE('',*,*,#293,.T.);
#293 = EDGE_CURVE('',#270,#209,#294,.T.);
#294 = LINE('',#295,#296);
#295 = CARTESIAN_POINT('',(-746.5189819335,691.52734375,-545.408996582)
  );
#296 = VECTOR('',#297,1.);
#297 = DIRECTION('',(0.,0.,1.));
#298 = ORIENTED_EDGE('',*,*,#232,.F.);
#299 = PLANE('',#300);
#300 = AXIS2_PLACEMENT_3D('',#301,#302,#303);
#301 = CARTESIAN_POINT('',(-681.7445535238,771.249720158,-235.2376960318
    ));
#302 = DIRECTION('',(-0.776114011655,0.630592610893,-0.));
#303 = DIRECTION('',(-0.630592610893,-0.776114011655,0.));
#304 = ADVANCED_FACE('',(#305),#315,.T.);
#305 = FACE_BOUND('',#306,.T.);
#306 = EDGE_LOOP('',(#307,#308,#309));
#307 = ORIENTED_EDGE('',*,*,#216,.F.);
#308 = ORIENTED_EDGE('',*,*,#293,.F.);
#309 = ORIENTED_EDGE('',*,*,#310,.F.);
#310 = EDGE_CURVE('',#201,#270,#311,.T.);
#311 = LINE('',#312,#313);
#312 = CARTESIAN_POINT('',(-746.5189819335,501.71826171875,
    65.115737915039));
#313 = VECTOR('',#314,1.);
#314 = DIRECTION('',(0.,0.296878383161,-0.954915297611));
#315 = PLANE('',#316);
#316 = AXIS2_PLACEMENT_3D('',#317,#318,#319);
#317 = CARTESIAN_POINT('',(-746.5189819335,632.88247039574,
    -216.8012812314));
#318 = DIRECTION('',(-1.,-0.,-0.));
#319 = DIRECTION('',(0.,0.,-1.));
#320 = ADVANCED_FACE('',(#321),#347,.T.);
#321 = FACE_BOUND('',#322,.T.);
#322 = EDGE_LOOP('',(#323,#333,#341));
#323 = ORIENTED_EDGE('',*,*,#324,.T.);
#324 = EDGE_CURVE('',#325,#327,#329,.T.);
#325 = VERTEX_POINT('',#326);
#326 = CARTESIAN_POINT('',(-746.5189819335,95.041343688965,
    -97.53879547119));
#327 = VERTEX_POINT('',#328);
#328 = CARTESIAN_POINT('',(-479.6700134277,-46.23165512085,
    -106.4572296142));
#329 = LINE('',#330,#331);
#330 = CARTESIAN_POINT('',(-746.5189819335,95.041343688965,
    -97.53879547119));
#331 = VECTOR('',#332,1.);
#332 = DIRECTION('',(0.883402615332,-0.467683788786,-2.952444632171E-02)
  );
#333 = ORIENTED_EDGE('',*,*,#334,.T.);
#334 = EDGE_CURVE('',#327,#335,#337,.T.);
#335 = VERTEX_POINT('',#336);
#336 = CARTESIAN_POINT('',(-746.5189819335,291.52490234375,
    65.115737915039));
#337 = LINE('',#338,#339);
#338 = CARTESIAN_POINT('',(-479.6700134277,-46.23165512085,
    -106.4572296142));
#339 = VECTOR('',#340,1.);
#340 = DIRECTION('',(-0.575869495101,0.728890575456,0.370260521287));
#341 = ORIENTED_EDGE('',*,*,#342,.T.);
#342 = EDGE_CURVE('',#335,#325,#343,.T.);
#343 = LINE('',#344,#345);
#344 = CARTESIAN_POINT('',(-746.5189819335,291.52490234375,
    65.115737915039));
#345 = VECTOR('',#346,1.);
#346 = DIRECTION('',(0.,-0.770302940976,-0.637678115606));
#347 = PLANE('',#348);
#348 = AXIS2_PLACEMENT_3D('',#349,#350,#351);
#349 = CARTESIAN_POINT('',(-646.4429498094,111.22274945156,
    -43.6285492057));
#350 = DIRECTION('',(-0.297709467186,-0.608763571382,0.735374725773));
#351 = DIRECTION('',(0.,0.770302940976,0.637678115606));
#352 = ADVANCED_FACE('',(#353),#370,.T.);
#353 = FACE_BOUND('',#354,.T.);
#354 = EDGE_LOOP('',(#355,#356,#364));
#355 = ORIENTED_EDGE('',*,*,#334,.F.);
#356 = ORIENTED_EDGE('',*,*,#357,.T.);
#357 = EDGE_CURVE('',#327,#358,#360,.T.);
#358 = VERTEX_POINT('',#359);
#359 = CARTESIAN_POINT('',(-143.0422973632,-3.59902882576,
    65.115737915039));
#360 = LINE('',#361,#362);
#361 = CARTESIAN_POINT('',(-479.6700134277,-46.23165512085,
    -106.4572296142));
#362 = VECTOR('',#363,1.);
#363 = DIRECTION('',(0.885332096086,0.112123959491,0.451237517665));
#364 = ORIENTED_EDGE('',*,*,#365,.T.);
#365 = EDGE_CURVE('',#358,#335,#366,.T.);
#366 = LINE('',#367,#368);
#367 = CARTESIAN_POINT('',(-143.0422973632,-3.59902882576,
    65.115737915039));
#368 = VECTOR('',#369,1.);
#369 = DIRECTION('',(-0.898330971104,0.439319321628,0.));
#370 = PLANE('',#371);
#371 = AXIS2_PLACEMENT_3D('',#372,#373,#374);
#372 = CARTESIAN_POINT('',(-462.7709886446,95.071261492068,
    17.358637788994));
#373 = DIRECTION('',(-0.297709417641,-0.608763550999,0.735374762704));
#374 = DIRECTION('',(-2.775557561563E-17,0.770302967195,0.637678083934)
  );
#375 = ADVANCED_FACE('',(#376),#393,.T.);
#376 = FACE_BOUND('',#377,.T.);
#377 = EDGE_LOOP('',(#378,#386,#392));
#378 = ORIENTED_EDGE('',*,*,#379,.T.);
#379 = EDGE_CURVE('',#327,#380,#382,.T.);
#380 = VERTEX_POINT('',#381);
#381 = CARTESIAN_POINT('',(-150.0330047607,-34.12869262695,
    37.012317657471));
#382 = LINE('',#383,#384);
#383 = CARTESIAN_POINT('',(-479.6700134277,-46.23165512085,
    -106.4572296142));
#384 = VECTOR('',#385,1.);
#385 = DIRECTION('',(0.916399164715,3.364653976456E-02,0.398848945431));
#386 = ORIENTED_EDGE('',*,*,#387,.T.);
#387 = EDGE_CURVE('',#380,#358,#388,.T.);
#388 = LINE('',#389,#390);
#389 = CARTESIAN_POINT('',(-150.0330047607,-34.12869262695,
    37.012317657471));
#390 = VECTOR('',#391,1.);
#391 = DIRECTION('',(0.166128687616,0.72551355568,0.667855777601));
#392 = ORIENTED_EDGE('',*,*,#357,.F.);
#393 = PLANE('',#394);
#394 = AXIS2_PLACEMENT_3D('',#395,#396,#397);
#395 = CARTESIAN_POINT('',(-304.09510219,-31.61117150016,-23.27417085519
    ));
#396 = DIRECTION('',(-0.297709417357,-0.608763551626,0.735374762301));
#397 = DIRECTION('',(-2.775557561563E-17,0.770302966701,0.637678084531)
  );
#398 = ADVANCED_FACE('',(#399),#414,.T.);
#399 = FACE_BOUND('',#400,.T.);
#400 = EDGE_LOOP('',(#401,#407,#413));
#401 = ORIENTED_EDGE('',*,*,#402,.T.);
#402 = EDGE_CURVE('',#335,#201,#403,.T.);
#403 = LINE('',#404,#405);
#404 = CARTESIAN_POINT('',(-746.5189819335,291.52490234375,
    65.115737915039));
#405 = VECTOR('',#406,1.);
#406 = DIRECTION('',(0.,1.,0.));
#407 = ORIENTED_EDGE('',*,*,#408,.T.);
#408 = EDGE_CURVE('',#201,#325,#409,.T.);
#409 = LINE('',#410,#411);
#410 = CARTESIAN_POINT('',(-746.5189819335,501.71826171875,
    65.115737915039));
#411 = VECTOR('',#412,1.);
#412 = DIRECTION('',(0.,-0.928489470909,-0.371358724701));
#413 = ORIENTED_EDGE('',*,*,#342,.F.);
#414 = PLANE('',#415);
#415 = AXIS2_PLACEMENT_3D('',#416,#417,#418);
#416 = CARTESIAN_POINT('',(-746.5189819335,291.562792137,2.713652374944)
  );
#417 = DIRECTION('',(-1.,-0.,-0.));
#418 = DIRECTION('',(0.,0.,-1.));
#419 = ADVANCED_FACE('',(#420),#430,.T.);
#420 = FACE_BOUND('',#421,.T.);
#421 = EDGE_LOOP('',(#422,#423,#424));
#422 = ORIENTED_EDGE('',*,*,#408,.F.);
#423 = ORIENTED_EDGE('',*,*,#310,.T.);
#424 = ORIENTED_EDGE('',*,*,#425,.T.);
#425 = EDGE_CURVE('',#270,#325,#426,.T.);
#426 = LINE('',#427,#428);
#427 = CARTESIAN_POINT('',(-746.5189819335,691.52734375,-545.408996582)
  );
#428 = VECTOR('',#429,1.);
#429 = DIRECTION('',(0.,-0.799674459459,0.600433808915));
#430 = PLANE('',#431);
#431 = AXIS2_PLACEMENT_3D('',#432,#433,#434);
#432 = CARTESIAN_POINT('',(-746.5189819335,441.78887591449,
    -219.6227691821));
#433 = DIRECTION('',(-1.,-0.,-0.));
#434 = DIRECTION('',(0.,0.,-1.));
#435 = ADVANCED_FACE('',(#436),#453,.T.);
#436 = FACE_BOUND('',#437,.T.);
#437 = EDGE_LOOP('',(#438,#439,#447));
#438 = ORIENTED_EDGE('',*,*,#425,.F.);
#439 = ORIENTED_EDGE('',*,*,#440,.T.);
#440 = EDGE_CURVE('',#270,#441,#443,.T.);
#441 = VERTEX_POINT('',#442);
#442 = CARTESIAN_POINT('',(-746.5189819335,95.041343688965,
    -545.408996582));
#443 = LINE('',#444,#445);
#444 = CARTESIAN_POINT('',(-746.5189819335,691.52734375,-545.408996582)
  );
#445 = VECTOR('',#446,1.);
#446 = DIRECTION('',(0.,-1.,0.));
#447 = ORIENTED_EDGE('',*,*,#448,.T.);
#448 = EDGE_CURVE('',#441,#325,#449,.T.);
#449 = LINE('',#450,#451);
#450 = CARTESIAN_POINT('',(-746.5189819335,95.041343688965,
    -545.408996582));
#451 = VECTOR('',#452,1.);
#452 = DIRECTION('',(0.,0.,1.));
#453 = PLANE('',#454);
#454 = AXIS2_PLACEMENT_3D('',#455,#456,#457);
#455 = CARTESIAN_POINT('',(-746.5189819335,318.67305103313,
    -396.0851887129));
#456 = DIRECTION('',(-1.,-0.,-0.));
#457 = DIRECTION('',(0.,0.,-1.));
#458 = ADVANCED_FACE('',(#459),#469,.T.);
#459 = FACE_BOUND('',#460,.T.);
#460 = EDGE_LOOP('',(#461,#462,#468));
#461 = ORIENTED_EDGE('',*,*,#448,.F.);
#462 = ORIENTED_EDGE('',*,*,#463,.T.);
#463 = EDGE_CURVE('',#441,#327,#464,.T.);
#464 = LINE('',#465,#466);
#465 = CARTESIAN_POINT('',(-746.5189819335,95.041343688965,
    -545.408996582));
#466 = VECTOR('',#467,1.);
#467 = DIRECTION('',(0.50086979056,-0.26516638877,0.823903052046));
#468 = ORIENTED_EDGE('',*,*,#324,.F.);
#469 = PLANE('',#470);
#470 = AXIS2_PLACEMENT_3D('',#471,#472,#473);
#471 = CARTESIAN_POINT('',(-659.6808752912,49.068223369162,
    -271.6409774589));
#472 = DIRECTION('',(-0.467887760472,-0.883787895142,-0.));
#473 = DIRECTION('',(-0.883787895142,0.467887760472,0.));
#474 = ADVANCED_FACE('',(#475),#492,.T.);
#475 = FACE_BOUND('',#476,.T.);
#476 = EDGE_LOOP('',(#477,#478,#486));
#477 = ORIENTED_EDGE('',*,*,#463,.F.);
#478 = ORIENTED_EDGE('',*,*,#479,.T.);
#479 = EDGE_CURVE('',#441,#480,#482,.T.);
#480 = VERTEX_POINT('',#481);
#481 = CARTESIAN_POINT('',(-479.6700134277,-46.23165512085,
    -545.408996582));
#482 = LINE('',#483,#484);
#483 = CARTESIAN_POINT('',(-746.5189819335,95.041343688965,
    -545.408996582));
#484 = VECTOR('',#485,1.);
#485 = DIRECTION('',(0.883787895142,-0.467887760472,0.));
#486 = ORIENTED_EDGE('',*,*,#487,.T.);
#487 = EDGE_CURVE('',#480,#327,#488,.T.);
#488 = LINE('',#489,#490);
#489 = CARTESIAN_POINT('',(-479.6700134277,-46.23165512085,
    -545.408996582));
#490 = VECTOR('',#491,1.);
#491 = DIRECTION('',(0.,0.,1.));
#492 = PLANE('',#493);
#493 = AXIS2_PLACEMENT_3D('',#494,#495,#496);
#494 = CARTESIAN_POINT('',(-567.111361754,6.082847841276E-02,
    -377.9627190469));
#495 = DIRECTION('',(-0.467887760472,-0.883787895142,-0.));
#496 = DIRECTION('',(-0.883787895142,0.467887760472,0.));
#497 = ADVANCED_FACE('',(#498),#513,.T.);
#498 = FACE_BOUND('',#499,.T.);
#499 = EDGE_LOOP('',(#500,#501,#507));
#500 = ORIENTED_EDGE('',*,*,#379,.F.);
#501 = ORIENTED_EDGE('',*,*,#502,.T.);
#502 = EDGE_CURVE('',#327,#124,#503,.T.);
#503 = LINE('',#504,#505);
#504 = CARTESIAN_POINT('',(-479.6700134277,-46.23165512085,
    -106.4572296142));
#505 = VECTOR('',#506,1.);
#506 = DIRECTION('',(0.935055368489,3.433152151303E-02,0.352835378739));
#507 = ORIENTED_EDGE('',*,*,#508,.T.);
#508 = EDGE_CURVE('',#124,#380,#509,.T.);
#509 = LINE('',#510,#511);
#510 = CARTESIAN_POINT('',(-150.0330047607,-34.12869262695,
    17.928558349609));
#511 = VECTOR('',#512,1.);
#512 = DIRECTION('',(0.,0.,1.));
#513 = PLANE('',#514);
#514 = AXIS2_PLACEMENT_3D('',#515,#516,#517);
#515 = CARTESIAN_POINT('',(-310.5506066659,-40.02226180877,
    -37.69916942756));
#516 = DIRECTION('',(3.669130775067E-02,-0.999326647266,
    -2.394393516862E-15));
#517 = DIRECTION('',(-0.999326647266,-3.669130775067E-02,0.));
#518 = ADVANCED_FACE('',(#519),#529,.T.);
#519 = FACE_BOUND('',#520,.T.);
#520 = EDGE_LOOP('',(#521,#522,#528));
#521 = ORIENTED_EDGE('',*,*,#502,.F.);
#522 = ORIENTED_EDGE('',*,*,#523,.T.);
#523 = EDGE_CURVE('',#327,#101,#524,.T.);
#524 = LINE('',#525,#526);
#525 = CARTESIAN_POINT('',(-479.6700134277,-46.23165512085,
    -106.4572296142));
#526 = VECTOR('',#527,1.);
#527 = DIRECTION('',(0.102096718291,3.748582912359E-03,-0.994767414143)
  );
#528 = ORIENTED_EDGE('',*,*,#131,.T.);
#529 = PLANE('',#530);
#530 = AXIS2_PLACEMENT_3D('',#531,#532,#533);
#531 = CARTESIAN_POINT('',(-348.9348727312,-41.43158024702,
    -228.7028026852));
#532 = DIRECTION('',(3.669130654086E-02,-0.99932664731,
    3.210458392937E-09));
#533 = DIRECTION('',(-0.99932664731,-3.669130654086E-02,0.));
#534 = ADVANCED_FACE('',(#535),#545,.T.);
#535 = FACE_BOUND('',#536,.T.);
#536 = EDGE_LOOP('',(#537,#538,#544));
#537 = ORIENTED_EDGE('',*,*,#487,.F.);
#538 = ORIENTED_EDGE('',*,*,#539,.T.);
#539 = EDGE_CURVE('',#480,#101,#540,.T.);
#540 = LINE('',#541,#542);
#541 = CARTESIAN_POINT('',(-479.6700134277,-46.23165512085,
    -545.408996582));
#542 = VECTOR('',#543,1.);
#543 = DIRECTION('',(0.999326648457,3.669127530224E-02,0.));
#544 = ORIENTED_EDGE('',*,*,#523,.F.);
#545 = PLANE('',#546);
#546 = AXIS2_PLACEMENT_3D('',#547,#548,#549);
#547 = CARTESIAN_POINT('',(-467.8303510996,-45.79695010158,
    -336.6262857999));
#548 = DIRECTION('',(3.669127530224E-02,-0.999326648457,-0.));
#549 = DIRECTION('',(-0.999326648457,-3.669127530224E-02,0.));
#550 = ADVANCED_FACE('',(#551),#561,.T.);
#551 = FACE_BOUND('',#552,.T.);
#552 = EDGE_LOOP('',(#553,#554,#560));
#553 = ORIENTED_EDGE('',*,*,#85,.F.);
#554 = ORIENTED_EDGE('',*,*,#555,.T.);
#555 = EDGE_CURVE('',#78,#124,#556,.T.);
#556 = LINE('',#557,#558);
#557 = CARTESIAN_POINT('',(-88.10683441162,236.31434631347,
    65.115737915039));
#558 = VECTOR('',#559,1.);
#559 = DIRECTION('',(-0.220043789687,-0.96097192588,-0.167671369918));
#560 = ORIENTED_EDGE('',*,*,#123,.F.);
#561 = PLANE('',#562);
#562 = AXIS2_PLACEMENT_3D('',#563,#564,#565);
#563 = CARTESIAN_POINT('',(-109.2810840658,143.84248197116,
    -59.1738344316));
#564 = DIRECTION('',(0.974771824457,-0.223203696754,0.));
#565 = DIRECTION('',(0.223203696754,0.974771824457,0.));
#566 = ADVANCED_FACE('',(#567),#582,.T.);
#567 = FACE_BOUND('',#568,.T.);
#568 = EDGE_LOOP('',(#569,#570,#576));
#569 = ORIENTED_EDGE('',*,*,#555,.F.);
#570 = ORIENTED_EDGE('',*,*,#571,.T.);
#571 = EDGE_CURVE('',#78,#358,#572,.T.);
#572 = LINE('',#573,#574);
#573 = CARTESIAN_POINT('',(-88.10683441162,236.31434631347,
    65.115737915039));
#574 = VECTOR('',#575,1.);
#575 = DIRECTION('',(-0.223203654048,-0.974771834236,0.));
#576 = ORIENTED_EDGE('',*,*,#577,.T.);
#577 = EDGE_CURVE('',#358,#124,#578,.T.);
#578 = LINE('',#579,#580);
#579 = CARTESIAN_POINT('',(-143.0422973632,-3.59902882576,
    65.115737915039));
#580 = VECTOR('',#581,1.);
#581 = DIRECTION('',(-0.123433689783,-0.539056898901,-0.833175722146));
#582 = PLANE('',#583);
#583 = AXIS2_PLACEMENT_3D('',#584,#585,#586);
#584 = CARTESIAN_POINT('',(-120.2602257786,95.894527039335,
    51.462356378206));
#585 = DIRECTION('',(0.974771834236,-0.223203654048,-2.575944615218E-07)
  );
#586 = DIRECTION('',(0.223203654048,0.974771834236,0.));
#587 = ADVANCED_FACE('',(#588),#593,.T.);
#588 = FACE_BOUND('',#589,.T.);
#589 = EDGE_LOOP('',(#590,#591,#592));
#590 = ORIENTED_EDGE('',*,*,#577,.F.);
#591 = ORIENTED_EDGE('',*,*,#387,.F.);
#592 = ORIENTED_EDGE('',*,*,#508,.F.);
#593 = PLANE('',#594);
#594 = AXIS2_PLACEMENT_3D('',#595,#596,#597);
#595 = CARTESIAN_POINT('',(-147.103907126,-21.33680177181,
    42.654274574553));
#596 = DIRECTION('',(0.974771747611,-0.223204032355,-2.612696380375E-16)
  );
#597 = DIRECTION('',(0.223204032355,0.974771747611,0.));
#598 = ADVANCED_FACE('',(#599),#609,.T.);
#599 = FACE_BOUND('',#600,.T.);
#600 = EDGE_LOOP('',(#601,#602,#608));
#601 = ORIENTED_EDGE('',*,*,#571,.F.);
#602 = ORIENTED_EDGE('',*,*,#603,.T.);
#603 = EDGE_CURVE('',#78,#335,#604,.T.);
#604 = LINE('',#605,#606);
#605 = CARTESIAN_POINT('',(-88.10683441162,236.31434631347,
    65.115737915039));
#606 = VECTOR('',#607,1.);
#607 = DIRECTION('',(-0.996502678035,8.356083214299E-02,0.));
#608 = ORIENTED_EDGE('',*,*,#365,.F.);
#609 = PLANE('',#610);
#610 = AXIS2_PLACEMENT_3D('',#611,#612,#613);
#611 = CARTESIAN_POINT('',(-381.9576969971,189.86619740623,
    65.115737915039));
#612 = DIRECTION('',(0.,0.,1.));
#613 = DIRECTION('',(1.,0.,-0.));
#614 = ADVANCED_FACE('',(#615),#625,.T.);
#615 = FACE_BOUND('',#616,.T.);
#616 = EDGE_LOOP('',(#617,#618,#619));
#617 = ORIENTED_EDGE('',*,*,#603,.F.);
#618 = ORIENTED_EDGE('',*,*,#77,.F.);
#619 = ORIENTED_EDGE('',*,*,#620,.T.);
#620 = EDGE_CURVE('',#55,#335,#621,.T.);
#621 = LINE('',#622,#623);
#622 = CARTESIAN_POINT('',(-212.8209991455,613.04235839843,
    65.115737915039));
#623 = VECTOR('',#624,1.);
#624 = DIRECTION('',(-0.856571999963,-0.516027527249,0.));
#625 = PLANE('',#626);
#626 = AXIS2_PLACEMENT_3D('',#627,#628,#629);
#627 = CARTESIAN_POINT('',(-377.4213690132,371.71149653361,
    65.115737915039));
#628 = DIRECTION('',(0.,0.,1.));
#629 = DIRECTION('',(1.,0.,-0.));
#630 = ADVANCED_FACE('',(#631),#641,.T.);
#631 = FACE_BOUND('',#632,.T.);
#632 = EDGE_LOOP('',(#633,#634,#640));
#633 = ORIENTED_EDGE('',*,*,#620,.F.);
#634 = ORIENTED_EDGE('',*,*,#635,.T.);
#635 = EDGE_CURVE('',#55,#201,#636,.T.);
#636 = LINE('',#637,#638);
#637 = CARTESIAN_POINT('',(-212.8209991455,613.04235839843,
    65.115737915039));
#638 = VECTOR('',#639,1.);
#639 = DIRECTION('',(-0.978930209352,-0.204195115558,0.));
#640 = ORIENTED_EDGE('',*,*,#402,.F.);
#641 = PLANE('',#642);
#642 = AXIS2_PLACEMENT_3D('',#643,#644,#645);
#643 = CARTESIAN_POINT('',(-520.3608077815,485.36254733958,
    65.115737915039));
#644 = DIRECTION('',(0.,0.,1.));
#645 = DIRECTION('',(1.,0.,-0.));
#646 = ADVANCED_FACE('',(#647),#657,.T.);
#647 = FACE_BOUND('',#648,.T.);
#648 = EDGE_LOOP('',(#649,#650,#656));
#649 = ORIENTED_EDGE('',*,*,#635,.F.);
#650 = ORIENTED_EDGE('',*,*,#651,.T.);
#651 = EDGE_CURVE('',#55,#179,#652,.T.);
#652 = LINE('',#653,#654);
#653 = CARTESIAN_POINT('',(-212.8209991455,613.04235839843,
    65.115737915039));
#654 = VECTOR('',#655,1.);
#655 = DIRECTION('',(-0.596886017696,0.802326044622,0.));
#656 = ORIENTED_EDGE('',*,*,#200,.F.);
#657 = PLANE('',#658);
#658 = AXIS2_PLACEMENT_3D('',#659,#660,#661);
#659 = CARTESIAN_POINT('',(-471.3952899092,629.00778210951,
    65.115737915039));
#660 = DIRECTION('',(0.,0.,1.));
#661 = DIRECTION('',(1.,0.,-0.));
#662 = ADVANCED_FACE('',(#663),#673,.T.);
#663 = FACE_BOUND('',#664,.T.);
#664 = EDGE_LOOP('',(#665,#671,#672));
#665 = ORIENTED_EDGE('',*,*,#666,.T.);
#666 = EDGE_CURVE('',#55,#248,#667,.T.);
#667 = LINE('',#668,#669);
#668 = CARTESIAN_POINT('',(-212.8209991455,613.04235839843,
    65.115737915039));
#669 = VECTOR('',#670,1.);
#670 = DIRECTION('',(-0.409067491296,0.912504130163,0.));
#671 = ORIENTED_EDGE('',*,*,#247,.F.);
#672 = ORIENTED_EDGE('',*,*,#651,.F.);
#673 = PLANE('',#674);
#674 = AXIS2_PLACEMENT_3D('',#675,#676,#677);
#675 = CARTESIAN_POINT('',(-283.5279036063,722.87694909708,
    65.115737915039));
#676 = DIRECTION('',(0.,0.,1.));
#677 = DIRECTION('',(1.,0.,-0.));
#678 = ADVANCED_FACE('',(#679),#694,.T.);
#679 = FACE_BOUND('',#680,.T.);
#680 = EDGE_LOOP('',(#681,#682,#688));
#681 = ORIENTED_EDGE('',*,*,#255,.F.);
#682 = ORIENTED_EDGE('',*,*,#683,.T.);
#683 = EDGE_CURVE('',#248,#24,#684,.T.);
#684 = LINE('',#685,#686);
#685 = CARTESIAN_POINT('',(-278.3864746093,759.298828125,65.115737915039
    ));
#686 = VECTOR('',#687,1.);
#687 = DIRECTION('',(0.103872137704,-0.231706886225,-0.96722411978));
#688 = ORIENTED_EDGE('',*,*,#689,.T.);
#689 = EDGE_CURVE('',#24,#156,#690,.T.);
#690 = LINE('',#691,#692);
#691 = CARTESIAN_POINT('',(-212.8209991455,613.04235839843,
    -545.408996582));
#692 = VECTOR('',#693,1.);
#693 = DIRECTION('',(-0.409067491296,0.912504130163,0.));
#694 = PLANE('',#695);
#695 = AXIS2_PLACEMENT_3D('',#696,#697,#698);
#696 = CARTESIAN_POINT('',(-259.8793502106,718.01510890849,
    -275.0445707171));
#697 = DIRECTION('',(0.912504130163,0.409067491296,0.));
#698 = DIRECTION('',(-0.409067491296,0.912504130163,0.));
#699 = ADVANCED_FACE('',(#700),#705,.T.);
#700 = FACE_BOUND('',#701,.T.);
#701 = EDGE_LOOP('',(#702,#703,#704));
#702 = ORIENTED_EDGE('',*,*,#683,.F.);
#703 = ORIENTED_EDGE('',*,*,#666,.F.);
#704 = ORIENTED_EDGE('',*,*,#54,.F.);
#705 = PLANE('',#706);
#706 = AXIS2_PLACEMENT_3D('',#707,#708,#709);
#707 = CARTESIAN_POINT('',(-231.3281235442,654.32607761493,
    -205.2486879498));
#708 = DIRECTION('',(0.912504130163,0.409067491296,0.));
#709 = DIRECTION('',(-0.409067491296,0.912504130163,0.));
#710 = ADVANCED_FACE('',(#711),#726,.T.);
#711 = FACE_BOUND('',#712,.T.);
#712 = EDGE_LOOP('',(#713,#719,#725));
#713 = ORIENTED_EDGE('',*,*,#714,.T.);
#714 = EDGE_CURVE('',#22,#441,#715,.T.);
#715 = LINE('',#716,#717);
#716 = CARTESIAN_POINT('',(-136.4072875976,382.21704101562,
    -545.408996582));
#717 = VECTOR('',#718,1.);
#718 = DIRECTION('',(-0.904781954601,-0.425875116234,0.));
#719 = ORIENTED_EDGE('',*,*,#720,.T.);
#720 = EDGE_CURVE('',#441,#24,#721,.T.);
#721 = LINE('',#722,#723);
#722 = CARTESIAN_POINT('',(-746.5189819335,95.041343688965,
    -545.408996582));
#723 = VECTOR('',#724,1.);
#724 = DIRECTION('',(0.717580670518,0.696475398918,0.));
#725 = ORIENTED_EDGE('',*,*,#21,.F.);
#726 = PLANE('',#727);
#727 = AXIS2_PLACEMENT_3D('',#728,#729,#730);
#728 = CARTESIAN_POINT('',(-419.5112279109,328.20988890986,
    -545.408996582));
#729 = DIRECTION('',(-0.,-0.,-1.));
#730 = DIRECTION('',(-1.,0.,0.));
#731 = ADVANCED_FACE('',(#732),#742,.T.);
#732 = FACE_BOUND('',#733,.T.);
#733 = EDGE_LOOP('',(#734,#735,#736));
#734 = ORIENTED_EDGE('',*,*,#720,.F.);
#735 = ORIENTED_EDGE('',*,*,#440,.F.);
#736 = ORIENTED_EDGE('',*,*,#737,.T.);
#737 = EDGE_CURVE('',#270,#24,#738,.T.);
#738 = LINE('',#739,#740);
#739 = CARTESIAN_POINT('',(-746.5189819335,691.52734375,-545.408996582)
  );
#740 = VECTOR('',#741,1.);
#741 = DIRECTION('',(0.989359138598,-0.145493968508,0.));
#742 = PLANE('',#743);
#743 = AXIS2_PLACEMENT_3D('',#744,#745,#746);
#744 = CARTESIAN_POINT('',(-564.3506284268,452.08628826062,
    -545.408996582));
#745 = DIRECTION('',(-0.,-0.,-1.));
#746 = DIRECTION('',(-1.,0.,0.));
#747 = ADVANCED_FACE('',(#748),#758,.T.);
#748 = FACE_BOUND('',#749,.T.);
#749 = EDGE_LOOP('',(#750,#751,#757));
#750 = ORIENTED_EDGE('',*,*,#737,.F.);
#751 = ORIENTED_EDGE('',*,*,#752,.T.);
#752 = EDGE_CURVE('',#270,#156,#753,.T.);
#753 = LINE('',#754,#755);
#754 = CARTESIAN_POINT('',(-746.5189819335,691.52734375,-545.408996582)
  );
#755 = VECTOR('',#756,1.);
#756 = DIRECTION('',(0.989682735762,0.143276245536,0.));
#757 = ORIENTED_EDGE('',*,*,#689,.F.);
#758 = PLANE('',#759);
#759 = AXIS2_PLACEMENT_3D('',#760,#761,#762);
#760 = CARTESIAN_POINT('',(-460.9022044253,686.41185766514,
    -545.408996582));
#761 = DIRECTION('',(-0.,-0.,-1.));
#762 = DIRECTION('',(-1.,0.,0.));
#763 = ADVANCED_FACE('',(#764),#769,.T.);
#764 = FACE_BOUND('',#765,.T.);
#765 = EDGE_LOOP('',(#766,#767,#768));
#766 = ORIENTED_EDGE('',*,*,#752,.F.);
#767 = ORIENTED_EDGE('',*,*,#269,.F.);
#768 = ORIENTED_EDGE('',*,*,#163,.F.);
#769 = PLANE('',#770);
#770 = AXIS2_PLACEMENT_3D('',#771,#772,#773);
#771 = CARTESIAN_POINT('',(-521.328595546,788.05765885427,-545.408996582
    ));
#772 = DIRECTION('',(-0.,-0.,-1.));
#773 = DIRECTION('',(-1.,0.,0.));
#774 = ADVANCED_FACE('',(#775),#785,.T.);
#775 = FACE_BOUND('',#776,.T.);
#776 = EDGE_LOOP('',(#777,#778,#784));
#777 = ORIENTED_EDGE('',*,*,#108,.F.);
#778 = ORIENTED_EDGE('',*,*,#779,.T.);
#779 = EDGE_CURVE('',#101,#441,#780,.T.);
#780 = LINE('',#781,#782);
#781 = CARTESIAN_POINT('',(-434.6187438964,-44.57755279541,
    -545.408996582));
#782 = VECTOR('',#783,1.);
#783 = DIRECTION('',(-0.912725966441,0.408572282692,0.));
#784 = ORIENTED_EDGE('',*,*,#714,.F.);
#785 = PLANE('',#786);
#786 = AXIS2_PLACEMENT_3D('',#787,#788,#789);
#787 = CARTESIAN_POINT('',(-421.7823012525,167.52244865588,
    -545.408996582));
#788 = DIRECTION('',(-0.,-0.,-1.));
#789 = DIRECTION('',(-1.,0.,0.));
#790 = ADVANCED_FACE('',(#791),#796,.T.);
#791 = FACE_BOUND('',#792,.T.);
#792 = EDGE_LOOP('',(#793,#794,#795));
#793 = ORIENTED_EDGE('',*,*,#779,.F.);
#794 = ORIENTED_EDGE('',*,*,#539,.F.);
#795 = ORIENTED_EDGE('',*,*,#479,.F.);
#796 = PLANE('',#797);
#797 = AXIS2_PLACEMENT_3D('',#798,#799,#800);
#798 = CARTESIAN_POINT('',(-591.7105769841,20.245819627202,
    -545.408996582));
#799 = DIRECTION('',(-0.,-0.,-1.));
#800 = DIRECTION('',(-1.,0.,0.));
#801 = ( GEOMETRIC_REPRESENTATION_CONTEXT(3) 
GLOBAL_UNCERTAINTY_ASSIGNED_CONTEXT((#805)) GLOBAL_UNIT_ASSIGNED_CONTEXT
((#802,#803,#804)) REPRESENTATION_CONTEXT('Context #1',
  '3D Context with UNIT and UNCERTAINTY') );
#802 = ( LENGTH_UNIT() NAMED_UNIT(*) SI_UNIT(.MILLI.,.METRE.) );
#803 = ( NAMED_UNIT(*) PLANE_ANGLE_UNIT() SI_UNIT($,.RADIAN.) );
#804 = ( NAMED_UNIT(*) SI_UNIT($,.STERADIAN.) SOLID_ANGLE_UNIT() );
#805 = UNCERTAINTY_MEASURE_WITH_UNIT(LENGTH_MEASURE(1.E-07),#802,
  'distance_accuracy_value','confusion accuracy');
#806 = PRODUCT_RELATED_PRODUCT_CATEGORY('part',$,(#7));
#807 = MECHANICAL_DESIGN_GEOMETRIC_PRESENTATION_REPRESENTATION('',(#808)
  ,#801);
#808 = STYLED_ITEM('color',(#809),#15);
#809 = PRESENTATION_STYLE_ASSIGNMENT((#810,#816));
#810 = SURFACE_STYLE_USAGE(.BOTH.,#811);
#811 = SURFACE_SIDE_STYLE('',(#812));
#812 = SURFACE_STYLE_FILL_AREA(#813);
#813 = FILL_AREA_STYLE('',(#814));
#814 = FILL_AREA_STYLE_COLOUR('',#815);
#815 = COLOUR_RGB('',0.800000010877,0.800000010877,0.90196104065);
#816 = CURVE_STYLE('',#817,POSITIVE_LENGTH_MEASURE(0.1),#818);
#817 = DRAUGHTING_PRE_DEFINED_CURVE_FONT('continuous');
#818 = COLOUR_RGB('',9.803921802644E-02,9.803921802644E-02,
  9.803921802644E-02);
ENDSEC;
END-ISO-10303-21;
